<svg width="544" height="302" viewBox="0 0 544 302" fill="none" xmlns="http://www.w3.org/2000/svg">
<g clip-path="url(#clip0_1567_58577)">
<path d="M108.5 -14.75V136.25" stroke="black"/>
<path d="M108.5 -14.75V136.25" stroke="black" stroke-opacity="0.2"/>
<path d="M108.5 -14.75V136.25" stroke="black" stroke-opacity="0.2"/>
<path d="M108.5 -14.75V136.25" stroke="#346EE7"/>
<path d="M108.643 184.029V310.242" stroke="#E5E5E5"/>
<path d="M179.5 -14.75V136.25" stroke="black"/>
<path d="M179.5 -14.75V136.25" stroke="black" stroke-opacity="0.2"/>
<path d="M179.5 -14.75V136.25" stroke="black" stroke-opacity="0.2"/>
<path d="M179.5 -14.75V136.25" stroke="#C83E2D"/>
<path d="M179.981 184.029V310.242" stroke="#E5E5E5"/>
<path d="M275.5 -14.75V136.25" stroke="#346EE7"/>
<path d="M275.098 184.029V310.242" stroke="#E5E5E5"/>
<path d="M378.5 -14.75V136.25" stroke="black"/>
<path d="M378.5 -14.75V136.25" stroke="black" stroke-opacity="0.2"/>
<path d="M378.5 -14.75V136.25" stroke="black" stroke-opacity="0.2"/>
<path d="M378.5 -14.75V136.25" stroke="#E99536"/>
<path d="M378.446 184.029V310.242" stroke="#E5E5E5"/>
<path d="M454.5 -14.75V136.25" stroke="black"/>
<path d="M454.5 -14.75V136.25" stroke="black" stroke-opacity="0.2"/>
<path d="M454.5 -14.75V136.25" stroke="black" stroke-opacity="0.2"/>
<path d="M454.5 -14.75V136.25" stroke="#CCCCCC"/>
<path d="M454.357 184.029V310.242" stroke="#E5E5E5"/>
<rect x="406.845" y="109.109" width="86.266" height="86.266" rx="19.0407" fill="white"/>
<rect x="406.845" y="109.109" width="86.266" height="86.266" rx="19.0407" stroke="#CCCCCC" stroke-width="0.777171"/>
<mask id="mask0_1567_58577" style="mask-type:alpha" maskUnits="userSpaceOnUse" x="424" y="121" width="53" height="61">
<path d="M450.357 121.682L424.749 136.772V166.496L450.357 181.587L476.423 166.496L475.965 136.772L450.357 121.682Z" fill="#D9D9D9"/>
</mask>
<g mask="url(#mask0_1567_58577)">
<path d="M440.938 136.317L447.223 136.317L434.518 171.341L435.32 171.813L448.083 136.629C448.299 136.032 447.858 135.402 447.223 135.402H440.938C440.553 135.402 440.209 135.643 440.078 136.005L428.538 167.817L429.34 168.289L440.938 136.317Z" fill="#CCCCCC"/>
<path d="M471.488 168.441L461.865 141.914C461.719 141.512 461.151 141.512 461.005 141.914L457.376 151.919C457.34 152.02 457.34 152.13 457.376 152.231L464.685 172.379L465.489 171.914L458.292 152.075L461.435 143.411L470.683 168.906L471.488 168.441Z" fill="#CCCCCC"/>
<path d="M462.417 173.692L456.322 156.888C456.176 156.488 455.61 156.486 455.463 156.886L451.805 166.813C451.768 166.915 451.768 167.026 451.805 167.127L455.615 177.631L456.419 177.165L452.721 166.973L455.889 158.376L461.613 174.158L462.417 173.692Z" fill="#CCCCCC"/>
<path d="M444.739 177.364L459.515 136.629C459.732 136.032 459.29 135.402 458.656 135.402H452.37C451.985 135.402 451.642 135.643 451.51 136.005L437.957 173.367L438.759 173.84L452.37 136.317L458.656 136.317L443.937 176.891L444.739 177.364Z" fill="#CCCCCC"/>
</g>
<rect x="61.8885" y="109.109" width="86.266" height="86.266" rx="19.0407" fill="white"/>
<rect x="61.8885" y="109.109" width="86.266" height="86.266" rx="19.0407" stroke="#CCCCCC" stroke-width="0.777171"/>
<path d="M104.643 123.513C120.301 123.513 132.995 136.206 132.995 151.864C132.995 167.523 120.301 180.217 104.643 180.217C89.2905 180.217 76.7898 168.014 76.3068 152.779H112.874V146.377H76.8234C79.3789 133.345 90.8623 123.513 104.643 123.513Z" stroke="#CCCCCC" stroke-width="1.82917"/>
<rect x="306.617" y="84.4143" width="134.901" height="134.901" rx="29.7754" fill="white"/>
<rect x="306.617" y="84.4143" width="134.901" height="134.901" rx="29.7754" stroke="#CCCCCC" stroke-width="1.21532"/>
<path d="M403.68 171.293L374.368 200.605L345.055 171.292L355.085 161.291L373.767 179.972L374.368 180.573L374.97 179.972L393.658 161.282L403.68 171.293ZM422.808 152.17L412.791 162.187L402.775 152.171L412.792 142.154L422.808 152.17ZM345.961 152.163L335.943 162.18L325.929 152.165L335.945 142.147L345.961 152.163ZM403.675 133.033L393.658 143.049L374.368 123.759L373.767 124.36L355.087 143.039L345.07 133.022L374.367 103.726L403.675 133.033Z" stroke="#CCCCCC" stroke-width="1.70145"/>
<mask id="path-18-inside-1_1567_58577" fill="white">
<path d="M385.744 152.16H385.749L374.365 140.775L365.951 149.187L364.984 150.154L362.991 152.148L362.975 152.164L362.991 152.18L374.365 163.556L385.75 152.172L385.755 152.165L385.745 152.16"/>
</mask>
<path d="M385.749 152.16V153.861H389.857L386.952 150.956L385.749 152.16ZM374.365 140.775L375.568 139.572L374.366 138.369L373.162 139.572L374.365 140.775ZM365.951 149.187L364.748 147.984L364.748 147.984L365.951 149.187ZM364.984 150.154L366.188 151.357L366.188 151.357L364.984 150.154ZM362.991 152.148L364.178 153.367L364.186 153.359L364.194 153.351L362.991 152.148ZM362.975 152.164L361.787 150.945L360.568 152.133L361.757 153.352L362.975 152.164ZM362.991 152.18L361.773 153.368L361.78 153.375L361.788 153.383L362.991 152.18ZM374.365 163.556L373.162 164.759L374.365 165.962L375.568 164.759L374.365 163.556ZM385.75 152.172L386.953 153.375L386.993 153.335L387.03 153.292L385.75 152.172ZM385.755 152.165L387.036 153.286L388.442 151.679L386.562 150.667L385.755 152.165ZM385.744 153.861H385.749V150.458H385.744V153.861ZM386.952 150.956L375.568 139.572L373.162 141.978L384.546 153.363L386.952 150.956ZM373.162 139.572L364.748 147.984L367.154 150.39L375.568 141.979L373.162 139.572ZM364.748 147.984L363.781 148.951L366.188 151.357L367.154 150.39L364.748 147.984ZM363.781 148.951L361.787 150.945L364.194 153.351L366.188 151.357L363.781 148.951ZM361.803 150.93L361.787 150.945L364.162 153.382L364.178 153.367L361.803 150.93ZM361.757 153.352L361.773 153.368L364.209 150.992L364.193 150.975L361.757 153.352ZM361.788 153.383L373.162 164.759L375.568 162.353L364.194 150.977L361.788 153.383ZM375.568 164.759L386.953 153.375L384.547 150.968L373.162 162.353L375.568 164.759ZM387.03 153.292L387.036 153.286L384.475 151.045L384.469 151.051L387.03 153.292ZM386.562 150.667L386.552 150.662L384.938 153.658L384.949 153.663L386.562 150.667Z" fill="#CCCCCC" mask="url(#path-18-inside-1_1567_58577)"/>
<rect x="108.909" y="84.7913" width="134.901" height="134.901" rx="29.7754" fill="white"/>
<rect x="108.909" y="84.7913" width="134.901" height="134.901" rx="29.7754" stroke="#CCCCCC" stroke-width="1.21532"/>
<path d="M190.275 126.255H209.364C214.756 126.255 219.482 127.282 222.829 129.358C226.127 131.406 228.113 134.481 228.113 138.768C228.113 146.797 224.719 151.955 220.111 155.084C215.456 158.244 209.492 159.378 204.374 159.152L204.353 159.151H194.444L194.296 159.887L190.926 176.736C190.841 177.164 190.465 177.471 190.03 177.472H180.056C179.477 177.472 179.043 176.939 179.161 176.371L189.379 126.983C189.467 126.559 189.841 126.255 190.275 126.255ZM199.395 135.669L196.506 149.388L196.274 150.491H207.077C211.274 150.491 215.422 146.664 215.763 141.404L215.765 141.385V141.364C215.815 139.039 215.199 137.368 214.01 136.301C212.845 135.254 211.299 134.943 209.821 134.943H199.547L199.395 135.669Z" stroke="#CCCCCC" stroke-width="1.82917"/>
<path d="M157.689 125.798C171.546 125.798 177.244 136.269 175.772 143.441L171.894 161.69C170.124 167.873 166.897 171.773 162.59 174.156C158.242 176.563 152.705 177.472 146.256 177.472C139.206 177.472 134.336 175.57 131.392 172.547C128.464 169.539 127.301 165.276 127.956 160.229L131.605 142.443L131.604 142.442C133.777 132.931 143.344 125.798 157.689 125.798ZM155.186 134.943C152.268 134.904 149.61 135.629 147.485 137.143C145.353 138.661 143.817 140.931 143.083 143.867L143.082 143.874L143.08 143.881L139.881 157.586C139.615 158.654 139.434 161.428 140.358 163.999C140.827 165.304 141.596 166.6 142.827 167.583C144.067 168.573 145.712 169.193 147.837 169.239L147.847 169.24H147.857C150.369 169.24 152.913 168.762 155.143 167.254C157.382 165.74 159.201 163.26 160.391 159.452L160.404 159.413L160.413 159.372L162.927 147.711L162.929 147.701L162.931 147.69C163.977 142.231 163.295 138.942 161.497 137.048C159.724 135.181 157.128 134.97 155.186 134.943Z" stroke="#CCCCCC" stroke-width="1.82917"/>
<rect x="187.668" y="67.5506" width="168.626" height="168.626" rx="37.2193" fill="white"/>
<rect x="187.668" y="67.5506" width="168.626" height="168.626" rx="37.2193" stroke="#CCCCCC" stroke-width="1.51915"/>
<path d="M310.304 151.578L271.22 175.175L232.137 151.578L271.22 88.1602L310.304 151.578Z" stroke="#CCCCCC" stroke-width="1.70145"/>
<path d="M271.22 215.701L233.952 162.259L270.781 184.496L271.221 184.761L271.661 184.496L308.49 162.259L271.22 215.701Z" stroke="#CCCCCC" stroke-width="1.70145"/>
</g>
<defs>
<clipPath id="clip0_1567_58577">
<rect width="544" height="302" fill="white"/>
</clipPath>
</defs>
</svg>
