<svg width="455" height="263" viewBox="0 0 455 263" fill="none" xmlns="http://www.w3.org/2000/svg">
<g clip-path="url(#clip0_1567_58562)">
<path d="M96.825 -13.5V105.5M96.825 160.5V273" stroke="#E5E5E5"/>
<path d="M205.325 -13.5V105.5M205.325 160.5V273" stroke="#53AF70"/>
<path d="M317.325 -13.5V105.5M317.325 160.5V273" stroke="#E5E5E5"/>
<g filter="url(#filter0_d_1567_58562)">
<path d="M73.925 131.5C73.925 120.73 82.6555 112 93.4251 112H360.425C371.195 112 379.925 120.73 379.925 131.5C379.925 142.27 371.195 151 360.425 151H93.425C82.6555 151 73.925 142.27 73.925 131.5Z" fill="white"/>
<path d="M93.425 112.5H360.425C370.918 112.5 379.425 121.007 379.425 131.5C379.425 141.993 370.918 150.5 360.425 150.5H93.425C82.9316 150.5 74.425 141.993 74.425 131.5C74.425 121.007 82.9316 112.5 93.425 112.5Z" stroke="#E5E5E5"/>
<path fill-rule="evenodd" clip-rule="evenodd" d="M95.255 128.16L104.405 131.06C105.051 131.253 105.524 131.805 105.617 132.472C105.709 133.139 105.404 133.799 104.835 134.16L101.645 136.16C101.434 136.291 101.256 136.469 101.125 136.68L99.125 139.87C98.824 140.359 98.2892 140.655 97.715 140.65C96.9482 140.655 96.2673 140.161 96.035 139.43L93.1351 130.28C92.9455 129.679 93.1062 129.022 93.5518 128.577C93.9974 128.131 94.654 127.97 95.255 128.16ZM100.795 134.78L103.985 132.78C104.019 132.748 104.023 132.697 103.995 132.66C103.985 132.59 103.915 132.59 103.915 132.59L94.765 129.69V129.75L97.6651 138.9C97.6753 138.962 97.7321 139.006 97.795 139L99.7951 135.78C100.054 135.38 100.395 135.039 100.795 134.78Z" fill="#808080"/>
<path d="M89.405 123.43C89.1203 123.175 88.6897 123.175 88.405 123.43C88.1591 123.718 88.1591 124.142 88.405 124.43L90.405 126.53C90.5479 126.667 90.7371 126.746 90.935 126.75C91.1335 126.748 91.3233 126.669 91.465 126.53C91.6249 126.394 91.7194 126.196 91.7251 125.987C91.7308 125.777 91.6472 125.575 91.495 125.43L89.405 123.43Z" fill="#808080"/>
<path d="M93.675 125.43C93.874 125.425 94.0627 125.341 94.1996 125.196C94.3365 125.052 94.4104 124.859 94.405 124.66V121.75C94.405 121.336 94.0693 121 93.655 121C93.2408 121 92.905 121.336 92.905 121.75V124.66C92.8995 124.866 92.9788 125.065 93.1244 125.211C93.2701 125.356 93.4692 125.436 93.675 125.43Z" fill="#808080"/>
<path d="M96.465 125.37C96.6641 125.371 96.8552 125.292 96.995 125.15L99.055 123.09C99.2557 122.903 99.3383 122.621 99.2704 122.356C99.2026 122.09 98.9951 121.882 98.7293 121.815C98.4636 121.747 98.182 121.829 97.995 122.03L95.935 124.09C95.6426 124.383 95.6426 124.857 95.935 125.15C96.0749 125.292 96.266 125.371 96.465 125.37Z" fill="#808080"/>
<path d="M89.065 130.96L87.0051 133.02C86.7126 133.313 86.7126 133.787 87.0051 134.08C87.1443 134.223 87.3358 134.302 87.5351 134.3C87.7341 134.301 87.9252 134.222 88.0651 134.08L90.125 132.02C90.3257 131.833 90.4083 131.551 90.3404 131.286C90.2726 131.02 90.0651 130.812 89.7993 130.745C89.5336 130.677 89.252 130.759 89.065 130.96Z" fill="#808080"/>
<path d="M89.595 127.99H86.675C86.2608 127.99 85.925 128.326 85.925 128.74C85.925 129.154 86.2608 129.49 86.675 129.49H89.595C90.0093 129.49 90.345 129.154 90.345 128.74C90.345 128.326 90.0093 127.99 89.595 127.99Z" fill="#808080"/>
<path d="M115.989 126.784C116.085 126.784 116.186 126.811 116.293 126.864C116.41 126.917 116.501 126.987 116.565 127.072L120.805 133.488L120.245 133.472L124.533 127.072C124.672 126.869 124.853 126.773 125.077 126.784C125.248 126.795 125.397 126.859 125.525 126.976C125.653 127.093 125.717 127.248 125.717 127.44V137.344C125.717 137.525 125.653 137.68 125.525 137.808C125.397 137.936 125.237 138 125.045 138C124.853 138 124.693 137.936 124.565 137.808C124.437 137.68 124.373 137.525 124.373 137.344V128.656L124.773 128.736L120.997 134.48C120.933 134.555 120.853 134.619 120.757 134.672C120.672 134.725 120.581 134.752 120.485 134.752C120.389 134.752 120.293 134.725 120.197 134.672C120.101 134.619 120.021 134.555 119.957 134.48L116.229 128.736L116.565 128.32V137.344C116.565 137.525 116.506 137.68 116.389 137.808C116.272 137.936 116.122 138 115.941 138C115.76 138 115.61 137.936 115.493 137.808C115.386 137.68 115.333 137.525 115.333 137.344V127.44C115.333 127.269 115.392 127.12 115.509 126.992C115.637 126.853 115.797 126.784 115.989 126.784ZM129.529 137.344C129.529 137.525 129.465 137.68 129.337 137.808C129.219 137.936 129.07 138 128.889 138C128.697 138 128.542 137.936 128.425 137.808C128.307 137.68 128.249 137.525 128.249 137.344V130.24C128.249 130.059 128.307 129.909 128.425 129.792C128.553 129.664 128.707 129.6 128.889 129.6C129.07 129.6 129.219 129.664 129.337 129.792C129.465 129.909 129.529 130.059 129.529 130.24V137.344ZM128.889 128.528C128.622 128.528 128.425 128.475 128.297 128.368C128.169 128.261 128.105 128.096 128.105 127.872V127.648C128.105 127.424 128.174 127.259 128.313 127.152C128.451 127.045 128.649 126.992 128.905 126.992C129.161 126.992 129.353 127.045 129.481 127.152C129.609 127.259 129.673 127.424 129.673 127.648V127.872C129.673 128.096 129.603 128.261 129.465 128.368C129.337 128.475 129.145 128.528 128.889 128.528ZM135.94 129.52C136.665 129.52 137.236 129.669 137.652 129.968C138.068 130.267 138.361 130.667 138.532 131.168C138.713 131.669 138.804 132.229 138.804 132.848V137.344C138.804 137.525 138.74 137.68 138.612 137.808C138.494 137.936 138.345 138 138.164 138C137.982 138 137.828 137.936 137.7 137.808C137.582 137.68 137.524 137.525 137.524 137.344V132.88C137.524 132.475 137.46 132.112 137.332 131.792C137.214 131.461 137.012 131.2 136.724 131.008C136.446 130.805 136.062 130.704 135.572 130.704C135.124 130.704 134.713 130.805 134.34 131.008C133.966 131.2 133.668 131.461 133.444 131.792C133.22 132.112 133.108 132.475 133.108 132.88V137.344C133.108 137.525 133.044 137.68 132.916 137.808C132.798 137.936 132.649 138 132.468 138C132.286 138 132.132 137.936 132.004 137.808C131.886 137.68 131.828 137.525 131.828 137.344V130.368C131.828 130.187 131.886 130.037 132.004 129.92C132.132 129.792 132.286 129.728 132.468 129.728C132.66 129.728 132.814 129.792 132.932 129.92C133.049 130.037 133.108 130.187 133.108 130.368V131.504L132.788 131.856C132.841 131.579 132.964 131.301 133.156 131.024C133.348 130.736 133.588 130.48 133.876 130.256C134.164 130.032 134.484 129.856 134.836 129.728C135.188 129.589 135.556 129.52 135.94 129.52ZM140.852 129.776H144.612C144.782 129.776 144.921 129.835 145.028 129.952C145.145 130.069 145.204 130.208 145.204 130.368C145.204 130.539 145.145 130.683 145.028 130.8C144.921 130.907 144.782 130.96 144.612 130.96H140.852C140.692 130.96 140.553 130.901 140.436 130.784C140.318 130.667 140.26 130.523 140.26 130.352C140.26 130.192 140.318 130.059 140.436 129.952C140.553 129.835 140.692 129.776 140.852 129.776ZM142.532 127.6C142.713 127.6 142.862 127.664 142.98 127.792C143.097 127.909 143.156 128.059 143.156 128.24V135.968C143.156 136.224 143.193 136.416 143.268 136.544C143.342 136.672 143.438 136.763 143.556 136.816C143.684 136.859 143.806 136.88 143.924 136.88C144.03 136.88 144.121 136.864 144.196 136.832C144.281 136.789 144.377 136.768 144.484 136.768C144.59 136.768 144.686 136.821 144.772 136.928C144.868 137.024 144.916 137.152 144.916 137.312C144.916 137.504 144.804 137.669 144.58 137.808C144.356 137.936 144.105 138 143.828 138C143.678 138 143.492 137.989 143.268 137.968C143.054 137.947 142.841 137.877 142.628 137.76C142.414 137.643 142.233 137.451 142.084 137.184C141.945 136.907 141.876 136.523 141.876 136.032V128.24C141.876 128.059 141.94 127.909 142.068 127.792C142.196 127.664 142.35 127.6 142.532 127.6ZM158.206 129.648C158.388 129.648 158.537 129.712 158.654 129.84C158.782 129.957 158.846 130.107 158.846 130.288V137.344C158.846 137.525 158.782 137.68 158.654 137.808C158.537 137.936 158.388 138 158.206 138C158.014 138 157.86 137.936 157.742 137.808C157.625 137.68 157.566 137.525 157.566 137.344V135.824L157.87 135.792C157.87 136.027 157.79 136.283 157.63 136.56C157.47 136.837 157.252 137.099 156.974 137.344C156.697 137.579 156.366 137.776 155.982 137.936C155.609 138.085 155.204 138.16 154.766 138.16C154.041 138.16 153.39 137.973 152.814 137.6C152.238 137.216 151.78 136.699 151.438 136.048C151.108 135.397 150.942 134.656 150.942 133.824C150.942 132.981 151.108 132.24 151.438 131.6C151.78 130.949 152.238 130.443 152.814 130.08C153.39 129.707 154.03 129.52 154.734 129.52C155.193 129.52 155.62 129.595 156.014 129.744C156.409 129.893 156.75 130.096 157.038 130.352C157.337 130.608 157.566 130.891 157.726 131.2C157.897 131.509 157.982 131.819 157.982 132.128L157.566 132.032V130.288C157.566 130.107 157.625 129.957 157.742 129.84C157.86 129.712 158.014 129.648 158.206 129.648ZM154.91 136.976C155.444 136.976 155.913 136.837 156.318 136.56C156.734 136.283 157.054 135.909 157.278 135.44C157.513 134.96 157.63 134.421 157.63 133.824C157.63 133.237 157.513 132.709 157.278 132.24C157.054 131.76 156.734 131.387 156.318 131.12C155.913 130.843 155.444 130.704 154.91 130.704C154.388 130.704 153.918 130.837 153.502 131.104C153.097 131.371 152.777 131.739 152.542 132.208C152.308 132.677 152.19 133.216 152.19 133.824C152.19 134.421 152.302 134.96 152.526 135.44C152.761 135.909 153.081 136.283 153.486 136.56C153.902 136.837 154.377 136.976 154.91 136.976ZM165.33 129.52C166.056 129.52 166.626 129.669 167.042 129.968C167.458 130.267 167.752 130.667 167.922 131.168C168.104 131.669 168.194 132.229 168.194 132.848V137.344C168.194 137.525 168.13 137.68 168.002 137.808C167.885 137.936 167.736 138 167.554 138C167.373 138 167.218 137.936 167.09 137.808C166.973 137.68 166.914 137.525 166.914 137.344V132.88C166.914 132.475 166.85 132.112 166.722 131.792C166.605 131.461 166.402 131.2 166.114 131.008C165.837 130.805 165.453 130.704 164.962 130.704C164.514 130.704 164.104 130.805 163.73 131.008C163.357 131.2 163.058 131.461 162.834 131.792C162.61 132.112 162.498 132.475 162.498 132.88V137.344C162.498 137.525 162.434 137.68 162.306 137.808C162.189 137.936 162.04 138 161.858 138C161.677 138 161.522 137.936 161.394 137.808C161.277 137.68 161.218 137.525 161.218 137.344V130.368C161.218 130.187 161.277 130.037 161.394 129.92C161.522 129.792 161.677 129.728 161.858 129.728C162.05 129.728 162.205 129.792 162.322 129.92C162.44 130.037 162.498 130.187 162.498 130.368V131.504L162.178 131.856C162.232 131.579 162.354 131.301 162.546 131.024C162.738 130.736 162.978 130.48 163.266 130.256C163.554 130.032 163.874 129.856 164.226 129.728C164.578 129.589 164.946 129.52 165.33 129.52ZM183.48 126.8C183.662 126.8 183.806 126.859 183.912 126.976C184.019 127.083 184.072 127.221 184.072 127.392V137.328C184.072 137.531 184.008 137.696 183.88 137.824C183.752 137.941 183.598 138 183.416 138C183.32 138 183.224 137.984 183.128 137.952C183.032 137.909 182.958 137.856 182.904 137.792L176.056 128.736L176.376 128.544V137.408C176.376 137.579 176.318 137.723 176.2 137.84C176.094 137.947 175.95 138 175.768 138C175.598 138 175.459 137.947 175.352 137.84C175.246 137.723 175.192 137.579 175.192 137.408V127.44C175.192 127.248 175.251 127.093 175.368 126.976C175.496 126.859 175.646 126.8 175.816 126.8C175.912 126.8 176.008 126.821 176.104 126.864C176.211 126.896 176.291 126.949 176.344 127.024L183.096 135.952L182.888 136.208V127.392C182.888 127.221 182.942 127.083 183.048 126.976C183.166 126.859 183.31 126.8 183.48 126.8ZM187.536 138C187.344 138 187.184 137.936 187.056 137.808C186.939 137.68 186.88 137.525 186.88 137.344V127.44C186.88 127.259 186.939 127.109 187.056 126.992C187.184 126.864 187.339 126.8 187.52 126.8H193.136C193.317 126.8 193.472 126.859 193.6 126.976C193.728 127.093 193.792 127.243 193.792 127.424C193.792 127.595 193.728 127.739 193.6 127.856C193.472 127.973 193.317 128.032 193.136 128.032H188.096L188.192 127.904V131.824L188.112 131.648H192.416C192.597 131.648 192.752 131.712 192.88 131.84C193.008 131.957 193.072 132.107 193.072 132.288C193.072 132.448 193.008 132.592 192.88 132.72C192.752 132.837 192.597 132.896 192.416 132.896H188.08L188.192 132.752V137.344C188.192 137.525 188.128 137.68 188 137.808C187.872 137.936 187.717 138 187.536 138ZM199.633 138C199.441 138 199.281 137.936 199.153 137.808C199.025 137.68 198.961 137.525 198.961 137.344V127.456H200.321V137.344C200.321 137.525 200.257 137.68 200.129 137.808C200.001 137.936 199.836 138 199.633 138ZM195.921 128.016C195.74 128.016 195.585 127.963 195.457 127.856C195.34 127.739 195.281 127.589 195.281 127.408C195.281 127.227 195.34 127.083 195.457 126.976C195.585 126.859 195.74 126.8 195.921 126.8H203.361C203.543 126.8 203.697 126.859 203.825 126.976C203.953 127.083 204.017 127.227 204.017 127.408C204.017 127.6 203.953 127.749 203.825 127.856C203.697 127.963 203.543 128.016 203.361 128.016H195.921Z" fill="#4D4D4D"/>
<path d="M227.673 142.52C227.737 142.52 227.793 142.544 227.841 142.592C227.889 142.64 227.913 142.696 227.913 142.76C227.913 142.832 227.889 142.892 227.841 142.94C227.793 142.98 227.737 143 227.673 143H223.041C222.969 143 222.901 142.984 222.837 142.952C222.773 142.912 222.741 142.844 222.741 142.748C222.741 142.7 222.761 142.648 222.801 142.592L225.621 139.448C226.117 138.912 226.481 138.432 226.713 138.008C226.953 137.576 227.073 137.188 227.073 136.844C227.073 136.276 226.897 135.82 226.545 135.476C226.193 135.132 225.721 134.96 225.129 134.96C224.849 134.96 224.573 135.016 224.301 135.128C224.029 135.24 223.789 135.388 223.581 135.572C223.381 135.756 223.233 135.96 223.137 136.184C223.105 136.256 223.069 136.308 223.029 136.34C222.997 136.364 222.949 136.376 222.885 136.376C222.821 136.376 222.765 136.36 222.717 136.328C222.669 136.288 222.645 136.24 222.645 136.184C222.645 136.152 222.649 136.124 222.657 136.1C222.665 136.068 222.681 136.024 222.705 135.968C222.833 135.704 223.025 135.46 223.281 135.236C223.545 135.012 223.841 134.832 224.169 134.696C224.505 134.552 224.837 134.48 225.165 134.48C225.661 134.48 226.089 134.576 226.449 134.768C226.817 134.96 227.101 135.228 227.301 135.572C227.501 135.916 227.601 136.324 227.601 136.796C227.601 137.204 227.473 137.648 227.217 138.128C226.961 138.608 226.561 139.144 226.017 139.736L223.437 142.664L223.329 142.52H227.673ZM230.246 143.024C230.19 143.024 230.134 143.004 230.078 142.964C230.022 142.924 229.994 142.872 229.994 142.808C229.994 142.776 230.002 142.736 230.018 142.688L233.282 135.032L233.426 135.14H229.166C229.102 135.14 229.046 135.12 228.998 135.08C228.95 135.032 228.926 134.972 228.926 134.9C228.926 134.828 228.95 134.772 228.998 134.732C229.046 134.684 229.102 134.66 229.166 134.66H233.654C233.742 134.66 233.798 134.68 233.822 134.72C233.846 134.76 233.858 134.812 233.858 134.876C233.858 134.924 233.85 134.964 233.834 134.996L230.486 142.868C230.47 142.916 230.438 142.956 230.39 142.988C230.35 143.012 230.302 143.024 230.246 143.024ZM234.662 136.964H237.446C237.51 136.964 237.562 136.988 237.602 137.036C237.65 137.084 237.674 137.136 237.674 137.192C237.674 137.256 237.65 137.312 237.602 137.36C237.562 137.4 237.51 137.42 237.446 137.42H234.662C234.606 137.42 234.554 137.396 234.506 137.348C234.458 137.3 234.434 137.248 234.434 137.192C234.434 137.128 234.458 137.076 234.506 137.036C234.554 136.988 234.606 136.964 234.662 136.964ZM235.886 135.2C235.958 135.2 236.014 135.224 236.054 135.272C236.102 135.32 236.126 135.376 236.126 135.44V141.692C236.126 141.956 236.158 142.152 236.222 142.28C236.294 142.4 236.382 142.48 236.486 142.52C236.59 142.552 236.69 142.568 236.786 142.568C236.842 142.568 236.89 142.56 236.93 142.544C236.97 142.528 237.018 142.52 237.074 142.52C237.13 142.52 237.178 142.544 237.218 142.592C237.258 142.632 237.278 142.68 237.278 142.736C237.278 142.808 237.23 142.872 237.134 142.928C237.046 142.976 236.934 143 236.798 143C236.75 143 236.662 143 236.534 143C236.414 142.992 236.282 142.956 236.138 142.892C236.002 142.82 235.886 142.696 235.79 142.52C235.694 142.336 235.646 142.068 235.646 141.716V135.44C235.646 135.376 235.67 135.32 235.718 135.272C235.766 135.224 235.822 135.2 235.886 135.2ZM241.627 136.94C242.107 136.94 242.503 137.044 242.815 137.252C243.135 137.46 243.371 137.74 243.523 138.092C243.683 138.444 243.763 138.832 243.763 139.256V142.76C243.763 142.824 243.739 142.88 243.691 142.928C243.643 142.976 243.587 143 243.523 143C243.451 143 243.391 142.976 243.343 142.928C243.303 142.88 243.283 142.824 243.283 142.76V139.256C243.283 138.912 243.227 138.6 243.115 138.32C243.003 138.04 242.827 137.816 242.587 137.648C242.347 137.48 242.027 137.396 241.627 137.396C241.283 137.396 240.947 137.48 240.619 137.648C240.291 137.816 240.019 138.04 239.803 138.32C239.595 138.6 239.491 138.912 239.491 139.256V142.76C239.491 142.824 239.467 142.88 239.419 142.928C239.371 142.976 239.315 143 239.251 143C239.179 143 239.119 142.976 239.071 142.928C239.031 142.88 239.011 142.824 239.011 142.76V134.36C239.011 134.296 239.035 134.24 239.083 134.192C239.131 134.144 239.187 134.12 239.251 134.12C239.323 134.12 239.379 134.144 239.419 134.192C239.467 134.24 239.491 134.296 239.491 134.36V138.548L239.191 139.124C239.191 138.836 239.263 138.56 239.407 138.296C239.551 138.032 239.739 137.8 239.971 137.6C240.211 137.392 240.475 137.232 240.763 137.12C241.051 137 241.339 136.94 241.627 136.94ZM252.548 134.6C253.148 134.6 253.668 134.716 254.108 134.948C254.548 135.172 254.908 135.484 255.188 135.884C255.476 136.276 255.688 136.724 255.824 137.228C255.96 137.732 256.028 138.256 256.028 138.8C256.028 139.568 255.904 140.272 255.656 140.912C255.416 141.544 255.04 142.052 254.528 142.436C254.016 142.812 253.356 143 252.548 143H249.428C249.364 143 249.308 142.976 249.26 142.928C249.212 142.88 249.188 142.824 249.188 142.76V134.84C249.188 134.776 249.212 134.72 249.26 134.672C249.308 134.624 249.364 134.6 249.428 134.6H252.548ZM252.428 142.52C253.164 142.52 253.756 142.356 254.204 142.028C254.66 141.692 254.992 141.244 255.2 140.684C255.416 140.116 255.524 139.488 255.524 138.8C255.524 138.312 255.464 137.844 255.344 137.396C255.232 136.948 255.052 136.552 254.804 136.208C254.556 135.856 254.236 135.58 253.844 135.38C253.452 135.18 252.98 135.08 252.428 135.08H249.62L249.692 134.984V142.628L249.62 142.52H252.428ZM260.414 143.12C259.814 143.12 259.282 142.992 258.818 142.736C258.362 142.48 258.002 142.12 257.738 141.656C257.474 141.184 257.342 140.632 257.342 140C257.342 139.328 257.47 138.756 257.726 138.284C257.99 137.812 258.326 137.452 258.734 137.204C259.15 136.948 259.59 136.82 260.054 136.82C260.39 136.82 260.718 136.876 261.038 136.988C261.358 137.092 261.642 137.26 261.89 137.492C262.146 137.716 262.35 138 262.502 138.344C262.662 138.68 262.75 139.084 262.766 139.556C262.766 139.62 262.742 139.68 262.694 139.736C262.646 139.784 262.59 139.808 262.526 139.808H257.63L257.558 139.352H262.394L262.274 139.46V139.244C262.234 138.82 262.098 138.464 261.866 138.176C261.642 137.888 261.37 137.672 261.05 137.528C260.73 137.376 260.398 137.3 260.054 137.3C259.814 137.3 259.562 137.356 259.298 137.468C259.034 137.572 258.79 137.736 258.566 137.96C258.342 138.176 258.158 138.452 258.014 138.788C257.878 139.124 257.81 139.516 257.81 139.964C257.81 140.452 257.906 140.9 258.098 141.308C258.298 141.716 258.59 142.044 258.974 142.292C259.366 142.54 259.846 142.664 260.414 142.664C260.686 142.664 260.942 142.62 261.182 142.532C261.422 142.436 261.638 142.312 261.83 142.16C262.022 142.008 262.178 141.844 262.298 141.668C262.362 141.596 262.43 141.56 262.502 141.56C262.558 141.56 262.606 141.584 262.646 141.632C262.686 141.672 262.706 141.72 262.706 141.776C262.706 141.832 262.69 141.88 262.658 141.92C262.41 142.24 262.09 142.52 261.698 142.76C261.314 143 260.886 143.12 260.414 143.12ZM267.034 136.82C267.394 136.82 267.73 136.86 268.042 136.94C268.362 137.02 268.618 137.128 268.81 137.264C269.01 137.392 269.11 137.528 269.11 137.672C269.11 137.728 269.086 137.784 269.038 137.84C268.998 137.888 268.946 137.912 268.882 137.912C268.794 137.912 268.722 137.888 268.666 137.84C268.618 137.792 268.566 137.736 268.51 137.672C268.454 137.6 268.366 137.536 268.246 137.48C268.134 137.424 267.974 137.376 267.766 137.336C267.566 137.296 267.318 137.276 267.022 137.276C266.558 137.276 266.134 137.396 265.75 137.636C265.366 137.876 265.058 138.2 264.826 138.608C264.602 139.008 264.49 139.46 264.49 139.964C264.49 140.476 264.594 140.936 264.802 141.344C265.018 141.752 265.314 142.076 265.69 142.316C266.074 142.548 266.518 142.664 267.022 142.664C267.382 142.664 267.654 142.632 267.838 142.568C268.03 142.496 268.194 142.42 268.33 142.34C268.498 142.244 268.614 142.152 268.678 142.064C268.742 141.976 268.818 141.932 268.906 141.932C268.97 141.932 269.018 141.952 269.05 141.992C269.09 142.032 269.11 142.084 269.11 142.148C269.11 142.244 269.022 142.372 268.846 142.532C268.67 142.684 268.422 142.82 268.102 142.94C267.79 143.06 267.418 143.12 266.986 143.12C266.402 143.12 265.886 142.984 265.438 142.712C264.99 142.432 264.638 142.056 264.382 141.584C264.134 141.104 264.01 140.564 264.01 139.964C264.01 139.404 264.134 138.888 264.382 138.416C264.638 137.936 264.99 137.552 265.438 137.264C265.894 136.968 266.426 136.82 267.034 136.82Z" fill="#808080"/>
<path d="M290.925 129C290.925 124.582 294.507 121 298.925 121H361.925C366.343 121 369.925 124.582 369.925 129V133C369.925 137.418 366.343 141 361.925 141H298.925C294.507 141 290.925 137.418 290.925 133V129Z" fill="#E1F9E7"/>
<path d="M305.861 128.08C306.037 128.168 306.137 128.304 306.161 128.488C306.193 128.672 306.149 128.84 306.029 128.992C305.941 129.112 305.825 129.18 305.681 129.196C305.545 129.212 305.409 129.184 305.273 129.112C305.041 128.992 304.797 128.896 304.541 128.824C304.285 128.752 304.013 128.716 303.725 128.716C303.269 128.716 302.857 128.792 302.489 128.944C302.129 129.088 301.817 129.3 301.553 129.58C301.289 129.852 301.085 130.176 300.941 130.552C300.805 130.928 300.737 131.344 300.737 131.8C300.737 132.304 300.813 132.752 300.965 133.144C301.117 133.528 301.325 133.856 301.589 134.128C301.861 134.392 302.177 134.592 302.537 134.728C302.905 134.856 303.301 134.92 303.725 134.92C303.997 134.92 304.261 134.888 304.517 134.824C304.781 134.76 305.029 134.664 305.261 134.536C305.405 134.464 305.545 134.44 305.681 134.464C305.825 134.48 305.941 134.548 306.029 134.668C306.165 134.836 306.213 135.008 306.173 135.184C306.141 135.352 306.041 135.48 305.873 135.568C305.673 135.68 305.453 135.776 305.213 135.856C304.973 135.936 304.729 136 304.481 136.048C304.233 136.096 303.981 136.12 303.725 136.12C303.149 136.12 302.605 136.024 302.093 135.832C301.581 135.64 301.125 135.36 300.725 134.992C300.325 134.624 300.009 134.172 299.777 133.636C299.553 133.1 299.441 132.488 299.441 131.8C299.441 131.184 299.545 130.616 299.753 130.096C299.969 129.568 300.269 129.116 300.653 128.74C301.045 128.356 301.501 128.06 302.021 127.852C302.541 127.636 303.109 127.528 303.725 127.528C304.109 127.528 304.481 127.576 304.841 127.672C305.209 127.768 305.549 127.904 305.861 128.08ZM313.442 132.844C313.442 133.484 313.302 134.052 313.022 134.548C312.742 135.036 312.362 135.42 311.882 135.7C311.402 135.98 310.862 136.12 310.262 136.12C309.662 136.12 309.122 135.98 308.642 135.7C308.162 135.42 307.778 135.036 307.49 134.548C307.21 134.052 307.07 133.484 307.07 132.844C307.07 132.196 307.21 131.628 307.49 131.14C307.778 130.644 308.162 130.256 308.642 129.976C309.122 129.688 309.662 129.544 310.262 129.544C310.862 129.544 311.402 129.688 311.882 129.976C312.362 130.256 312.742 130.644 313.022 131.14C313.302 131.628 313.442 132.196 313.442 132.844ZM312.242 132.844C312.242 132.404 312.154 132.024 311.978 131.704C311.802 131.376 311.562 131.12 311.258 130.936C310.962 130.744 310.63 130.648 310.262 130.648C309.894 130.648 309.558 130.744 309.254 130.936C308.95 131.12 308.71 131.376 308.534 131.704C308.358 132.024 308.27 132.404 308.27 132.844C308.27 133.268 308.358 133.644 308.534 133.972C308.71 134.3 308.95 134.556 309.254 134.74C309.558 134.924 309.894 135.016 310.262 135.016C310.63 135.016 310.962 134.924 311.258 134.74C311.562 134.556 311.802 134.3 311.978 133.972C312.154 133.644 312.242 133.268 312.242 132.844ZM317.968 129.58C318.56 129.58 319.016 129.728 319.336 130.024C319.656 130.312 319.868 130.704 319.972 131.2L319.78 131.14L319.864 130.948C319.968 130.74 320.124 130.532 320.332 130.324C320.548 130.108 320.804 129.932 321.1 129.796C321.396 129.652 321.712 129.58 322.048 129.58C322.6 129.58 323.028 129.7 323.332 129.94C323.636 130.172 323.848 130.488 323.968 130.888C324.088 131.28 324.148 131.72 324.148 132.208V135.388C324.148 135.564 324.092 135.712 323.98 135.832C323.868 135.944 323.724 136 323.548 136C323.38 136 323.236 135.944 323.116 135.832C323.004 135.712 322.948 135.564 322.948 135.388V132.22C322.948 131.94 322.908 131.684 322.828 131.452C322.756 131.22 322.624 131.036 322.432 130.9C322.248 130.756 321.992 130.684 321.664 130.684C321.352 130.684 321.072 130.756 320.824 130.9C320.584 131.036 320.396 131.22 320.26 131.452C320.124 131.684 320.056 131.94 320.056 132.22V135.388C320.056 135.564 320 135.712 319.888 135.832C319.776 135.944 319.632 136 319.456 136C319.28 136 319.136 135.944 319.024 135.832C318.912 135.712 318.856 135.564 318.856 135.388V132.208C318.856 131.928 318.816 131.672 318.736 131.44C318.664 131.208 318.536 131.024 318.352 130.888C318.168 130.752 317.912 130.684 317.584 130.684C317.272 130.684 316.996 130.752 316.756 130.888C316.516 131.024 316.328 131.208 316.192 131.44C316.064 131.672 316 131.928 316 132.208V135.388C316 135.564 315.94 135.712 315.82 135.832C315.708 135.944 315.568 136 315.4 136C315.224 136 315.08 135.944 314.968 135.832C314.856 135.712 314.8 135.564 314.8 135.388V130.3C314.8 130.124 314.856 129.98 314.968 129.868C315.08 129.748 315.224 129.688 315.4 129.688C315.568 129.688 315.708 129.748 315.82 129.868C315.94 129.98 316 130.124 316 130.3V131.008L315.772 131.14C315.828 130.964 315.92 130.784 316.048 130.6C316.176 130.416 316.336 130.248 316.528 130.096C316.728 129.944 316.948 129.82 317.188 129.724C317.428 129.628 317.688 129.58 317.968 129.58ZM329.008 129.58C329.568 129.58 330.064 129.72 330.496 130C330.936 130.28 331.284 130.664 331.54 131.152C331.796 131.632 331.924 132.192 331.924 132.832C331.924 133.472 331.796 134.04 331.54 134.536C331.284 135.024 330.94 135.408 330.508 135.688C330.076 135.968 329.588 136.108 329.044 136.108C328.74 136.108 328.452 136.06 328.18 135.964C327.908 135.868 327.668 135.744 327.46 135.592C327.252 135.432 327.08 135.264 326.944 135.088C326.816 134.912 326.736 134.748 326.704 134.596L327.028 134.44V137.788C327.028 137.964 326.968 138.108 326.848 138.22C326.736 138.34 326.596 138.4 326.428 138.4C326.252 138.4 326.108 138.34 325.996 138.22C325.884 138.108 325.828 137.964 325.828 137.788V130.276C325.828 130.108 325.884 129.964 325.996 129.844C326.108 129.724 326.252 129.664 326.428 129.664C326.596 129.664 326.736 129.724 326.848 129.844C326.968 129.964 327.028 130.108 327.028 130.276V131.104L326.836 130.996C326.86 130.844 326.936 130.688 327.064 130.528C327.192 130.36 327.352 130.204 327.544 130.06C327.744 129.916 327.968 129.8 328.216 129.712C328.472 129.624 328.736 129.58 329.008 129.58ZM328.876 130.684C328.492 130.684 328.156 130.78 327.868 130.972C327.588 131.156 327.368 131.408 327.208 131.728C327.048 132.048 326.968 132.416 326.968 132.832C326.968 133.24 327.048 133.612 327.208 133.948C327.368 134.276 327.588 134.536 327.868 134.728C328.156 134.912 328.492 135.004 328.876 135.004C329.252 135.004 329.58 134.912 329.86 134.728C330.14 134.536 330.36 134.276 330.52 133.948C330.688 133.612 330.772 133.24 330.772 132.832C330.772 132.424 330.688 132.06 330.52 131.74C330.36 131.412 330.14 131.156 329.86 130.972C329.58 130.78 329.252 130.684 328.876 130.684ZM334.577 135.388C334.577 135.564 334.517 135.712 334.397 135.832C334.285 135.944 334.145 136 333.977 136C333.809 136 333.665 135.944 333.545 135.832C333.433 135.712 333.377 135.564 333.377 135.388V127.732C333.377 127.556 333.437 127.412 333.557 127.3C333.677 127.18 333.821 127.12 333.989 127.12C334.165 127.12 334.305 127.18 334.409 127.3C334.521 127.412 334.577 127.556 334.577 127.732V135.388ZM339.186 136.12C338.522 136.12 337.946 135.984 337.458 135.712C336.97 135.432 336.59 135.052 336.318 134.572C336.054 134.084 335.922 133.528 335.922 132.904C335.922 132.2 336.062 131.6 336.342 131.104C336.63 130.6 337.002 130.216 337.458 129.952C337.914 129.68 338.398 129.544 338.91 129.544C339.302 129.544 339.674 129.624 340.026 129.784C340.378 129.936 340.69 130.152 340.962 130.432C341.242 130.704 341.462 131.028 341.622 131.404C341.782 131.772 341.866 132.176 341.874 132.616C341.866 132.776 341.802 132.908 341.682 133.012C341.562 133.116 341.422 133.168 341.262 133.168H336.594L336.306 132.148H340.818L340.59 132.364V132.064C340.574 131.784 340.482 131.54 340.314 131.332C340.146 131.116 339.938 130.952 339.69 130.84C339.442 130.72 339.182 130.66 338.91 130.66C338.67 130.66 338.438 130.7 338.214 130.78C337.998 130.852 337.802 130.972 337.626 131.14C337.458 131.308 337.322 131.532 337.218 131.812C337.122 132.084 337.074 132.424 337.074 132.832C337.074 133.272 337.166 133.656 337.35 133.984C337.534 134.312 337.782 134.568 338.094 134.752C338.406 134.928 338.75 135.016 339.126 135.016C339.422 135.016 339.666 134.988 339.858 134.932C340.05 134.868 340.21 134.792 340.338 134.704C340.466 134.616 340.578 134.532 340.674 134.452C340.794 134.38 340.914 134.344 341.034 134.344C341.178 134.344 341.298 134.396 341.394 134.5C341.49 134.596 341.538 134.712 341.538 134.848C341.538 135.024 341.45 135.184 341.274 135.328C341.058 135.536 340.758 135.72 340.374 135.88C339.998 136.04 339.602 136.12 339.186 136.12ZM343.146 129.76H345.966C346.126 129.76 346.258 129.816 346.362 129.928C346.474 130.032 346.53 130.164 346.53 130.324C346.53 130.476 346.474 130.604 346.362 130.708C346.258 130.812 346.126 130.864 345.966 130.864H343.146C342.986 130.864 342.85 130.812 342.738 130.708C342.634 130.596 342.582 130.464 342.582 130.312C342.582 130.152 342.634 130.02 342.738 129.916C342.85 129.812 342.986 129.76 343.146 129.76ZM344.406 128.2C344.582 128.2 344.726 128.26 344.838 128.38C344.95 128.492 345.006 128.636 345.006 128.812V134.38C345.006 134.524 345.03 134.64 345.078 134.728C345.126 134.816 345.19 134.876 345.27 134.908C345.358 134.94 345.446 134.956 345.534 134.956C345.622 134.956 345.698 134.94 345.762 134.908C345.834 134.876 345.918 134.86 346.014 134.86C346.11 134.86 346.198 134.904 346.278 134.992C346.358 135.08 346.398 135.2 346.398 135.352C346.398 135.544 346.294 135.7 346.086 135.82C345.878 135.94 345.654 136 345.414 136C345.278 136 345.118 135.988 344.934 135.964C344.75 135.94 344.57 135.88 344.394 135.784C344.226 135.688 344.086 135.536 343.974 135.328C343.862 135.112 343.806 134.812 343.806 134.428V128.812C343.806 128.636 343.862 128.492 343.974 128.38C344.094 128.26 344.238 128.2 344.406 128.2ZM350.74 136.12C350.076 136.12 349.5 135.984 349.012 135.712C348.524 135.432 348.144 135.052 347.872 134.572C347.608 134.084 347.476 133.528 347.476 132.904C347.476 132.2 347.616 131.6 347.896 131.104C348.184 130.6 348.556 130.216 349.012 129.952C349.468 129.68 349.952 129.544 350.464 129.544C350.856 129.544 351.228 129.624 351.58 129.784C351.932 129.936 352.244 130.152 352.516 130.432C352.796 130.704 353.016 131.028 353.176 131.404C353.336 131.772 353.42 132.176 353.428 132.616C353.42 132.776 353.356 132.908 353.236 133.012C353.116 133.116 352.976 133.168 352.816 133.168H348.148L347.86 132.148H352.372L352.144 132.364V132.064C352.128 131.784 352.036 131.54 351.868 131.332C351.7 131.116 351.492 130.952 351.244 130.84C350.996 130.72 350.736 130.66 350.464 130.66C350.224 130.66 349.992 130.7 349.768 130.78C349.552 130.852 349.356 130.972 349.18 131.14C349.012 131.308 348.876 131.532 348.772 131.812C348.676 132.084 348.628 132.424 348.628 132.832C348.628 133.272 348.72 133.656 348.904 133.984C349.088 134.312 349.336 134.568 349.648 134.752C349.96 134.928 350.304 135.016 350.68 135.016C350.976 135.016 351.22 134.988 351.412 134.932C351.604 134.868 351.764 134.792 351.892 134.704C352.02 134.616 352.132 134.532 352.228 134.452C352.348 134.38 352.468 134.344 352.588 134.344C352.732 134.344 352.852 134.396 352.948 134.5C353.044 134.596 353.092 134.712 353.092 134.848C353.092 135.024 353.004 135.184 352.828 135.328C352.612 135.536 352.312 135.72 351.928 135.88C351.552 136.04 351.156 136.12 350.74 136.12ZM359.957 127.12C360.133 127.12 360.277 127.176 360.389 127.288C360.501 127.4 360.557 127.548 360.557 127.732V135.388C360.557 135.564 360.501 135.712 360.389 135.832C360.277 135.944 360.133 136 359.957 136C359.789 136 359.645 135.944 359.525 135.832C359.413 135.712 359.357 135.564 359.357 135.388V134.524L359.609 134.536C359.609 134.68 359.549 134.844 359.429 135.028C359.317 135.204 359.161 135.376 358.961 135.544C358.761 135.712 358.525 135.852 358.253 135.964C357.981 136.068 357.689 136.12 357.377 136.12C356.825 136.12 356.329 135.98 355.889 135.7C355.449 135.412 355.101 135.024 354.845 134.536C354.589 134.04 354.461 133.472 354.461 132.832C354.461 132.192 354.589 131.628 354.845 131.14C355.101 130.644 355.445 130.256 355.877 129.976C356.317 129.688 356.805 129.544 357.341 129.544C357.677 129.544 357.989 129.6 358.277 129.712C358.573 129.824 358.829 129.968 359.045 130.144C359.261 130.32 359.429 130.508 359.549 130.708C359.669 130.9 359.729 131.084 359.729 131.26L359.357 131.296V127.732C359.357 127.556 359.413 127.412 359.525 127.3C359.645 127.18 359.789 127.12 359.957 127.12ZM357.509 135.016C357.893 135.016 358.225 134.92 358.505 134.728C358.793 134.536 359.017 134.276 359.177 133.948C359.337 133.62 359.417 133.248 359.417 132.832C359.417 132.416 359.337 132.044 359.177 131.716C359.017 131.388 358.793 131.128 358.505 130.936C358.217 130.744 357.885 130.648 357.509 130.648C357.141 130.648 356.813 130.744 356.525 130.936C356.245 131.128 356.021 131.388 355.853 131.716C355.693 132.044 355.613 132.416 355.613 132.832C355.613 133.248 355.693 133.62 355.853 133.948C356.021 134.276 356.245 134.536 356.525 134.728C356.813 134.92 357.141 135.016 357.509 135.016Z" fill="#53AF70"/>
</g>
</g>
<defs>
<filter id="filter0_d_1567_58562" x="67.625" y="110.7" width="318.6" height="51.6" filterUnits="userSpaceOnUse" color-interpolation-filters="sRGB">
<feFlood flood-opacity="0" result="BackgroundImageFix"/>
<feColorMatrix in="SourceAlpha" type="matrix" values="0 0 0 0 0 0 0 0 0 0 0 0 0 0 0 0 0 0 127 0" result="hardAlpha"/>
<feOffset dy="5"/>
<feGaussianBlur stdDeviation="3.15"/>
<feComposite in2="hardAlpha" operator="out"/>
<feColorMatrix type="matrix" values="0 0 0 0 0.787271 0 0 0 0 0.883333 0 0 0 0 0.669861 0 0 0 0.26 0"/>
<feBlend mode="normal" in2="BackgroundImageFix" result="effect1_dropShadow_1567_58562"/>
<feBlend mode="normal" in="SourceGraphic" in2="effect1_dropShadow_1567_58562" result="shape"/>
</filter>
<clipPath id="clip0_1567_58562">
<rect width="454.825" height="263" fill="white"/>
</clipPath>
</defs>
</svg>
