<svg width="393" height="263" viewBox="0 0 393 263" fill="none" xmlns="http://www.w3.org/2000/svg">
<g clip-path="url(#clip0_1567_58510)">
<path d="M-27.5 56.5L94.5 56.5" stroke="#E5E5E5"/>
<g filter="url(#filter0_d_1567_58510)">
<path d="M100.5 45C100.5 40.5817 104.082 37 108.5 37H296.5C300.918 37 304.5 40.5817 304.5 45V68C304.5 72.4183 300.918 76 296.5 76H108.5C104.082 76 100.5 72.4183 100.5 68V45Z" fill="white"/>
<path d="M108.5 37.5H296.5C300.642 37.5 304 40.8579 304 45V68C304 72.1421 300.642 75.5 296.5 75.5H108.5C104.358 75.5 101 72.1421 101 68V45C101 40.8579 104.358 37.5 108.5 37.5Z" stroke="#E5E5E5"/>
<path fill-rule="evenodd" clip-rule="evenodd" d="M121.83 53.16L130.98 56.06C131.625 56.2527 132.099 56.8045 132.192 57.4718C132.284 58.139 131.979 58.7989 131.41 59.16L128.22 61.16C128.009 61.2909 127.831 61.4689 127.7 61.68L125.7 64.87C125.399 65.3589 124.864 65.6547 124.29 65.65C123.523 65.6553 122.842 65.1608 122.61 64.43L119.71 55.28C119.52 54.679 119.681 54.0224 120.127 53.5768C120.572 53.1311 121.229 52.9705 121.83 53.16ZM127.37 59.78L130.56 57.78C130.594 57.7484 130.598 57.6967 130.57 57.66C130.56 57.59 130.49 57.59 130.49 57.59L121.34 54.69V54.75L124.24 63.9C124.25 63.9624 124.307 64.0061 124.37 64L126.37 60.78C126.629 60.3797 126.97 60.0389 127.37 59.78Z" fill="#808080"/>
<path d="M115.98 48.43C115.695 48.1754 115.265 48.1754 114.98 48.43C114.734 48.718 114.734 49.142 114.98 49.43L116.98 51.53C117.123 51.6672 117.312 51.7457 117.51 51.75C117.708 51.7477 117.898 51.6689 118.04 51.53C118.2 51.394 118.294 51.1965 118.3 50.9867C118.306 50.7769 118.222 50.5745 118.07 50.43L115.98 48.43Z" fill="#808080"/>
<path d="M120.25 50.43C120.449 50.4248 120.638 50.3407 120.775 50.1963C120.911 50.0518 120.985 49.8589 120.98 49.66V46.75C120.98 46.3358 120.644 46 120.23 46C119.816 46 119.48 46.3358 119.48 46.75V49.66C119.474 49.8659 119.554 50.065 119.699 50.2106C119.845 50.3562 120.044 50.4356 120.25 50.43Z" fill="#808080"/>
<path d="M123.04 50.37C123.239 50.3709 123.43 50.2916 123.57 50.15L125.63 48.09C125.831 47.903 125.913 47.6214 125.845 47.3557C125.778 47.09 125.57 46.8825 125.304 46.8146C125.039 46.7468 124.757 46.8293 124.57 47.03L122.51 49.09C122.218 49.3828 122.218 49.8572 122.51 50.15C122.65 50.2916 122.841 50.3709 123.04 50.37Z" fill="#808080"/>
<path d="M115.64 55.96L113.58 58.02C113.288 58.3128 113.288 58.7872 113.58 59.08C113.719 59.2226 113.911 59.3021 114.11 59.3C114.309 59.3009 114.5 59.2216 114.64 59.08L116.7 57.02C116.901 56.833 116.983 56.5514 116.915 56.2857C116.848 56.02 116.64 55.8125 116.374 55.7446C116.109 55.6768 115.827 55.7593 115.64 55.96Z" fill="#808080"/>
<path d="M116.17 52.99H113.25C112.836 52.99 112.5 53.3258 112.5 53.74C112.5 54.1542 112.836 54.49 113.25 54.49H116.17C116.584 54.49 116.92 54.1542 116.92 53.74C116.92 53.3258 116.584 52.99 116.17 52.99Z" fill="#808080"/>
<path d="M142.564 51.784C142.66 51.784 142.761 51.8107 142.868 51.864C142.985 51.9173 143.076 51.9867 143.14 52.072L147.38 58.488L146.82 58.472L151.108 52.072C151.247 51.8693 151.428 51.7733 151.652 51.784C151.823 51.7947 151.972 51.8587 152.1 51.976C152.228 52.0933 152.292 52.248 152.292 52.44V62.344C152.292 62.5253 152.228 62.68 152.1 62.808C151.972 62.936 151.812 63 151.62 63C151.428 63 151.268 62.936 151.14 62.808C151.012 62.68 150.948 62.5253 150.948 62.344V53.656L151.348 53.736L147.572 59.48C147.508 59.5547 147.428 59.6187 147.332 59.672C147.247 59.7253 147.156 59.752 147.06 59.752C146.964 59.752 146.868 59.7253 146.772 59.672C146.676 59.6187 146.596 59.5547 146.532 59.48L142.804 53.736L143.14 53.32V62.344C143.14 62.5253 143.081 62.68 142.964 62.808C142.847 62.936 142.697 63 142.516 63C142.335 63 142.185 62.936 142.068 62.808C141.961 62.68 141.908 62.5253 141.908 62.344V52.44C141.908 52.2693 141.967 52.12 142.084 51.992C142.212 51.8533 142.372 51.784 142.564 51.784ZM156.104 62.344C156.104 62.5253 156.04 62.68 155.912 62.808C155.794 62.936 155.645 63 155.464 63C155.272 63 155.117 62.936 155 62.808C154.882 62.68 154.824 62.5253 154.824 62.344V55.24C154.824 55.0587 154.882 54.9093 155 54.792C155.128 54.664 155.282 54.6 155.464 54.6C155.645 54.6 155.794 54.664 155.912 54.792C156.04 54.9093 156.104 55.0587 156.104 55.24V62.344ZM155.464 53.528C155.197 53.528 155 53.4747 154.872 53.368C154.744 53.2613 154.68 53.096 154.68 52.872V52.648C154.68 52.424 154.749 52.2587 154.888 52.152C155.026 52.0453 155.224 51.992 155.48 51.992C155.736 51.992 155.928 52.0453 156.056 52.152C156.184 52.2587 156.248 52.424 156.248 52.648V52.872C156.248 53.096 156.178 53.2613 156.039 53.368C155.912 53.4747 155.72 53.528 155.464 53.528ZM162.515 54.52C163.24 54.52 163.811 54.6693 164.227 54.968C164.643 55.2667 164.936 55.6667 165.107 56.168C165.288 56.6693 165.379 57.2293 165.379 57.848V62.344C165.379 62.5253 165.315 62.68 165.187 62.808C165.069 62.936 164.92 63 164.739 63C164.557 63 164.403 62.936 164.275 62.808C164.157 62.68 164.099 62.5253 164.099 62.344V57.88C164.099 57.4747 164.035 57.112 163.907 56.792C163.789 56.4613 163.587 56.2 163.299 56.008C163.021 55.8053 162.637 55.704 162.147 55.704C161.699 55.704 161.288 55.8053 160.915 56.008C160.541 56.2 160.243 56.4613 160.019 56.792C159.795 57.112 159.683 57.4747 159.683 57.88V62.344C159.683 62.5253 159.619 62.68 159.491 62.808C159.373 62.936 159.224 63 159.043 63C158.861 63 158.707 62.936 158.579 62.808C158.461 62.68 158.403 62.5253 158.403 62.344V55.368C158.403 55.1867 158.461 55.0373 158.579 54.92C158.707 54.792 158.861 54.728 159.043 54.728C159.235 54.728 159.389 54.792 159.507 54.92C159.624 55.0373 159.683 55.1867 159.683 55.368V56.504L159.363 56.856C159.416 56.5787 159.539 56.3013 159.731 56.024C159.923 55.736 160.163 55.48 160.451 55.256C160.739 55.032 161.059 54.856 161.411 54.728C161.763 54.5893 162.131 54.52 162.515 54.52ZM167.427 54.776H171.187C171.357 54.776 171.496 54.8347 171.603 54.952C171.72 55.0693 171.779 55.208 171.779 55.368C171.779 55.5387 171.72 55.6827 171.603 55.8C171.496 55.9067 171.357 55.96 171.187 55.96H167.427C167.267 55.96 167.128 55.9013 167.011 55.784C166.893 55.6667 166.835 55.5227 166.835 55.352C166.835 55.192 166.893 55.0587 167.011 54.952C167.128 54.8347 167.267 54.776 167.427 54.776ZM169.107 52.6C169.288 52.6 169.437 52.664 169.555 52.792C169.672 52.9093 169.731 53.0587 169.731 53.24V60.968C169.731 61.224 169.768 61.416 169.843 61.544C169.917 61.672 170.013 61.7627 170.131 61.816C170.259 61.8587 170.381 61.88 170.499 61.88C170.605 61.88 170.696 61.864 170.771 61.832C170.856 61.7893 170.952 61.768 171.059 61.768C171.165 61.768 171.261 61.8213 171.347 61.928C171.443 62.024 171.491 62.152 171.491 62.312C171.491 62.504 171.379 62.6693 171.155 62.808C170.931 62.936 170.68 63 170.403 63C170.253 63 170.067 62.9893 169.843 62.968C169.629 62.9467 169.416 62.8773 169.203 62.76C168.989 62.6427 168.808 62.4507 168.659 62.184C168.52 61.9067 168.451 61.5227 168.451 61.032V53.24C168.451 53.0587 168.515 52.9093 168.643 52.792C168.771 52.664 168.925 52.6 169.107 52.6ZM184.781 54.648C184.963 54.648 185.112 54.712 185.229 54.84C185.357 54.9573 185.421 55.1067 185.421 55.288V62.344C185.421 62.5253 185.357 62.68 185.229 62.808C185.112 62.936 184.963 63 184.781 63C184.589 63 184.435 62.936 184.317 62.808C184.2 62.68 184.141 62.5253 184.141 62.344V60.824L184.445 60.792C184.445 61.0267 184.365 61.2827 184.205 61.56C184.045 61.8373 183.827 62.0987 183.549 62.344C183.272 62.5787 182.941 62.776 182.557 62.936C182.184 63.0853 181.779 63.16 181.341 63.16C180.616 63.16 179.965 62.9733 179.389 62.6C178.813 62.216 178.355 61.6987 178.013 61.048C177.683 60.3973 177.517 59.656 177.517 58.824C177.517 57.9813 177.683 57.24 178.013 56.6C178.355 55.9493 178.813 55.4427 179.389 55.08C179.965 54.7067 180.605 54.52 181.309 54.52C181.768 54.52 182.195 54.5947 182.589 54.744C182.984 54.8933 183.325 55.096 183.613 55.352C183.912 55.608 184.141 55.8907 184.301 56.2C184.472 56.5093 184.557 56.8187 184.557 57.128L184.141 57.032V55.288C184.141 55.1067 184.2 54.9573 184.317 54.84C184.435 54.712 184.589 54.648 184.781 54.648ZM181.485 61.976C182.019 61.976 182.488 61.8373 182.893 61.56C183.309 61.2827 183.629 60.9093 183.853 60.44C184.088 59.96 184.205 59.4213 184.205 58.824C184.205 58.2373 184.088 57.7093 183.853 57.24C183.629 56.76 183.309 56.3867 182.893 56.12C182.488 55.8427 182.019 55.704 181.485 55.704C180.963 55.704 180.493 55.8373 180.077 56.104C179.672 56.3707 179.352 56.7387 179.117 57.208C178.883 57.6773 178.765 58.216 178.765 58.824C178.765 59.4213 178.877 59.96 179.101 60.44C179.336 60.9093 179.656 61.2827 180.061 61.56C180.477 61.8373 180.952 61.976 181.485 61.976ZM191.905 54.52C192.631 54.52 193.201 54.6693 193.617 54.968C194.033 55.2667 194.327 55.6667 194.497 56.168C194.679 56.6693 194.769 57.2293 194.769 57.848V62.344C194.769 62.5253 194.705 62.68 194.577 62.808C194.46 62.936 194.311 63 194.129 63C193.948 63 193.793 62.936 193.665 62.808C193.548 62.68 193.489 62.5253 193.489 62.344V57.88C193.489 57.4747 193.425 57.112 193.297 56.792C193.18 56.4613 192.977 56.2 192.689 56.008C192.412 55.8053 192.028 55.704 191.537 55.704C191.089 55.704 190.679 55.8053 190.305 56.008C189.932 56.2 189.633 56.4613 189.409 56.792C189.185 57.112 189.073 57.4747 189.073 57.88V62.344C189.073 62.5253 189.009 62.68 188.881 62.808C188.764 62.936 188.615 63 188.433 63C188.252 63 188.097 62.936 187.969 62.808C187.852 62.68 187.793 62.5253 187.793 62.344V55.368C187.793 55.1867 187.852 55.0373 187.969 54.92C188.097 54.792 188.252 54.728 188.433 54.728C188.625 54.728 188.78 54.792 188.897 54.92C189.015 55.0373 189.073 55.1867 189.073 55.368V56.504L188.753 56.856C188.807 56.5787 188.929 56.3013 189.121 56.024C189.313 55.736 189.553 55.48 189.841 55.256C190.129 55.032 190.449 54.856 190.801 54.728C191.153 54.5893 191.521 54.52 191.905 54.52ZM210.055 51.8C210.237 51.8 210.381 51.8587 210.487 51.976C210.594 52.0827 210.647 52.2213 210.647 52.392V62.328C210.647 62.5307 210.583 62.696 210.455 62.824C210.327 62.9413 210.173 63 209.991 63C209.895 63 209.799 62.984 209.703 62.952C209.607 62.9093 209.533 62.856 209.479 62.792L202.631 53.736L202.951 53.544V62.408C202.951 62.5787 202.893 62.7227 202.775 62.84C202.669 62.9467 202.525 63 202.343 63C202.173 63 202.034 62.9467 201.927 62.84C201.821 62.7227 201.767 62.5787 201.767 62.408V52.44C201.767 52.248 201.826 52.0933 201.943 51.976C202.071 51.8587 202.221 51.8 202.391 51.8C202.487 51.8 202.583 51.8213 202.679 51.864C202.786 51.896 202.866 51.9493 202.919 52.024L209.671 60.952L209.463 61.208V52.392C209.463 52.2213 209.517 52.0827 209.623 51.976C209.741 51.8587 209.885 51.8 210.055 51.8ZM214.111 63C213.919 63 213.759 62.936 213.631 62.808C213.514 62.68 213.455 62.5253 213.455 62.344V52.44C213.455 52.2587 213.514 52.1093 213.631 51.992C213.759 51.864 213.914 51.8 214.095 51.8H219.711C219.892 51.8 220.047 51.8587 220.175 51.976C220.303 52.0933 220.367 52.2427 220.367 52.424C220.367 52.5947 220.303 52.7387 220.175 52.856C220.047 52.9733 219.892 53.032 219.711 53.032H214.671L214.767 52.904V56.824L214.687 56.648H218.991C219.172 56.648 219.327 56.712 219.455 56.84C219.583 56.9573 219.647 57.1067 219.647 57.288C219.647 57.448 219.583 57.592 219.455 57.72C219.327 57.8373 219.172 57.896 218.991 57.896H214.655L214.767 57.752V62.344C214.767 62.5253 214.703 62.68 214.575 62.808C214.447 62.936 214.292 63 214.111 63ZM226.208 63C226.016 63 225.856 62.936 225.728 62.808C225.6 62.68 225.536 62.5253 225.536 62.344V52.456H226.896V62.344C226.896 62.5253 226.832 62.68 226.704 62.808C226.576 62.936 226.411 63 226.208 63ZM222.496 53.016C222.315 53.016 222.16 52.9627 222.032 52.856C221.915 52.7387 221.856 52.5893 221.856 52.408C221.856 52.2267 221.915 52.0827 222.032 51.976C222.16 51.8587 222.315 51.8 222.496 51.8H229.936C230.117 51.8 230.272 51.8587 230.4 51.976C230.528 52.0827 230.592 52.2267 230.592 52.408C230.592 52.6 230.528 52.7493 230.4 52.856C230.272 52.9627 230.117 53.016 229.936 53.016H222.496Z" fill="#4D4D4D"/>
<path d="M254.248 67.52C254.312 67.52 254.368 67.544 254.416 67.592C254.464 67.64 254.488 67.696 254.488 67.76C254.488 67.832 254.464 67.892 254.416 67.94C254.368 67.98 254.312 68 254.248 68H249.616C249.544 68 249.476 67.984 249.412 67.952C249.348 67.912 249.316 67.844 249.316 67.748C249.316 67.7 249.336 67.648 249.376 67.592L252.196 64.448C252.692 63.912 253.056 63.432 253.288 63.008C253.528 62.576 253.648 62.188 253.648 61.844C253.648 61.276 253.472 60.82 253.12 60.476C252.768 60.132 252.296 59.96 251.704 59.96C251.424 59.96 251.148 60.016 250.876 60.128C250.604 60.24 250.364 60.388 250.156 60.572C249.956 60.756 249.808 60.96 249.712 61.184C249.68 61.256 249.644 61.308 249.604 61.34C249.572 61.364 249.524 61.376 249.46 61.376C249.396 61.376 249.34 61.36 249.292 61.328C249.244 61.288 249.22 61.24 249.22 61.184C249.22 61.152 249.224 61.124 249.232 61.1C249.24 61.068 249.256 61.024 249.28 60.968C249.408 60.704 249.6 60.46 249.856 60.236C250.12 60.012 250.416 59.832 250.744 59.696C251.08 59.552 251.412 59.48 251.74 59.48C252.236 59.48 252.664 59.576 253.024 59.768C253.392 59.96 253.676 60.228 253.876 60.572C254.076 60.916 254.176 61.324 254.176 61.796C254.176 62.204 254.048 62.648 253.792 63.128C253.536 63.608 253.136 64.144 252.592 64.736L250.012 67.664L249.904 67.52H254.248ZM256.821 68.024C256.765 68.024 256.709 68.004 256.653 67.964C256.597 67.924 256.569 67.872 256.569 67.808C256.569 67.776 256.577 67.736 256.593 67.688L259.857 60.032L260.001 60.14H255.741C255.677 60.14 255.621 60.12 255.573 60.08C255.525 60.032 255.501 59.972 255.501 59.9C255.501 59.828 255.525 59.772 255.573 59.732C255.621 59.684 255.677 59.66 255.741 59.66H260.229C260.317 59.66 260.373 59.68 260.397 59.72C260.421 59.76 260.433 59.812 260.433 59.876C260.433 59.924 260.425 59.964 260.409 59.996L257.061 67.868C257.045 67.916 257.013 67.956 256.965 67.988C256.925 68.012 256.877 68.024 256.821 68.024ZM261.237 61.964H264.021C264.085 61.964 264.137 61.988 264.177 62.036C264.225 62.084 264.249 62.136 264.249 62.192C264.249 62.256 264.225 62.312 264.177 62.36C264.137 62.4 264.085 62.42 264.021 62.42H261.237C261.181 62.42 261.129 62.396 261.081 62.348C261.033 62.3 261.009 62.248 261.009 62.192C261.009 62.128 261.033 62.076 261.081 62.036C261.129 61.988 261.181 61.964 261.237 61.964ZM262.461 60.2C262.533 60.2 262.589 60.224 262.629 60.272C262.677 60.32 262.701 60.376 262.701 60.44V66.692C262.701 66.956 262.733 67.152 262.797 67.28C262.869 67.4 262.957 67.48 263.061 67.52C263.165 67.552 263.265 67.568 263.361 67.568C263.417 67.568 263.465 67.56 263.505 67.544C263.545 67.528 263.593 67.52 263.649 67.52C263.705 67.52 263.753 67.544 263.793 67.592C263.833 67.632 263.853 67.68 263.853 67.736C263.853 67.808 263.805 67.872 263.709 67.928C263.621 67.976 263.509 68 263.373 68C263.325 68 263.237 68 263.109 68C262.989 67.992 262.857 67.956 262.713 67.892C262.577 67.82 262.461 67.696 262.365 67.52C262.269 67.336 262.221 67.068 262.221 66.716V60.44C262.221 60.376 262.245 60.32 262.293 60.272C262.341 60.224 262.397 60.2 262.461 60.2ZM268.202 61.94C268.682 61.94 269.078 62.044 269.39 62.252C269.71 62.46 269.946 62.74 270.098 63.092C270.258 63.444 270.338 63.832 270.338 64.256V67.76C270.338 67.824 270.314 67.88 270.266 67.928C270.218 67.976 270.162 68 270.098 68C270.026 68 269.966 67.976 269.918 67.928C269.878 67.88 269.858 67.824 269.858 67.76V64.256C269.858 63.912 269.802 63.6 269.69 63.32C269.578 63.04 269.402 62.816 269.162 62.648C268.922 62.48 268.602 62.396 268.202 62.396C267.858 62.396 267.522 62.48 267.194 62.648C266.866 62.816 266.594 63.04 266.378 63.32C266.17 63.6 266.066 63.912 266.066 64.256V67.76C266.066 67.824 266.042 67.88 265.994 67.928C265.946 67.976 265.89 68 265.826 68C265.754 68 265.694 67.976 265.646 67.928C265.606 67.88 265.586 67.824 265.586 67.76V59.36C265.586 59.296 265.61 59.24 265.658 59.192C265.706 59.144 265.762 59.12 265.826 59.12C265.898 59.12 265.954 59.144 265.994 59.192C266.042 59.24 266.066 59.296 266.066 59.36V63.548L265.766 64.124C265.766 63.836 265.838 63.56 265.982 63.296C266.126 63.032 266.314 62.8 266.546 62.6C266.786 62.392 267.05 62.232 267.338 62.12C267.626 62 267.914 61.94 268.202 61.94ZM279.123 59.6C279.723 59.6 280.243 59.716 280.683 59.948C281.123 60.172 281.483 60.484 281.763 60.884C282.051 61.276 282.263 61.724 282.399 62.228C282.535 62.732 282.603 63.256 282.603 63.8C282.603 64.568 282.479 65.272 282.231 65.912C281.991 66.544 281.615 67.052 281.103 67.436C280.591 67.812 279.931 68 279.123 68H276.003C275.939 68 275.883 67.976 275.835 67.928C275.787 67.88 275.763 67.824 275.763 67.76V59.84C275.763 59.776 275.787 59.72 275.835 59.672C275.883 59.624 275.939 59.6 276.003 59.6H279.123ZM279.003 67.52C279.739 67.52 280.331 67.356 280.779 67.028C281.235 66.692 281.567 66.244 281.775 65.684C281.991 65.116 282.099 64.488 282.099 63.8C282.099 63.312 282.039 62.844 281.919 62.396C281.807 61.948 281.627 61.552 281.379 61.208C281.131 60.856 280.811 60.58 280.419 60.38C280.027 60.18 279.555 60.08 279.003 60.08H276.195L276.267 59.984V67.628L276.195 67.52H279.003ZM286.989 68.12C286.389 68.12 285.857 67.992 285.393 67.736C284.937 67.48 284.577 67.12 284.313 66.656C284.049 66.184 283.917 65.632 283.917 65C283.917 64.328 284.045 63.756 284.301 63.284C284.565 62.812 284.901 62.452 285.309 62.204C285.725 61.948 286.165 61.82 286.629 61.82C286.965 61.82 287.293 61.876 287.613 61.988C287.933 62.092 288.217 62.26 288.465 62.492C288.721 62.716 288.925 63 289.077 63.344C289.237 63.68 289.325 64.084 289.341 64.556C289.341 64.62 289.317 64.68 289.269 64.736C289.221 64.784 289.165 64.808 289.101 64.808H284.205L284.133 64.352H288.969L288.849 64.46V64.244C288.809 63.82 288.673 63.464 288.441 63.176C288.217 62.888 287.945 62.672 287.625 62.528C287.305 62.376 286.973 62.3 286.629 62.3C286.389 62.3 286.137 62.356 285.873 62.468C285.609 62.572 285.365 62.736 285.141 62.96C284.917 63.176 284.733 63.452 284.589 63.788C284.453 64.124 284.385 64.516 284.385 64.964C284.385 65.452 284.481 65.9 284.673 66.308C284.873 66.716 285.165 67.044 285.549 67.292C285.941 67.54 286.421 67.664 286.989 67.664C287.261 67.664 287.517 67.62 287.757 67.532C287.997 67.436 288.213 67.312 288.405 67.16C288.597 67.008 288.753 66.844 288.873 66.668C288.937 66.596 289.005 66.56 289.077 66.56C289.133 66.56 289.181 66.584 289.221 66.632C289.261 66.672 289.281 66.72 289.281 66.776C289.281 66.832 289.265 66.88 289.233 66.92C288.985 67.24 288.665 67.52 288.273 67.76C287.889 68 287.461 68.12 286.989 68.12ZM293.609 61.82C293.969 61.82 294.305 61.86 294.617 61.94C294.937 62.02 295.193 62.128 295.385 62.264C295.585 62.392 295.685 62.528 295.685 62.672C295.685 62.728 295.661 62.784 295.613 62.84C295.573 62.888 295.521 62.912 295.457 62.912C295.369 62.912 295.297 62.888 295.241 62.84C295.193 62.792 295.141 62.736 295.085 62.672C295.029 62.6 294.941 62.536 294.821 62.48C294.709 62.424 294.549 62.376 294.341 62.336C294.141 62.296 293.893 62.276 293.597 62.276C293.133 62.276 292.709 62.396 292.325 62.636C291.941 62.876 291.633 63.2 291.401 63.608C291.177 64.008 291.065 64.46 291.065 64.964C291.065 65.476 291.169 65.936 291.377 66.344C291.593 66.752 291.889 67.076 292.265 67.316C292.649 67.548 293.093 67.664 293.597 67.664C293.957 67.664 294.229 67.632 294.413 67.568C294.605 67.496 294.769 67.42 294.905 67.34C295.073 67.244 295.189 67.152 295.253 67.064C295.317 66.976 295.393 66.932 295.481 66.932C295.545 66.932 295.593 66.952 295.625 66.992C295.665 67.032 295.685 67.084 295.685 67.148C295.685 67.244 295.597 67.372 295.421 67.532C295.245 67.684 294.997 67.82 294.677 67.94C294.365 68.06 293.993 68.12 293.561 68.12C292.977 68.12 292.461 67.984 292.013 67.712C291.565 67.432 291.213 67.056 290.957 66.584C290.709 66.104 290.585 65.564 290.585 64.964C290.585 64.404 290.709 63.888 290.957 63.416C291.213 62.936 291.565 62.552 292.013 62.264C292.469 61.968 293.001 61.82 293.609 61.82Z" fill="#808080"/>
</g>
<path d="M310.5 56.5H411.5" stroke="#E5E5E5"/>
<path d="M-98.5 136.5L23.5 136.5" stroke="#6FCA8F"/>
<g filter="url(#filter1_d_1567_58510)">
<path d="M29.5 125C29.5 120.582 33.0817 117 37.5 117H226.5C230.918 117 234.5 120.582 234.5 125V148C234.5 152.418 230.918 156 226.5 156H37.5C33.0817 156 29.5 152.418 29.5 148V125Z" fill="white"/>
<path d="M37.5 117.5H226.5C230.642 117.5 234 120.858 234 125V148C234 152.142 230.642 155.5 226.5 155.5H37.5C33.3579 155.5 30 152.142 30 148V125C30 120.858 33.3579 117.5 37.5 117.5Z" stroke="#E5E5E5"/>
<path d="M62.7152 128.489C62.7045 128.306 62.6268 128.132 62.4968 128.002C62.3669 127.872 62.1937 127.795 62.0102 127.784C57.1577 127.503 53.2615 128.978 51.5871 131.742C50.4808 133.569 50.4827 135.788 51.5721 137.905C50.9519 138.643 50.4988 139.507 50.2437 140.437L48.7183 138.906C49.4515 137.375 49.4233 135.779 48.6246 134.453C47.3871 132.411 44.5305 131.316 40.984 131.524C40.8005 131.534 40.6273 131.612 40.4974 131.742C40.3674 131.872 40.2897 132.045 40.279 132.229C40.0699 135.775 41.1658 138.632 43.2087 139.869C43.8827 140.281 44.6574 140.499 45.4474 140.499C46.2142 140.49 46.969 140.308 47.6562 139.968L49.9999 142.312V144.999C49.9999 145.198 50.0789 145.389 50.2196 145.53C50.3602 145.67 50.551 145.749 50.7499 145.749C50.9488 145.749 51.1396 145.67 51.2802 145.53C51.4209 145.389 51.4999 145.198 51.4999 144.999V142.235C51.4965 141.041 51.9025 139.883 52.6502 138.953C53.6148 139.458 54.6847 139.727 55.773 139.741C56.8253 139.744 57.858 139.457 58.7571 138.91C61.5208 137.238 63.0002 133.342 62.7152 128.489ZM43.9821 138.587C42.544 137.716 41.7302 135.654 41.7499 132.999C44.4049 132.977 46.4665 133.793 47.3374 135.232C47.7921 135.982 47.8662 136.856 47.568 137.757L45.2796 135.469C45.1378 135.334 44.949 135.26 44.7534 135.262C44.5578 135.265 44.371 135.344 44.2327 135.482C44.0944 135.62 44.0156 135.807 44.0131 136.003C44.0106 136.198 44.0846 136.387 44.2193 136.529L46.5077 138.817C45.6068 139.116 44.733 139.042 43.9821 138.587ZM57.9799 137.629C56.7237 138.389 55.2471 138.447 53.7471 137.816L58.7805 132.782C58.9152 132.64 58.9892 132.451 58.9867 132.256C58.9842 132.06 58.9054 131.873 58.7671 131.735C58.6288 131.597 58.442 131.518 58.2464 131.515C58.0508 131.513 57.862 131.587 57.7202 131.722L52.6858 136.749C52.0521 135.249 52.1093 133.772 52.8733 132.517C54.1802 130.36 57.2796 129.158 61.248 129.251C61.338 133.219 60.138 136.322 57.9799 137.629Z" fill="#53AF70"/>
<path d="M78.972 132.536C79.1533 132.632 79.2547 132.776 79.276 132.968C79.308 133.16 79.26 133.336 79.132 133.496C79.036 133.635 78.9133 133.709 78.764 133.72C78.6147 133.731 78.4653 133.699 78.316 133.624C77.964 133.411 77.5853 133.245 77.18 133.128C76.7747 133 76.348 132.936 75.9 132.936C75.2707 132.936 74.6947 133.048 74.172 133.272C73.6493 133.485 73.196 133.789 72.812 134.184C72.428 134.579 72.1293 135.048 71.916 135.592C71.7027 136.136 71.596 136.739 71.596 137.4C71.596 138.104 71.708 138.733 71.932 139.288C72.156 139.843 72.46 140.317 72.844 140.712C73.2387 141.096 73.692 141.389 74.204 141.592C74.7267 141.795 75.292 141.896 75.9 141.896C76.3373 141.896 76.7587 141.837 77.164 141.72C77.5693 141.603 77.9533 141.432 78.316 141.208C78.4653 141.133 78.6147 141.107 78.764 141.128C78.9133 141.149 79.0413 141.224 79.148 141.352C79.276 141.523 79.324 141.704 79.292 141.896C79.26 142.077 79.1587 142.211 78.988 142.296C78.7213 142.456 78.4173 142.605 78.076 142.744C77.7347 142.872 77.3773 142.973 77.004 143.048C76.6413 143.123 76.2733 143.16 75.9 143.16C75.132 143.16 74.4067 143.027 73.724 142.76C73.0413 142.493 72.4387 142.109 71.916 141.608C71.3933 141.107 70.9773 140.504 70.668 139.8C70.3693 139.085 70.22 138.285 70.22 137.4C70.22 136.568 70.364 135.805 70.652 135.112C70.94 134.419 71.34 133.816 71.852 133.304C72.3747 132.792 72.9773 132.392 73.66 132.104C74.3533 131.816 75.1 131.672 75.9 131.672C76.4547 131.672 76.9933 131.747 77.516 131.896C78.0493 132.045 78.5347 132.259 78.972 132.536ZM82.4045 142.344C82.4045 142.525 82.3405 142.68 82.2125 142.808C82.0845 142.936 81.9298 143 81.7485 143C81.5672 143 81.4178 142.936 81.3005 142.808C81.1832 142.68 81.1245 142.525 81.1245 142.344V131.8C81.1245 131.619 81.1832 131.469 81.3005 131.352C81.4285 131.224 81.5832 131.16 81.7645 131.16C81.9565 131.16 82.1112 131.224 82.2285 131.352C82.3458 131.469 82.4045 131.619 82.4045 131.8V142.344ZM91.7031 134.648C91.8845 134.648 92.0338 134.712 92.1511 134.84C92.2791 134.957 92.3431 135.107 92.3431 135.288V142.344C92.3431 142.525 92.2791 142.68 92.1511 142.808C92.0338 142.936 91.8845 143 91.7031 143C91.5111 143 91.3565 142.936 91.2391 142.808C91.1218 142.68 91.0631 142.525 91.0631 142.344V140.824L91.3671 140.792C91.3671 141.027 91.2871 141.283 91.1271 141.56C90.9671 141.837 90.7485 142.099 90.4711 142.344C90.1938 142.579 89.8631 142.776 89.4791 142.936C89.1058 143.085 88.7005 143.16 88.2631 143.16C87.5378 143.16 86.8871 142.973 86.3111 142.6C85.7351 142.216 85.2765 141.699 84.9351 141.048C84.6045 140.397 84.4391 139.656 84.4391 138.824C84.4391 137.981 84.6045 137.24 84.9351 136.6C85.2765 135.949 85.7351 135.443 86.3111 135.08C86.8871 134.707 87.5271 134.52 88.2311 134.52C88.6898 134.52 89.1165 134.595 89.5111 134.744C89.9058 134.893 90.2471 135.096 90.5351 135.352C90.8338 135.608 91.0631 135.891 91.2231 136.2C91.3938 136.509 91.4791 136.819 91.4791 137.128L91.0631 137.032V135.288C91.0631 135.107 91.1218 134.957 91.2391 134.84C91.3565 134.712 91.5111 134.648 91.7031 134.648ZM88.4071 141.976C88.9405 141.976 89.4098 141.837 89.8151 141.56C90.2311 141.283 90.5511 140.909 90.7751 140.44C91.0098 139.96 91.1271 139.421 91.1271 138.824C91.1271 138.237 91.0098 137.709 90.7751 137.24C90.5511 136.76 90.2311 136.387 89.8151 136.12C89.4098 135.843 88.9405 135.704 88.4071 135.704C87.8845 135.704 87.4151 135.837 86.9991 136.104C86.5938 136.371 86.2738 136.739 86.0391 137.208C85.8045 137.677 85.6871 138.216 85.6871 138.824C85.6871 139.421 85.7991 139.96 86.0231 140.44C86.2578 140.909 86.5778 141.283 86.9831 141.56C87.3991 141.837 87.8738 141.976 88.4071 141.976ZM95.9473 142.344C95.9473 142.525 95.8833 142.68 95.7553 142.808C95.6379 142.936 95.4886 143 95.3073 143C95.1153 143 94.9606 142.936 94.8433 142.808C94.7259 142.68 94.6673 142.525 94.6673 142.344V135.24C94.6673 135.059 94.7259 134.909 94.8433 134.792C94.9713 134.664 95.1259 134.6 95.3073 134.6C95.4886 134.6 95.6379 134.664 95.7553 134.792C95.8833 134.909 95.9473 135.059 95.9473 135.24V142.344ZM95.3073 133.528C95.0406 133.528 94.8433 133.475 94.7153 133.368C94.5873 133.261 94.5233 133.096 94.5233 132.872V132.648C94.5233 132.424 94.5926 132.259 94.7313 132.152C94.8699 132.045 95.0673 131.992 95.3233 131.992C95.5793 131.992 95.7713 132.045 95.8993 132.152C96.0273 132.259 96.0913 132.424 96.0913 132.648V132.872C96.0913 133.096 96.0219 133.261 95.8832 133.368C95.7553 133.475 95.5633 133.528 95.3073 133.528ZM102.199 134.6C102.924 134.6 103.511 134.787 103.959 135.16C104.417 135.523 104.721 136.04 104.871 136.712H104.631L104.743 136.424C104.871 136.125 105.089 135.837 105.399 135.56C105.708 135.283 106.065 135.053 106.47 134.872C106.876 134.691 107.297 134.6 107.735 134.6C108.439 134.6 108.993 134.755 109.399 135.064C109.804 135.363 110.092 135.768 110.263 136.28C110.444 136.781 110.535 137.347 110.535 137.976V142.344C110.535 142.525 110.471 142.68 110.343 142.808C110.225 142.936 110.076 143 109.895 143C109.703 143 109.548 142.936 109.431 142.808C109.313 142.68 109.255 142.525 109.255 142.344V138.008C109.255 137.592 109.191 137.219 109.063 136.888C108.945 136.547 108.748 136.28 108.471 136.088C108.204 135.885 107.836 135.784 107.367 135.784C106.929 135.784 106.529 135.885 106.167 136.088C105.804 136.28 105.516 136.547 105.303 136.888C105.089 137.219 104.983 137.592 104.983 138.008V142.344C104.983 142.525 104.924 142.68 104.807 142.808C104.689 142.936 104.535 143 104.343 143C104.161 143 104.007 142.936 103.879 142.808C103.761 142.68 103.703 142.525 103.703 142.344V137.96C103.703 137.555 103.644 137.192 103.527 136.872C103.42 136.541 103.233 136.28 102.967 136.088C102.7 135.885 102.332 135.784 101.863 135.784C101.436 135.784 101.047 135.885 100.695 136.088C100.343 136.28 100.06 136.541 99.8465 136.872C99.6332 137.192 99.5265 137.555 99.5265 137.96V142.344C99.5265 142.525 99.4625 142.68 99.3345 142.808C99.2172 142.936 99.0678 143 98.8865 143C98.7052 143 98.5505 142.936 98.4225 142.808C98.3052 142.68 98.2465 142.525 98.2465 142.344V135.368C98.2465 135.187 98.3052 135.037 98.4225 134.92C98.5505 134.792 98.7052 134.728 98.8865 134.728C99.0785 134.728 99.2332 134.792 99.3505 134.92C99.4678 135.037 99.5265 135.187 99.5265 135.368V136.584L99.1745 136.968C99.2172 136.691 99.3238 136.413 99.4945 136.136C99.6758 135.859 99.9052 135.603 100.183 135.368C100.46 135.133 100.769 134.947 101.111 134.808C101.452 134.669 101.815 134.6 102.199 134.6ZM123.501 134.6C123.682 134.6 123.832 134.664 123.949 134.792C124.077 134.909 124.141 135.059 124.141 135.24V142.216C124.141 143.112 123.965 143.853 123.613 144.44C123.261 145.037 122.786 145.48 122.189 145.768C121.602 146.056 120.936 146.2 120.189 146.2C119.773 146.2 119.373 146.157 118.989 146.072C118.605 145.987 118.29 145.875 118.045 145.736C117.842 145.64 117.698 145.517 117.613 145.368C117.538 145.229 117.528 145.08 117.581 144.92C117.656 144.728 117.762 144.595 117.901 144.52C118.05 144.445 118.205 144.445 118.365 144.52C118.536 144.595 118.781 144.696 119.101 144.824C119.432 144.963 119.8 145.032 120.205 145.032C120.76 145.032 121.234 144.925 121.629 144.712C122.024 144.499 122.328 144.184 122.541 143.768C122.754 143.363 122.861 142.856 122.861 142.248V141.112L123.053 141.512C122.882 141.843 122.653 142.131 122.365 142.376C122.077 142.621 121.746 142.813 121.373 142.952C121 143.091 120.589 143.16 120.141 143.16C119.533 143.16 119.016 143.032 118.589 142.776C118.173 142.509 117.853 142.147 117.629 141.688C117.416 141.219 117.309 140.68 117.309 140.072V135.24C117.309 135.059 117.368 134.909 117.485 134.792C117.613 134.664 117.768 134.6 117.949 134.6C118.141 134.6 118.296 134.664 118.413 134.792C118.53 134.909 118.589 135.059 118.589 135.24V139.784C118.589 140.509 118.749 141.059 119.069 141.432C119.389 141.795 119.885 141.976 120.557 141.976C120.984 141.976 121.368 141.88 121.709 141.688C122.061 141.496 122.338 141.235 122.541 140.904C122.754 140.563 122.861 140.189 122.861 139.784V135.24C122.861 135.059 122.92 134.909 123.037 134.792C123.154 134.664 123.309 134.6 123.501 134.6ZM127.744 142.344C127.744 142.525 127.68 142.68 127.552 142.808C127.435 142.936 127.285 143 127.104 143C126.912 143 126.757 142.936 126.64 142.808C126.523 142.68 126.464 142.525 126.464 142.344V135.24C126.464 135.059 126.523 134.909 126.64 134.792C126.768 134.664 126.923 134.6 127.104 134.6C127.285 134.6 127.435 134.664 127.552 134.792C127.68 134.909 127.744 135.059 127.744 135.24V142.344ZM127.104 133.528C126.837 133.528 126.64 133.475 126.512 133.368C126.384 133.261 126.32 133.096 126.32 132.872V132.648C126.32 132.424 126.389 132.259 126.528 132.152C126.667 132.045 126.864 131.992 127.12 131.992C127.376 131.992 127.568 132.045 127.696 132.152C127.824 132.259 127.888 132.424 127.888 132.648V132.872C127.888 133.096 127.819 133.261 127.68 133.368C127.552 133.475 127.36 133.528 127.104 133.528ZM133.867 143.16C133.014 143.16 132.267 142.979 131.627 142.616C130.987 142.253 130.486 141.757 130.123 141.128C129.771 140.488 129.595 139.752 129.595 138.92C129.595 137.992 129.777 137.203 130.139 136.552C130.513 135.891 130.993 135.389 131.579 135.048C132.177 134.696 132.806 134.52 133.467 134.52C133.958 134.52 134.433 134.611 134.891 134.792C135.35 134.973 135.755 135.24 136.107 135.592C136.459 135.933 136.742 136.349 136.955 136.84C137.169 137.32 137.281 137.859 137.291 138.456C137.291 138.627 137.227 138.771 137.099 138.888C136.971 139.005 136.822 139.064 136.651 139.064H130.331L130.043 137.96H136.203L135.947 138.184V137.832C135.905 137.395 135.755 137.021 135.499 136.712C135.254 136.392 134.95 136.147 134.587 135.976C134.235 135.805 133.862 135.72 133.467 135.72C133.147 135.72 132.827 135.779 132.507 135.896C132.198 136.003 131.915 136.184 131.659 136.44C131.414 136.685 131.211 137.005 131.051 137.4C130.902 137.795 130.827 138.269 130.827 138.824C130.827 139.443 130.95 139.987 131.195 140.456C131.451 140.925 131.803 141.299 132.251 141.576C132.699 141.843 133.222 141.976 133.819 141.976C134.193 141.976 134.518 141.928 134.795 141.832C135.073 141.736 135.313 141.619 135.515 141.48C135.718 141.331 135.889 141.181 136.027 141.032C136.166 140.936 136.299 140.888 136.427 140.888C136.587 140.888 136.715 140.941 136.811 141.048C136.918 141.155 136.971 141.283 136.971 141.432C136.971 141.613 136.886 141.773 136.715 141.912C136.417 142.243 136.011 142.536 135.499 142.792C134.987 143.037 134.443 143.16 133.867 143.16ZM140.623 142.344C140.623 142.525 140.559 142.68 140.431 142.808C140.303 142.936 140.149 143 139.967 143C139.786 143 139.637 142.936 139.519 142.808C139.402 142.68 139.343 142.525 139.343 142.344V131.8C139.343 131.619 139.402 131.469 139.519 131.352C139.647 131.224 139.802 131.16 139.983 131.16C140.175 131.16 140.33 131.224 140.447 131.352C140.565 131.469 140.623 131.619 140.623 131.8V142.344ZM149.766 131.16C149.947 131.16 150.096 131.224 150.214 131.352C150.342 131.469 150.406 131.619 150.406 131.8V142.344C150.406 142.525 150.342 142.68 150.214 142.808C150.096 142.936 149.947 143 149.766 143C149.574 143 149.419 142.936 149.302 142.808C149.184 142.68 149.126 142.525 149.126 142.344V140.824L149.43 140.712C149.43 140.968 149.35 141.24 149.19 141.528C149.03 141.805 148.811 142.067 148.534 142.312C148.256 142.557 147.926 142.76 147.542 142.92C147.168 143.08 146.763 143.16 146.326 143.16C145.611 143.16 144.96 142.973 144.374 142.6C143.798 142.227 143.339 141.715 142.998 141.064C142.667 140.413 142.502 139.672 142.502 138.84C142.502 137.997 142.667 137.251 142.998 136.6C143.339 135.949 143.798 135.443 144.374 135.08C144.95 134.707 145.59 134.52 146.294 134.52C146.742 134.52 147.163 134.595 147.558 134.744C147.952 134.893 148.294 135.096 148.582 135.352C148.88 135.608 149.115 135.891 149.286 136.2C149.456 136.509 149.542 136.819 149.542 137.128L149.126 137.032V131.8C149.126 131.619 149.184 131.469 149.302 131.352C149.419 131.224 149.574 131.16 149.766 131.16ZM146.47 141.976C147.003 141.976 147.472 141.843 147.878 141.576C148.294 141.299 148.614 140.925 148.838 140.456C149.072 139.976 149.19 139.437 149.19 138.84C149.19 138.232 149.072 137.693 148.838 137.224C148.614 136.755 148.294 136.387 147.878 136.12C147.472 135.843 147.003 135.704 146.47 135.704C145.947 135.704 145.478 135.843 145.062 136.12C144.656 136.387 144.336 136.755 144.102 137.224C143.867 137.693 143.75 138.232 143.75 138.84C143.75 139.427 143.867 139.96 144.102 140.44C144.336 140.909 144.656 141.283 145.062 141.56C145.478 141.837 145.947 141.976 146.47 141.976Z" fill="#4D4D4D"/>
<path d="M183.248 147.52C183.312 147.52 183.368 147.544 183.416 147.592C183.464 147.64 183.488 147.696 183.488 147.76C183.488 147.832 183.464 147.892 183.416 147.94C183.368 147.98 183.312 148 183.248 148H178.616C178.544 148 178.476 147.984 178.412 147.952C178.348 147.912 178.316 147.844 178.316 147.748C178.316 147.7 178.336 147.648 178.376 147.592L181.196 144.448C181.692 143.912 182.056 143.432 182.288 143.008C182.528 142.576 182.648 142.188 182.648 141.844C182.648 141.276 182.472 140.82 182.12 140.476C181.768 140.132 181.296 139.96 180.704 139.96C180.424 139.96 180.148 140.016 179.876 140.128C179.604 140.24 179.364 140.388 179.156 140.572C178.956 140.756 178.808 140.96 178.712 141.184C178.68 141.256 178.644 141.308 178.604 141.34C178.572 141.364 178.524 141.376 178.46 141.376C178.396 141.376 178.34 141.36 178.292 141.328C178.244 141.288 178.22 141.24 178.22 141.184C178.22 141.152 178.224 141.124 178.232 141.1C178.24 141.068 178.256 141.024 178.28 140.968C178.408 140.704 178.6 140.46 178.856 140.236C179.12 140.012 179.416 139.832 179.744 139.696C180.08 139.552 180.412 139.48 180.74 139.48C181.236 139.48 181.664 139.576 182.024 139.768C182.392 139.96 182.676 140.228 182.876 140.572C183.076 140.916 183.176 141.324 183.176 141.796C183.176 142.204 183.048 142.648 182.792 143.128C182.536 143.608 182.136 144.144 181.592 144.736L179.012 147.664L178.904 147.52H183.248ZM186.87 147.988C186.526 147.988 186.19 147.932 185.862 147.82C185.534 147.708 185.234 147.54 184.962 147.316C184.93 147.292 184.906 147.264 184.89 147.232C184.874 147.2 184.866 147.168 184.866 147.136C184.866 147.08 184.89 147.02 184.938 146.956C184.986 146.892 185.042 146.86 185.106 146.86C185.17 146.86 185.226 146.884 185.274 146.932C185.506 147.124 185.758 147.268 186.03 147.364C186.31 147.46 186.59 147.508 186.87 147.508C187.374 147.508 187.814 147.412 188.19 147.22C188.566 147.02 188.854 146.74 189.054 146.38C189.262 146.02 189.366 145.604 189.366 145.132C189.366 144.692 189.27 144.308 189.078 143.98C188.894 143.644 188.622 143.384 188.262 143.2C187.91 143.008 187.486 142.912 186.99 142.912C186.686 142.912 186.406 142.96 186.15 143.056C185.894 143.144 185.678 143.236 185.502 143.332C185.326 143.42 185.194 143.464 185.106 143.464C185.066 143.464 185.026 143.452 184.986 143.428C184.954 143.404 184.93 143.372 184.914 143.332C184.898 143.284 184.894 143.232 184.902 143.176L185.466 139.876C185.474 139.836 185.498 139.792 185.538 139.744C185.586 139.696 185.65 139.672 185.73 139.672H189.39C189.454 139.672 189.51 139.696 189.558 139.744C189.606 139.792 189.63 139.852 189.63 139.924C189.63 139.996 189.606 140.056 189.558 140.104C189.51 140.152 189.454 140.176 189.39 140.176H185.826L185.934 140.068L185.382 143.056L185.142 142.996C185.27 142.916 185.434 142.836 185.634 142.756C185.842 142.668 186.074 142.596 186.33 142.54C186.594 142.476 186.874 142.444 187.17 142.444C187.682 142.444 188.138 142.556 188.538 142.78C188.938 143.004 189.254 143.316 189.486 143.716C189.726 144.108 189.846 144.568 189.846 145.096C189.846 145.672 189.722 146.176 189.474 146.608C189.234 147.04 188.89 147.38 188.442 147.628C188.002 147.868 187.478 147.988 186.87 147.988ZM190.952 141.964H193.736C193.8 141.964 193.852 141.988 193.892 142.036C193.94 142.084 193.964 142.136 193.964 142.192C193.964 142.256 193.94 142.312 193.892 142.36C193.852 142.4 193.8 142.42 193.736 142.42H190.952C190.896 142.42 190.844 142.396 190.796 142.348C190.748 142.3 190.724 142.248 190.724 142.192C190.724 142.128 190.748 142.076 190.796 142.036C190.844 141.988 190.896 141.964 190.952 141.964ZM192.176 140.2C192.248 140.2 192.304 140.224 192.344 140.272C192.392 140.32 192.416 140.376 192.416 140.44V146.692C192.416 146.956 192.448 147.152 192.512 147.28C192.584 147.4 192.672 147.48 192.776 147.52C192.88 147.552 192.98 147.568 193.076 147.568C193.132 147.568 193.18 147.56 193.22 147.544C193.26 147.528 193.308 147.52 193.364 147.52C193.42 147.52 193.468 147.544 193.508 147.592C193.548 147.632 193.568 147.68 193.568 147.736C193.568 147.808 193.52 147.872 193.424 147.928C193.336 147.976 193.224 148 193.088 148C193.04 148 192.952 148 192.824 148C192.704 147.992 192.572 147.956 192.428 147.892C192.292 147.82 192.176 147.696 192.08 147.52C191.984 147.336 191.936 147.068 191.936 146.716V140.44C191.936 140.376 191.96 140.32 192.008 140.272C192.056 140.224 192.112 140.2 192.176 140.2ZM197.917 141.94C198.397 141.94 198.793 142.044 199.105 142.252C199.425 142.46 199.661 142.74 199.813 143.092C199.973 143.444 200.053 143.832 200.053 144.256V147.76C200.053 147.824 200.029 147.88 199.981 147.928C199.933 147.976 199.877 148 199.813 148C199.741 148 199.681 147.976 199.633 147.928C199.593 147.88 199.573 147.824 199.573 147.76V144.256C199.573 143.912 199.517 143.6 199.405 143.32C199.293 143.04 199.117 142.816 198.877 142.648C198.637 142.48 198.317 142.396 197.917 142.396C197.573 142.396 197.237 142.48 196.909 142.648C196.581 142.816 196.309 143.04 196.093 143.32C195.885 143.6 195.781 143.912 195.781 144.256V147.76C195.781 147.824 195.757 147.88 195.709 147.928C195.661 147.976 195.605 148 195.541 148C195.469 148 195.409 147.976 195.361 147.928C195.321 147.88 195.301 147.824 195.301 147.76V139.36C195.301 139.296 195.325 139.24 195.373 139.192C195.421 139.144 195.477 139.12 195.541 139.12C195.613 139.12 195.669 139.144 195.709 139.192C195.757 139.24 195.781 139.296 195.781 139.36V143.548L195.481 144.124C195.481 143.836 195.553 143.56 195.697 143.296C195.841 143.032 196.029 142.8 196.261 142.6C196.501 142.392 196.765 142.232 197.053 142.12C197.341 142 197.629 141.94 197.917 141.94ZM208.837 139.6C209.437 139.6 209.957 139.716 210.397 139.948C210.837 140.172 211.197 140.484 211.477 140.884C211.765 141.276 211.977 141.724 212.113 142.228C212.249 142.732 212.317 143.256 212.317 143.8C212.317 144.568 212.193 145.272 211.945 145.912C211.705 146.544 211.329 147.052 210.817 147.436C210.305 147.812 209.645 148 208.837 148H205.717C205.653 148 205.597 147.976 205.549 147.928C205.501 147.88 205.477 147.824 205.477 147.76V139.84C205.477 139.776 205.501 139.72 205.549 139.672C205.597 139.624 205.653 139.6 205.717 139.6H208.837ZM208.717 147.52C209.453 147.52 210.045 147.356 210.493 147.028C210.949 146.692 211.281 146.244 211.489 145.684C211.705 145.116 211.813 144.488 211.813 143.8C211.813 143.312 211.753 142.844 211.633 142.396C211.521 141.948 211.341 141.552 211.093 141.208C210.845 140.856 210.525 140.58 210.133 140.38C209.741 140.18 209.269 140.08 208.717 140.08H205.909L205.981 139.984V147.628L205.909 147.52H208.717ZM216.704 148.12C216.104 148.12 215.572 147.992 215.108 147.736C214.652 147.48 214.292 147.12 214.028 146.656C213.764 146.184 213.632 145.632 213.632 145C213.632 144.328 213.76 143.756 214.016 143.284C214.28 142.812 214.616 142.452 215.024 142.204C215.44 141.948 215.88 141.82 216.344 141.82C216.68 141.82 217.008 141.876 217.328 141.988C217.648 142.092 217.932 142.26 218.18 142.492C218.436 142.716 218.64 143 218.792 143.344C218.952 143.68 219.04 144.084 219.056 144.556C219.056 144.62 219.032 144.68 218.984 144.736C218.936 144.784 218.88 144.808 218.816 144.808H213.92L213.848 144.352H218.684L218.564 144.46V144.244C218.524 143.82 218.388 143.464 218.156 143.176C217.932 142.888 217.66 142.672 217.34 142.528C217.02 142.376 216.688 142.3 216.344 142.3C216.104 142.3 215.852 142.356 215.588 142.468C215.324 142.572 215.08 142.736 214.856 142.96C214.632 143.176 214.448 143.452 214.304 143.788C214.168 144.124 214.1 144.516 214.1 144.964C214.1 145.452 214.196 145.9 214.388 146.308C214.588 146.716 214.88 147.044 215.264 147.292C215.656 147.54 216.136 147.664 216.704 147.664C216.976 147.664 217.232 147.62 217.472 147.532C217.712 147.436 217.928 147.312 218.12 147.16C218.312 147.008 218.468 146.844 218.588 146.668C218.652 146.596 218.72 146.56 218.792 146.56C218.848 146.56 218.896 146.584 218.936 146.632C218.976 146.672 218.996 146.72 218.996 146.776C218.996 146.832 218.98 146.88 218.948 146.92C218.7 147.24 218.38 147.52 217.988 147.76C217.604 148 217.176 148.12 216.704 148.12ZM223.324 141.82C223.684 141.82 224.02 141.86 224.332 141.94C224.652 142.02 224.908 142.128 225.1 142.264C225.3 142.392 225.4 142.528 225.4 142.672C225.4 142.728 225.376 142.784 225.328 142.84C225.288 142.888 225.236 142.912 225.172 142.912C225.084 142.912 225.012 142.888 224.956 142.84C224.908 142.792 224.856 142.736 224.8 142.672C224.744 142.6 224.656 142.536 224.536 142.48C224.424 142.424 224.264 142.376 224.056 142.336C223.856 142.296 223.608 142.276 223.312 142.276C222.848 142.276 222.424 142.396 222.04 142.636C221.656 142.876 221.348 143.2 221.116 143.608C220.892 144.008 220.78 144.46 220.78 144.964C220.78 145.476 220.884 145.936 221.092 146.344C221.308 146.752 221.604 147.076 221.98 147.316C222.364 147.548 222.808 147.664 223.312 147.664C223.672 147.664 223.944 147.632 224.128 147.568C224.32 147.496 224.484 147.42 224.62 147.34C224.788 147.244 224.904 147.152 224.968 147.064C225.032 146.976 225.108 146.932 225.196 146.932C225.26 146.932 225.308 146.952 225.34 146.992C225.38 147.032 225.4 147.084 225.4 147.148C225.4 147.244 225.312 147.372 225.136 147.532C224.96 147.684 224.712 147.82 224.392 147.94C224.08 148.06 223.708 148.12 223.276 148.12C222.692 148.12 222.176 147.984 221.728 147.712C221.28 147.432 220.928 147.056 220.672 146.584C220.424 146.104 220.3 145.564 220.3 144.964C220.3 144.404 220.424 143.888 220.672 143.416C220.928 142.936 221.28 142.552 221.728 142.264C222.184 141.968 222.716 141.82 223.324 141.82Z" fill="#808080"/>
</g>
<path d="M240.5 136.5L445.5 136.5" stroke="#6FCA8F"/>
<path d="M-92 216.5L89 216.5" stroke="#E8786B"/>
<g filter="url(#filter2_d_1567_58510)">
<path d="M95 205C95 200.582 98.5817 197 103 197H331C335.418 197 339 200.582 339 205V228C339 232.418 335.418 236 331 236H103C98.5817 236 95 232.418 95 228V205Z" fill="white"/>
<path d="M103 197.5H331C335.142 197.5 338.5 200.858 338.5 205V228C338.5 232.142 335.142 235.5 331 235.5H103C98.8579 235.5 95.5 232.142 95.5 228V205C95.5 200.858 98.8579 197.5 103 197.5Z" stroke="#E5E5E5"/>
<path d="M126.91 218.28C126.769 218.136 126.576 218.055 126.375 218.055C126.174 218.055 125.981 218.136 125.84 218.28L122.44 221.69V212.69C122.44 212.275 122.104 211.94 121.69 211.94C121.276 211.94 120.94 212.275 120.94 212.69V221.69L117.53 218.28C117.341 218.088 117.064 218.013 116.804 218.081C116.543 218.15 116.339 218.352 116.269 218.611C116.198 218.871 116.271 219.148 116.46 219.34L121.16 224C121.227 224.07 121.309 224.124 121.4 224.16C121.491 224.199 121.59 224.22 121.69 224.22C121.787 224.22 121.882 224.2 121.97 224.16C122.064 224.124 122.149 224.07 122.22 224L126.91 219.31C127.183 219.021 127.183 218.569 126.91 218.28Z" fill="#DE5242"/>
<path d="M116.47 213.72C116.766 214.013 117.244 214.013 117.54 213.72C117.832 213.427 117.832 212.952 117.54 212.66L112.84 208C112.773 207.929 112.691 207.875 112.6 207.84C112.416 207.77 112.214 207.77 112.03 207.84C111.938 207.877 111.853 207.931 111.78 208L107.09 212.66C106.798 212.952 106.798 213.427 107.09 213.72C107.229 213.863 107.42 213.943 107.62 213.943C107.82 213.943 108.011 213.863 108.15 213.72L111.56 210.31V219.31C111.56 219.578 111.703 219.825 111.935 219.959C112.167 220.093 112.453 220.093 112.685 219.959C112.917 219.825 113.06 219.578 113.06 219.31V210.31L116.47 213.72Z" fill="#DE5242"/>
<path d="M141.224 211.8C142.163 211.8 142.883 212.045 143.384 212.536C143.896 213.016 144.152 213.699 144.152 214.584C144.152 215.053 144.045 215.485 143.832 215.88C143.619 216.275 143.304 216.589 142.888 216.824C142.483 217.059 141.981 217.187 141.384 217.208L141.352 216.76C141.725 216.76 142.109 216.813 142.504 216.92C142.899 217.027 143.261 217.197 143.592 217.432C143.933 217.667 144.205 217.976 144.408 218.36C144.621 218.744 144.728 219.219 144.728 219.784C144.728 220.392 144.627 220.904 144.424 221.32C144.221 221.725 143.949 222.056 143.608 222.312C143.277 222.557 142.904 222.733 142.488 222.84C142.083 222.947 141.672 223 141.256 223H137.048C136.867 223 136.712 222.936 136.584 222.808C136.467 222.68 136.408 222.525 136.408 222.344V212.44C136.408 212.259 136.467 212.109 136.584 211.992C136.712 211.864 136.867 211.8 137.048 211.8H141.224ZM141.032 213.064H137.592L137.784 212.776V216.76L137.608 216.552H141.064C141.533 216.552 141.933 216.403 142.264 216.104C142.605 215.795 142.776 215.341 142.776 214.744C142.776 214.211 142.621 213.8 142.312 213.512C142.003 213.213 141.576 213.064 141.032 213.064ZM141.16 217.832H137.672L137.784 217.72V221.896L137.656 221.752H141.208C141.837 221.752 142.349 221.592 142.744 221.272C143.149 220.952 143.352 220.456 143.352 219.784C143.352 219.261 143.245 218.861 143.032 218.584C142.819 218.296 142.541 218.099 142.2 217.992C141.869 217.885 141.523 217.832 141.16 217.832ZM147.277 223C147.096 223 146.941 222.936 146.813 222.808C146.696 222.68 146.637 222.525 146.637 222.344V215.368C146.637 215.187 146.696 215.037 146.813 214.92C146.941 214.792 147.096 214.728 147.277 214.728C147.469 214.728 147.624 214.792 147.741 214.92C147.858 215.037 147.917 215.187 147.917 215.368V217.48L147.725 217.144C147.789 216.813 147.901 216.493 148.061 216.184C148.232 215.864 148.445 215.581 148.701 215.336C148.957 215.08 149.25 214.883 149.581 214.744C149.912 214.595 150.274 214.52 150.669 214.52C150.904 214.52 151.117 214.579 151.309 214.696C151.512 214.803 151.613 214.957 151.613 215.16C151.613 215.384 151.554 215.549 151.437 215.656C151.32 215.763 151.186 215.816 151.037 215.816C150.898 215.816 150.765 215.789 150.637 215.736C150.509 215.672 150.349 215.64 150.157 215.64C149.89 215.64 149.624 215.715 149.357 215.864C149.101 216.003 148.861 216.205 148.637 216.472C148.424 216.739 148.248 217.043 148.109 217.384C147.981 217.715 147.917 218.072 147.917 218.456V222.344C147.917 222.525 147.853 222.68 147.725 222.808C147.608 222.936 147.458 223 147.277 223ZM154.291 222.344C154.291 222.525 154.227 222.68 154.099 222.808C153.982 222.936 153.832 223 153.651 223C153.459 223 153.304 222.936 153.187 222.808C153.07 222.68 153.011 222.525 153.011 222.344V215.24C153.011 215.059 153.07 214.909 153.187 214.792C153.315 214.664 153.47 214.6 153.651 214.6C153.832 214.6 153.982 214.664 154.099 214.792C154.227 214.909 154.291 215.059 154.291 215.24V222.344ZM153.651 213.528C153.384 213.528 153.187 213.475 153.059 213.368C152.931 213.261 152.867 213.096 152.867 212.872V212.648C152.867 212.424 152.936 212.259 153.075 212.152C153.214 212.045 153.411 211.992 153.667 211.992C153.923 211.992 154.115 212.045 154.243 212.152C154.371 212.259 154.435 212.424 154.435 212.648V212.872C154.435 213.096 154.366 213.261 154.227 213.368C154.099 213.475 153.907 213.528 153.651 213.528ZM163.406 211.16C163.588 211.16 163.737 211.224 163.854 211.352C163.982 211.469 164.046 211.619 164.046 211.8V222.344C164.046 222.525 163.982 222.68 163.854 222.808C163.737 222.936 163.588 223 163.406 223C163.214 223 163.06 222.936 162.942 222.808C162.825 222.68 162.766 222.525 162.766 222.344V220.824L163.07 220.712C163.07 220.968 162.99 221.24 162.83 221.528C162.67 221.805 162.452 222.067 162.174 222.312C161.897 222.557 161.566 222.76 161.182 222.92C160.809 223.08 160.404 223.16 159.966 223.16C159.252 223.16 158.601 222.973 158.014 222.6C157.438 222.227 156.98 221.715 156.638 221.064C156.308 220.413 156.142 219.672 156.142 218.84C156.142 217.997 156.308 217.251 156.638 216.6C156.98 215.949 157.438 215.443 158.014 215.08C158.59 214.707 159.23 214.52 159.934 214.52C160.382 214.52 160.804 214.595 161.198 214.744C161.593 214.893 161.934 215.096 162.222 215.352C162.521 215.608 162.756 215.891 162.926 216.2C163.097 216.509 163.182 216.819 163.182 217.128L162.766 217.032V211.8C162.766 211.619 162.825 211.469 162.942 211.352C163.06 211.224 163.214 211.16 163.406 211.16ZM160.11 221.976C160.644 221.976 161.113 221.843 161.518 221.576C161.934 221.299 162.254 220.925 162.478 220.456C162.713 219.976 162.83 219.437 162.83 218.84C162.83 218.232 162.713 217.693 162.478 217.224C162.254 216.755 161.934 216.387 161.518 216.12C161.113 215.843 160.644 215.704 160.11 215.704C159.588 215.704 159.118 215.843 158.702 216.12C158.297 216.387 157.977 216.755 157.742 217.224C157.508 217.693 157.39 218.232 157.39 218.84C157.39 219.427 157.508 219.96 157.742 220.44C157.977 220.909 158.297 221.283 158.702 221.56C159.118 221.837 159.588 221.976 160.11 221.976ZM169.89 214.52C170.349 214.52 170.776 214.6 171.17 214.76C171.565 214.909 171.906 215.107 172.194 215.352C172.493 215.597 172.722 215.853 172.882 216.12C173.053 216.387 173.138 216.637 173.138 216.872L172.834 216.68V215.288C172.834 215.107 172.893 214.957 173.01 214.84C173.128 214.712 173.282 214.648 173.474 214.648C173.656 214.648 173.805 214.712 173.922 214.84C174.05 214.957 174.114 215.107 174.114 215.288V222.296C174.114 223.171 173.928 223.896 173.554 224.472C173.192 225.048 172.701 225.48 172.082 225.768C171.464 226.056 170.77 226.2 170.002 226.2C169.682 226.2 169.33 226.157 168.946 226.072C168.562 225.987 168.221 225.88 167.922 225.752C167.624 225.635 167.432 225.512 167.346 225.384C167.186 225.277 167.085 225.155 167.042 225.016C167.01 224.888 167.037 224.765 167.122 224.648C167.218 224.499 167.341 224.424 167.49 224.424C167.65 224.424 167.848 224.472 168.082 224.568C168.178 224.6 168.328 224.653 168.53 224.728C168.744 224.803 168.978 224.867 169.234 224.92C169.501 224.984 169.762 225.016 170.018 225.016C170.925 225.016 171.618 224.776 172.098 224.296C172.589 223.827 172.834 223.203 172.834 222.424V220.936L173.01 221.016C172.946 221.315 172.813 221.592 172.61 221.848C172.418 222.104 172.178 222.333 171.89 222.536C171.613 222.728 171.304 222.883 170.962 223C170.621 223.107 170.274 223.16 169.922 223.16C169.176 223.16 168.504 222.973 167.906 222.6C167.309 222.227 166.834 221.715 166.482 221.064C166.141 220.413 165.97 219.672 165.97 218.84C165.97 217.997 166.141 217.251 166.482 216.6C166.834 215.949 167.304 215.443 167.89 215.08C168.488 214.707 169.154 214.52 169.89 214.52ZM170.05 215.704C169.506 215.704 169.016 215.843 168.578 216.12C168.152 216.387 167.816 216.755 167.57 217.224C167.336 217.693 167.218 218.232 167.218 218.84C167.218 219.427 167.336 219.96 167.57 220.44C167.816 220.909 168.152 221.283 168.578 221.56C169.016 221.837 169.506 221.976 170.05 221.976C170.605 221.976 171.096 221.843 171.522 221.576C171.949 221.299 172.285 220.925 172.53 220.456C172.776 219.987 172.898 219.448 172.898 218.84C172.898 218.221 172.776 217.677 172.53 217.208C172.285 216.739 171.949 216.371 171.522 216.104C171.096 215.837 170.605 215.704 170.05 215.704ZM179.992 223.16C179.139 223.16 178.392 222.979 177.752 222.616C177.112 222.253 176.611 221.757 176.248 221.128C175.896 220.488 175.72 219.752 175.72 218.92C175.72 217.992 175.902 217.203 176.264 216.552C176.638 215.891 177.118 215.389 177.704 215.048C178.302 214.696 178.931 214.52 179.592 214.52C180.083 214.52 180.558 214.611 181.016 214.792C181.475 214.973 181.88 215.24 182.232 215.592C182.584 215.933 182.867 216.349 183.08 216.84C183.294 217.32 183.406 217.859 183.416 218.456C183.416 218.627 183.352 218.771 183.224 218.888C183.096 219.005 182.947 219.064 182.776 219.064H176.456L176.168 217.96H182.328L182.072 218.184V217.832C182.03 217.395 181.88 217.021 181.624 216.712C181.379 216.392 181.075 216.147 180.712 215.976C180.36 215.805 179.987 215.72 179.592 215.72C179.272 215.72 178.952 215.779 178.632 215.896C178.323 216.003 178.04 216.184 177.784 216.44C177.539 216.685 177.336 217.005 177.176 217.4C177.027 217.795 176.952 218.269 176.952 218.824C176.952 219.443 177.075 219.987 177.32 220.456C177.576 220.925 177.928 221.299 178.376 221.576C178.824 221.843 179.347 221.976 179.944 221.976C180.318 221.976 180.643 221.928 180.92 221.832C181.198 221.736 181.438 221.619 181.64 221.48C181.843 221.331 182.014 221.181 182.152 221.032C182.291 220.936 182.424 220.888 182.552 220.888C182.712 220.888 182.84 220.941 182.936 221.048C183.043 221.155 183.096 221.283 183.096 221.432C183.096 221.613 183.011 221.773 182.84 221.912C182.542 222.243 182.136 222.536 181.624 222.792C181.112 223.037 180.568 223.16 179.992 223.16ZM197.602 218.84C197.602 219.672 197.416 220.413 197.043 221.064C196.68 221.715 196.184 222.227 195.555 222.6C194.936 222.973 194.237 223.16 193.459 223.16C192.68 223.16 191.976 222.973 191.347 222.6C190.717 222.227 190.216 221.715 189.843 221.064C189.48 220.413 189.299 219.672 189.299 218.84C189.299 218.008 189.48 217.267 189.843 216.616C190.216 215.965 190.717 215.453 191.347 215.08C191.976 214.707 192.68 214.52 193.459 214.52C194.237 214.52 194.936 214.707 195.555 215.08C196.184 215.453 196.68 215.965 197.043 216.616C197.416 217.267 197.602 218.008 197.602 218.84ZM196.323 218.84C196.323 218.221 196.195 217.677 195.939 217.208C195.693 216.739 195.352 216.371 194.915 216.104C194.488 215.837 194.003 215.704 193.459 215.704C192.915 215.704 192.424 215.837 191.987 216.104C191.56 216.371 191.219 216.739 190.963 217.208C190.707 217.677 190.579 218.221 190.579 218.84C190.579 219.448 190.707 219.987 190.963 220.456C191.219 220.925 191.56 221.299 191.987 221.576C192.424 221.843 192.915 221.976 193.459 221.976C194.003 221.976 194.488 221.843 194.915 221.576C195.352 221.299 195.693 220.925 195.939 220.456C196.195 219.987 196.323 219.448 196.323 218.84ZM203.64 214.52C204.365 214.52 204.936 214.669 205.352 214.968C205.768 215.267 206.061 215.667 206.232 216.168C206.413 216.669 206.504 217.229 206.504 217.848V222.344C206.504 222.525 206.44 222.68 206.312 222.808C206.194 222.936 206.045 223 205.864 223C205.682 223 205.528 222.936 205.4 222.808C205.282 222.68 205.224 222.525 205.224 222.344V217.88C205.224 217.475 205.16 217.112 205.032 216.792C204.914 216.461 204.712 216.2 204.424 216.008C204.146 215.805 203.762 215.704 203.272 215.704C202.824 215.704 202.413 215.805 202.04 216.008C201.666 216.2 201.368 216.461 201.144 216.792C200.92 217.112 200.808 217.475 200.808 217.88V222.344C200.808 222.525 200.744 222.68 200.616 222.808C200.498 222.936 200.349 223 200.168 223C199.986 223 199.832 222.936 199.704 222.808C199.586 222.68 199.528 222.525 199.528 222.344V215.368C199.528 215.187 199.586 215.037 199.704 214.92C199.832 214.792 199.986 214.728 200.168 214.728C200.36 214.728 200.514 214.792 200.632 214.92C200.749 215.037 200.808 215.187 200.808 215.368V216.504L200.488 216.856C200.541 216.579 200.664 216.301 200.856 216.024C201.048 215.736 201.288 215.48 201.576 215.256C201.864 215.032 202.184 214.856 202.536 214.728C202.888 214.589 203.256 214.52 203.64 214.52ZM216.766 223.16C215.976 223.16 215.283 223.043 214.686 222.808C214.088 222.573 213.512 222.2 212.958 221.688C212.883 221.613 212.819 221.533 212.766 221.448C212.723 221.352 212.702 221.251 212.702 221.144C212.702 220.973 212.76 220.824 212.878 220.696C213.006 220.557 213.16 220.488 213.342 220.488C213.491 220.488 213.624 220.547 213.742 220.664C214.158 221.069 214.606 221.379 215.086 221.592C215.576 221.805 216.126 221.912 216.734 221.912C217.203 221.912 217.624 221.837 217.998 221.688C218.382 221.539 218.686 221.331 218.91 221.064C219.134 220.797 219.246 220.488 219.246 220.136C219.235 219.709 219.107 219.357 218.862 219.08C218.627 218.803 218.296 218.573 217.87 218.392C217.454 218.2 216.968 218.04 216.414 217.912C215.923 217.795 215.47 217.651 215.054 217.48C214.648 217.309 214.296 217.101 213.998 216.856C213.699 216.6 213.464 216.296 213.294 215.944C213.134 215.581 213.054 215.16 213.054 214.68C213.054 214.072 213.214 213.539 213.534 213.08C213.854 212.621 214.296 212.269 214.862 212.024C215.427 211.768 216.078 211.64 216.814 211.64C217.464 211.64 218.078 211.747 218.654 211.96C219.24 212.173 219.71 212.467 220.062 212.84C220.275 213.043 220.382 213.24 220.382 213.432C220.382 213.592 220.312 213.741 220.174 213.88C220.046 214.008 219.896 214.072 219.726 214.072C219.608 214.072 219.502 214.029 219.406 213.944C219.224 213.741 218.995 213.56 218.718 213.4C218.44 213.24 218.136 213.112 217.806 213.016C217.475 212.92 217.144 212.872 216.814 212.872C216.323 212.872 215.891 212.947 215.518 213.096C215.144 213.235 214.851 213.437 214.638 213.704C214.435 213.96 214.334 214.269 214.334 214.632C214.334 215.037 214.451 215.373 214.686 215.64C214.92 215.896 215.235 216.109 215.63 216.28C216.024 216.44 216.462 216.584 216.942 216.712C217.464 216.84 217.944 216.989 218.382 217.16C218.83 217.32 219.214 217.523 219.534 217.768C219.854 218.013 220.099 218.328 220.27 218.712C220.451 219.085 220.542 219.549 220.542 220.104C220.542 220.691 220.376 221.213 220.046 221.672C219.715 222.131 219.262 222.493 218.686 222.76C218.12 223.016 217.48 223.149 216.766 223.16ZM228.657 214.728C228.849 214.728 229.004 214.792 229.121 214.92C229.239 215.037 229.297 215.187 229.297 215.368V219.736C229.297 220.813 228.993 221.651 228.385 222.248C227.788 222.835 226.951 223.128 225.873 223.128C224.807 223.128 223.969 222.835 223.361 222.248C222.764 221.651 222.465 220.813 222.465 219.736V215.368C222.465 215.187 222.524 215.037 222.641 214.92C222.769 214.792 222.924 214.728 223.105 214.728C223.297 214.728 223.452 214.792 223.569 214.92C223.687 215.037 223.745 215.187 223.745 215.368V219.736C223.745 220.461 223.932 221.011 224.305 221.384C224.679 221.757 225.201 221.944 225.873 221.944C226.567 221.944 227.095 221.757 227.457 221.384C227.831 221.011 228.017 220.461 228.017 219.736V215.368C228.017 215.187 228.076 215.037 228.193 214.92C228.321 214.792 228.476 214.728 228.657 214.728ZM232.9 222.344C232.9 222.525 232.836 222.68 232.708 222.808C232.591 222.936 232.442 223 232.26 223C232.068 223 231.914 222.936 231.796 222.808C231.679 222.68 231.62 222.525 231.62 222.344V215.24C231.62 215.059 231.679 214.909 231.796 214.792C231.924 214.664 232.079 214.6 232.26 214.6C232.442 214.6 232.591 214.664 232.708 214.792C232.836 214.909 232.9 215.059 232.9 215.24V222.344ZM232.26 213.528C231.994 213.528 231.796 213.475 231.668 213.368C231.54 213.261 231.476 213.096 231.476 212.872V212.648C231.476 212.424 231.546 212.259 231.684 212.152C231.823 212.045 232.02 211.992 232.276 211.992C232.532 211.992 232.724 212.045 232.852 212.152C232.98 212.259 233.044 212.424 233.044 212.648V212.872C233.044 213.096 232.975 213.261 232.836 213.368C232.708 213.475 232.516 213.528 232.26 213.528ZM234.736 221.688C234.64 221.549 234.597 221.405 234.608 221.256C234.618 221.096 234.709 220.957 234.88 220.84C234.986 220.765 235.109 220.733 235.248 220.744C235.397 220.755 235.53 220.824 235.648 220.952C235.946 221.304 236.288 221.587 236.672 221.8C237.056 222.003 237.525 222.104 238.08 222.104C238.336 222.093 238.592 222.051 238.848 221.976C239.104 221.901 239.317 221.773 239.488 221.592C239.669 221.4 239.76 221.149 239.76 220.84C239.76 220.541 239.669 220.307 239.488 220.136C239.306 219.955 239.072 219.811 238.784 219.704C238.496 219.587 238.181 219.485 237.84 219.4C237.488 219.304 237.141 219.197 236.8 219.08C236.458 218.952 236.149 218.797 235.872 218.616C235.605 218.424 235.386 218.189 235.216 217.912C235.056 217.624 234.976 217.277 234.976 216.872C234.976 216.392 235.104 215.976 235.36 215.624C235.626 215.272 235.978 215 236.416 214.808C236.864 214.616 237.349 214.52 237.872 214.52C238.17 214.52 238.48 214.557 238.8 214.632C239.13 214.696 239.45 214.813 239.76 214.984C240.069 215.144 240.341 215.368 240.576 215.656C240.672 215.763 240.725 215.896 240.736 216.056C240.746 216.216 240.677 216.36 240.528 216.488C240.41 216.573 240.277 216.611 240.128 216.6C239.989 216.589 239.872 216.536 239.776 216.44C239.552 216.173 239.269 215.971 238.928 215.832C238.597 215.683 238.229 215.608 237.824 215.608C237.568 215.608 237.317 215.645 237.072 215.72C236.826 215.795 236.618 215.923 236.448 216.104C236.288 216.275 236.208 216.515 236.208 216.824C236.218 217.112 236.314 217.347 236.496 217.528C236.677 217.709 236.922 217.859 237.232 217.976C237.541 218.083 237.882 218.189 238.256 218.296C238.597 218.381 238.922 218.483 239.232 218.6C239.552 218.707 239.84 218.851 240.096 219.032C240.352 219.213 240.554 219.448 240.704 219.736C240.853 220.013 240.928 220.365 240.928 220.792C240.928 221.283 240.789 221.709 240.512 222.072C240.234 222.424 239.866 222.696 239.408 222.888C238.96 223.069 238.474 223.16 237.952 223.16C237.365 223.16 236.784 223.048 236.208 222.824C235.642 222.6 235.152 222.221 234.736 221.688ZM252.538 214.584C252.708 214.584 252.852 214.643 252.97 214.76C253.098 214.877 253.162 215.032 253.162 215.224C253.162 215.267 253.156 215.315 253.146 215.368C253.146 215.411 253.135 215.453 253.114 215.496L250.65 222.584C250.596 222.723 250.506 222.829 250.378 222.904C250.26 222.979 250.132 223.011 249.994 223C249.748 222.989 249.562 222.851 249.434 222.584L247.418 217.528L247.738 217.576L245.914 222.584C245.796 222.851 245.61 222.989 245.354 223C245.215 223.011 245.082 222.979 244.954 222.904C244.826 222.829 244.74 222.723 244.698 222.584L242.186 215.496C242.154 215.4 242.138 215.309 242.138 215.224C242.138 215.053 242.196 214.904 242.314 214.776C242.431 214.648 242.591 214.584 242.794 214.584C242.922 214.584 243.039 214.616 243.146 214.68C243.252 214.744 243.327 214.845 243.37 214.984L245.53 221.288L245.194 221.272L247.066 216.472C247.172 216.205 247.37 216.072 247.658 216.072C247.807 216.072 247.924 216.109 248.01 216.184C248.106 216.248 248.175 216.344 248.218 216.472L250.17 221.272L249.77 221.304L251.93 214.984C252.026 214.717 252.228 214.584 252.538 214.584ZM261.766 214.648C261.947 214.648 262.096 214.712 262.214 214.84C262.342 214.957 262.406 215.107 262.406 215.288V222.344C262.406 222.525 262.342 222.68 262.214 222.808C262.096 222.936 261.947 223 261.766 223C261.574 223 261.419 222.936 261.302 222.808C261.184 222.68 261.126 222.525 261.126 222.344V220.824L261.43 220.792C261.43 221.027 261.35 221.283 261.19 221.56C261.03 221.837 260.811 222.099 260.534 222.344C260.256 222.579 259.926 222.776 259.542 222.936C259.168 223.085 258.763 223.16 258.326 223.16C257.6 223.16 256.95 222.973 256.374 222.6C255.798 222.216 255.339 221.699 254.998 221.048C254.667 220.397 254.502 219.656 254.502 218.824C254.502 217.981 254.667 217.24 254.998 216.6C255.339 215.949 255.798 215.443 256.374 215.08C256.95 214.707 257.59 214.52 258.294 214.52C258.752 214.52 259.179 214.595 259.574 214.744C259.968 214.893 260.31 215.096 260.598 215.352C260.896 215.608 261.126 215.891 261.286 216.2C261.456 216.509 261.542 216.819 261.542 217.128L261.126 217.032V215.288C261.126 215.107 261.184 214.957 261.302 214.84C261.419 214.712 261.574 214.648 261.766 214.648ZM258.47 221.976C259.003 221.976 259.472 221.837 259.878 221.56C260.294 221.283 260.614 220.909 260.838 220.44C261.072 219.96 261.19 219.421 261.19 218.824C261.19 218.237 261.072 217.709 260.838 217.24C260.614 216.76 260.294 216.387 259.878 216.12C259.472 215.843 259.003 215.704 258.47 215.704C257.947 215.704 257.478 215.837 257.062 216.104C256.656 216.371 256.336 216.739 256.102 217.208C255.867 217.677 255.75 218.216 255.75 218.824C255.75 219.421 255.862 219.96 256.086 220.44C256.32 220.909 256.64 221.283 257.046 221.56C257.462 221.837 257.936 221.976 258.47 221.976ZM268.858 214.6C269.583 214.6 270.234 214.781 270.81 215.144C271.386 215.507 271.839 216.008 272.17 216.648C272.511 217.288 272.682 218.024 272.682 218.856C272.682 219.677 272.511 220.413 272.17 221.064C271.839 221.704 271.386 222.211 270.81 222.584C270.244 222.947 269.604 223.128 268.89 223.128C268.495 223.128 268.122 223.069 267.77 222.952C267.428 222.824 267.114 222.664 266.826 222.472C266.548 222.269 266.314 222.045 266.122 221.8C265.93 221.544 265.791 221.293 265.706 221.048L266.058 220.824V225.544C266.058 225.725 265.999 225.88 265.882 226.008C265.764 226.136 265.61 226.2 265.418 226.2C265.236 226.2 265.082 226.136 264.954 226.008C264.836 225.891 264.778 225.736 264.778 225.544V215.32C264.778 215.139 264.836 214.989 264.954 214.872C265.082 214.744 265.236 214.68 265.418 214.68C265.61 214.68 265.764 214.744 265.882 214.872C265.999 214.989 266.058 215.139 266.058 215.32V216.744L265.818 216.616C265.892 216.349 266.02 216.093 266.202 215.848C266.394 215.603 266.623 215.389 266.89 215.208C267.167 215.016 267.471 214.867 267.802 214.76C268.143 214.653 268.495 214.6 268.858 214.6ZM268.714 215.784C268.18 215.784 267.706 215.917 267.29 216.184C266.884 216.451 266.564 216.813 266.33 217.272C266.106 217.731 265.994 218.259 265.994 218.856C265.994 219.443 266.106 219.971 266.33 220.44C266.564 220.909 266.884 221.277 267.29 221.544C267.706 221.811 268.18 221.944 268.714 221.944C269.247 221.944 269.716 221.811 270.122 221.544C270.527 221.277 270.847 220.909 271.082 220.44C271.316 219.971 271.434 219.443 271.434 218.856C271.434 218.259 271.316 217.731 271.082 217.272C270.847 216.813 270.527 216.451 270.122 216.184C269.716 215.917 269.247 215.784 268.714 215.784Z" fill="#4D4D4D"/>
<path d="M282.972 226.92C283.004 226.92 283.036 226.928 283.068 226.944C283.1 226.952 283.14 226.984 283.188 227.04C283.364 227.232 283.576 227.376 283.824 227.472C284.072 227.568 284.352 227.616 284.664 227.616C285.104 227.616 285.5 227.52 285.852 227.328C286.212 227.136 286.496 226.868 286.704 226.524C286.92 226.18 287.028 225.788 287.028 225.348C287.028 224.836 286.912 224.424 286.68 224.112C286.448 223.792 286.156 223.56 285.804 223.416C285.452 223.264 285.092 223.188 284.724 223.188C284.668 223.188 284.604 223.192 284.532 223.2C284.46 223.2 284.392 223.204 284.328 223.212C284.272 223.22 284.24 223.224 284.232 223.224C284.16 223.224 284.1 223.2 284.052 223.152C284.012 223.104 283.992 223.04 283.992 222.96C283.992 222.928 284 222.896 284.016 222.864C284.032 222.832 284.056 222.796 284.088 222.756L286.632 219.972L286.704 220.14H282.84C282.776 220.14 282.72 220.116 282.672 220.068C282.624 220.02 282.6 219.964 282.6 219.9C282.6 219.828 282.624 219.772 282.672 219.732C282.72 219.684 282.776 219.66 282.84 219.66H286.992C287.096 219.66 287.164 219.696 287.196 219.768C287.228 219.832 287.244 219.88 287.244 219.912C287.244 219.944 287.236 219.976 287.22 220.008C287.212 220.032 287.192 220.06 287.16 220.092L284.628 222.876L284.388 222.804C284.388 222.78 284.452 222.756 284.58 222.732C284.716 222.708 284.824 222.696 284.904 222.696C285.328 222.696 285.74 222.792 286.14 222.984C286.548 223.176 286.88 223.468 287.136 223.86C287.4 224.252 287.532 224.748 287.532 225.348C287.532 225.9 287.4 226.384 287.136 226.8C286.872 227.216 286.52 227.54 286.08 227.772C285.648 228.004 285.176 228.12 284.664 228.12C284.32 228.12 283.984 228.06 283.656 227.94C283.328 227.812 283.04 227.616 282.792 227.352C282.768 227.328 282.748 227.304 282.732 227.28C282.724 227.248 282.72 227.216 282.72 227.184C282.72 227.12 282.744 227.06 282.792 227.004C282.84 226.948 282.9 226.92 282.972 226.92ZM291.751 228.12C291.119 228.12 290.595 227.928 290.179 227.544C289.763 227.152 289.451 226.628 289.243 225.972C289.043 225.316 288.943 224.592 288.943 223.8C288.943 223 289.043 222.276 289.243 221.628C289.451 220.972 289.763 220.452 290.179 220.068C290.595 219.676 291.119 219.48 291.751 219.48C292.391 219.48 292.915 219.676 293.323 220.068C293.739 220.452 294.047 220.972 294.247 221.628C294.455 222.276 294.559 223 294.559 223.8C294.559 224.592 294.455 225.316 294.247 225.972C294.047 226.628 293.739 227.152 293.323 227.544C292.915 227.928 292.391 228.12 291.751 228.12ZM291.751 227.616C292.263 227.616 292.687 227.452 293.023 227.124C293.367 226.796 293.623 226.344 293.791 225.768C293.967 225.192 294.055 224.536 294.055 223.8C294.055 223.056 293.967 222.396 293.791 221.82C293.623 221.244 293.367 220.796 293.023 220.476C292.687 220.148 292.263 219.984 291.751 219.984C291.239 219.984 290.811 220.148 290.467 220.476C290.131 220.796 289.875 221.244 289.699 221.82C289.531 222.396 289.447 223.056 289.447 223.8C289.447 224.536 289.531 225.192 289.699 225.768C289.875 226.344 290.131 226.796 290.467 227.124C290.811 227.452 291.239 227.616 291.751 227.616ZM295.721 221.964H298.505C298.569 221.964 298.621 221.988 298.661 222.036C298.709 222.084 298.733 222.136 298.733 222.192C298.733 222.256 298.709 222.312 298.661 222.36C298.621 222.4 298.569 222.42 298.505 222.42H295.721C295.665 222.42 295.613 222.396 295.565 222.348C295.517 222.3 295.493 222.248 295.493 222.192C295.493 222.128 295.517 222.076 295.565 222.036C295.613 221.988 295.665 221.964 295.721 221.964ZM296.945 220.2C297.017 220.2 297.073 220.224 297.113 220.272C297.161 220.32 297.185 220.376 297.185 220.44V226.692C297.185 226.956 297.217 227.152 297.281 227.28C297.353 227.4 297.441 227.48 297.545 227.52C297.649 227.552 297.749 227.568 297.845 227.568C297.901 227.568 297.949 227.56 297.989 227.544C298.029 227.528 298.077 227.52 298.133 227.52C298.189 227.52 298.237 227.544 298.277 227.592C298.317 227.632 298.337 227.68 298.337 227.736C298.337 227.808 298.289 227.872 298.193 227.928C298.105 227.976 297.993 228 297.857 228C297.809 228 297.721 228 297.593 228C297.473 227.992 297.341 227.956 297.197 227.892C297.061 227.82 296.945 227.696 296.849 227.52C296.753 227.336 296.705 227.068 296.705 226.716V220.44C296.705 220.376 296.729 220.32 296.777 220.272C296.825 220.224 296.881 220.2 296.945 220.2ZM302.686 221.94C303.166 221.94 303.562 222.044 303.874 222.252C304.194 222.46 304.43 222.74 304.582 223.092C304.742 223.444 304.822 223.832 304.822 224.256V227.76C304.822 227.824 304.798 227.88 304.75 227.928C304.702 227.976 304.646 228 304.582 228C304.51 228 304.45 227.976 304.402 227.928C304.362 227.88 304.342 227.824 304.342 227.76V224.256C304.342 223.912 304.286 223.6 304.174 223.32C304.062 223.04 303.886 222.816 303.646 222.648C303.406 222.48 303.086 222.396 302.686 222.396C302.342 222.396 302.006 222.48 301.678 222.648C301.35 222.816 301.078 223.04 300.862 223.32C300.654 223.6 300.55 223.912 300.55 224.256V227.76C300.55 227.824 300.526 227.88 300.478 227.928C300.43 227.976 300.374 228 300.31 228C300.238 228 300.178 227.976 300.13 227.928C300.09 227.88 300.07 227.824 300.07 227.76V219.36C300.07 219.296 300.094 219.24 300.142 219.192C300.19 219.144 300.246 219.12 300.31 219.12C300.382 219.12 300.438 219.144 300.478 219.192C300.526 219.24 300.55 219.296 300.55 219.36V223.548L300.25 224.124C300.25 223.836 300.322 223.56 300.466 223.296C300.61 223.032 300.798 222.8 301.03 222.6C301.27 222.392 301.534 222.232 301.822 222.12C302.11 222 302.398 221.94 302.686 221.94ZM313.607 219.6C314.207 219.6 314.727 219.716 315.167 219.948C315.607 220.172 315.967 220.484 316.247 220.884C316.535 221.276 316.747 221.724 316.883 222.228C317.019 222.732 317.087 223.256 317.087 223.8C317.087 224.568 316.963 225.272 316.715 225.912C316.475 226.544 316.099 227.052 315.587 227.436C315.075 227.812 314.415 228 313.607 228H310.487C310.423 228 310.367 227.976 310.319 227.928C310.271 227.88 310.247 227.824 310.247 227.76V219.84C310.247 219.776 310.271 219.72 310.319 219.672C310.367 219.624 310.423 219.6 310.487 219.6H313.607ZM313.487 227.52C314.223 227.52 314.815 227.356 315.263 227.028C315.719 226.692 316.051 226.244 316.259 225.684C316.475 225.116 316.583 224.488 316.583 223.8C316.583 223.312 316.523 222.844 316.403 222.396C316.291 221.948 316.111 221.552 315.863 221.208C315.615 220.856 315.295 220.58 314.903 220.38C314.511 220.18 314.039 220.08 313.487 220.08H310.679L310.751 219.984V227.628L310.679 227.52H313.487ZM321.473 228.12C320.873 228.12 320.341 227.992 319.877 227.736C319.421 227.48 319.061 227.12 318.797 226.656C318.533 226.184 318.401 225.632 318.401 225C318.401 224.328 318.529 223.756 318.785 223.284C319.049 222.812 319.385 222.452 319.793 222.204C320.209 221.948 320.649 221.82 321.113 221.82C321.449 221.82 321.777 221.876 322.097 221.988C322.417 222.092 322.701 222.26 322.949 222.492C323.205 222.716 323.409 223 323.561 223.344C323.721 223.68 323.809 224.084 323.825 224.556C323.825 224.62 323.801 224.68 323.753 224.736C323.705 224.784 323.649 224.808 323.585 224.808H318.689L318.617 224.352H323.453L323.333 224.46V224.244C323.293 223.82 323.157 223.464 322.925 223.176C322.701 222.888 322.429 222.672 322.109 222.528C321.789 222.376 321.457 222.3 321.113 222.3C320.873 222.3 320.621 222.356 320.357 222.468C320.093 222.572 319.849 222.736 319.625 222.96C319.401 223.176 319.217 223.452 319.073 223.788C318.937 224.124 318.869 224.516 318.869 224.964C318.869 225.452 318.965 225.9 319.157 226.308C319.357 226.716 319.649 227.044 320.033 227.292C320.425 227.54 320.905 227.664 321.473 227.664C321.745 227.664 322.001 227.62 322.241 227.532C322.481 227.436 322.697 227.312 322.889 227.16C323.081 227.008 323.237 226.844 323.357 226.668C323.421 226.596 323.489 226.56 323.561 226.56C323.617 226.56 323.665 226.584 323.705 226.632C323.745 226.672 323.765 226.72 323.765 226.776C323.765 226.832 323.749 226.88 323.717 226.92C323.469 227.24 323.149 227.52 322.757 227.76C322.373 228 321.945 228.12 321.473 228.12ZM328.093 221.82C328.453 221.82 328.789 221.86 329.101 221.94C329.421 222.02 329.677 222.128 329.869 222.264C330.069 222.392 330.169 222.528 330.169 222.672C330.169 222.728 330.145 222.784 330.097 222.84C330.057 222.888 330.005 222.912 329.941 222.912C329.853 222.912 329.781 222.888 329.725 222.84C329.677 222.792 329.625 222.736 329.569 222.672C329.513 222.6 329.425 222.536 329.305 222.48C329.193 222.424 329.033 222.376 328.825 222.336C328.625 222.296 328.377 222.276 328.081 222.276C327.617 222.276 327.193 222.396 326.809 222.636C326.425 222.876 326.117 223.2 325.885 223.608C325.661 224.008 325.549 224.46 325.549 224.964C325.549 225.476 325.653 225.936 325.861 226.344C326.077 226.752 326.373 227.076 326.749 227.316C327.133 227.548 327.577 227.664 328.081 227.664C328.441 227.664 328.713 227.632 328.897 227.568C329.089 227.496 329.253 227.42 329.389 227.34C329.557 227.244 329.673 227.152 329.737 227.064C329.801 226.976 329.877 226.932 329.965 226.932C330.029 226.932 330.077 226.952 330.109 226.992C330.149 227.032 330.169 227.084 330.169 227.148C330.169 227.244 330.081 227.372 329.905 227.532C329.729 227.684 329.481 227.82 329.161 227.94C328.849 228.06 328.477 228.12 328.045 228.12C327.461 228.12 326.945 227.984 326.497 227.712C326.049 227.432 325.697 227.056 325.441 226.584C325.193 226.104 325.069 225.564 325.069 224.964C325.069 224.404 325.193 223.888 325.441 223.416C325.697 222.936 326.049 222.552 326.497 222.264C326.953 221.968 327.485 221.82 328.093 221.82Z" fill="#808080"/>
</g>
<path d="M345 216.5H549.03" stroke="#E8786B"/>
</g>
<defs>
<filter id="filter0_d_1567_58510" x="94.2" y="35.7" width="216.6" height="51.6" filterUnits="userSpaceOnUse" color-interpolation-filters="sRGB">
<feFlood flood-opacity="0" result="BackgroundImageFix"/>
<feColorMatrix in="SourceAlpha" type="matrix" values="0 0 0 0 0 0 0 0 0 0 0 0 0 0 0 0 0 0 127 0" result="hardAlpha"/>
<feOffset dy="5"/>
<feGaussianBlur stdDeviation="3.15"/>
<feComposite in2="hardAlpha" operator="out"/>
<feColorMatrix type="matrix" values="0 0 0 0 0.441667 0 0 0 0 0.441667 0 0 0 0 0.441667 0 0 0 0.12 0"/>
<feBlend mode="normal" in2="BackgroundImageFix" result="effect1_dropShadow_1567_58510"/>
<feBlend mode="normal" in="SourceGraphic" in2="effect1_dropShadow_1567_58510" result="shape"/>
</filter>
<filter id="filter1_d_1567_58510" x="23.2" y="115.7" width="217.6" height="51.6" filterUnits="userSpaceOnUse" color-interpolation-filters="sRGB">
<feFlood flood-opacity="0" result="BackgroundImageFix"/>
<feColorMatrix in="SourceAlpha" type="matrix" values="0 0 0 0 0 0 0 0 0 0 0 0 0 0 0 0 0 0 127 0" result="hardAlpha"/>
<feOffset dy="5"/>
<feGaussianBlur stdDeviation="3.15"/>
<feComposite in2="hardAlpha" operator="out"/>
<feColorMatrix type="matrix" values="0 0 0 0 0.441667 0 0 0 0 0.441667 0 0 0 0 0.441667 0 0 0 0.12 0"/>
<feBlend mode="normal" in2="BackgroundImageFix" result="effect1_dropShadow_1567_58510"/>
<feBlend mode="normal" in="SourceGraphic" in2="effect1_dropShadow_1567_58510" result="shape"/>
</filter>
<filter id="filter2_d_1567_58510" x="88.7" y="195.7" width="256.6" height="51.6" filterUnits="userSpaceOnUse" color-interpolation-filters="sRGB">
<feFlood flood-opacity="0" result="BackgroundImageFix"/>
<feColorMatrix in="SourceAlpha" type="matrix" values="0 0 0 0 0 0 0 0 0 0 0 0 0 0 0 0 0 0 127 0" result="hardAlpha"/>
<feOffset dy="5"/>
<feGaussianBlur stdDeviation="3.15"/>
<feComposite in2="hardAlpha" operator="out"/>
<feColorMatrix type="matrix" values="0 0 0 0 0.441667 0 0 0 0 0.441667 0 0 0 0 0.441667 0 0 0 0.12 0"/>
<feBlend mode="normal" in2="BackgroundImageFix" result="effect1_dropShadow_1567_58510"/>
<feBlend mode="normal" in="SourceGraphic" in2="effect1_dropShadow_1567_58510" result="shape"/>
</filter>
<clipPath id="clip0_1567_58510">
<rect width="392.175" height="263" fill="white"/>
</clipPath>
</defs>
</svg>
