<svg width="648" height="212" viewBox="0 0 648 212" fill="none" xmlns="http://www.w3.org/2000/svg">
<path d="M71 20.8008L193 20.8008" stroke="#E5E5E5"/>
<g filter="url(#filter0_d_3231_63954)">
<path d="M199 9.30078C199 4.8825 202.582 1.30078 207 1.30078H395C399.418 1.30078 403 4.8825 403 9.30078V32.3008C403 36.7191 399.418 40.3008 395 40.3008H207C202.582 40.3008 199 36.7191 199 32.3008V9.30078Z" fill="white"/>
<path d="M207 1.80078H395C399.142 1.80078 402.5 5.15865 402.5 9.30078V32.3008C402.5 36.4429 399.142 39.8008 395 39.8008H207C202.858 39.8008 199.5 36.4429 199.5 32.3008V9.30078C199.5 5.15865 202.858 1.80078 207 1.80078Z" stroke="#E5E5E5"/>
<path fill-rule="evenodd" clip-rule="evenodd" d="M220.33 17.4608L229.48 20.3608C230.125 20.5535 230.599 21.1053 230.692 21.7726C230.784 22.4398 230.479 23.0996 229.91 23.4608L226.72 25.4608C226.509 25.5917 226.331 25.7697 226.2 25.9808L224.2 29.1708C223.899 29.6597 223.364 29.9555 222.79 29.9508C222.023 29.9561 221.342 29.4616 221.11 28.7308L218.21 19.5808C218.02 18.9797 218.181 18.3232 218.627 17.8775C219.072 17.4319 219.729 17.2713 220.33 17.4608ZM225.87 24.0808L229.06 22.0808C229.094 22.0492 229.098 21.9974 229.07 21.9608C229.06 21.8908 228.99 21.8908 228.99 21.8908L219.84 18.9908V19.0508L222.74 28.2008C222.75 28.2631 222.807 28.3069 222.87 28.3008L224.87 25.0808C225.129 24.6805 225.47 24.3396 225.87 24.0808Z" fill="#808080"/>
<path d="M214.48 12.7308C214.195 12.4761 213.765 12.4761 213.48 12.7308C213.234 13.0188 213.234 13.4428 213.48 13.7308L215.48 15.8308C215.623 15.968 215.812 16.0465 216.01 16.0508C216.208 16.0485 216.398 15.9697 216.54 15.8308C216.7 15.6947 216.794 15.4973 216.8 15.2875C216.806 15.0777 216.722 14.8753 216.57 14.7308L214.48 12.7308Z" fill="#808080"/>
<path d="M218.75 14.7308C218.949 14.7255 219.138 14.6415 219.275 14.497C219.411 14.3526 219.485 14.1597 219.48 13.9608V11.0508C219.48 10.6366 219.144 10.3008 218.73 10.3008C218.316 10.3008 217.98 10.6366 217.98 11.0508V13.9608C217.974 14.1667 218.054 14.3658 218.199 14.5114C218.345 14.657 218.544 14.7363 218.75 14.7308Z" fill="#808080"/>
<path d="M221.54 14.6708C221.739 14.6717 221.93 14.5924 222.07 14.4508L224.13 12.3908C224.331 12.2038 224.413 11.9222 224.345 11.6565C224.278 11.3908 224.07 11.1833 223.804 11.1154C223.539 11.0475 223.257 11.1301 223.07 11.3308L221.01 13.3908C220.718 13.6836 220.718 14.158 221.01 14.4508C221.15 14.5924 221.341 14.6717 221.54 14.6708Z" fill="#808080"/>
<path d="M214.14 20.2608L212.08 22.3208C211.788 22.6136 211.788 23.088 212.08 23.3808C212.219 23.5234 212.411 23.6029 212.61 23.6008C212.809 23.6017 213 23.5224 213.14 23.3808L215.2 21.3208C215.401 21.1338 215.483 20.8522 215.415 20.5865C215.348 20.3208 215.14 20.1133 214.874 20.0454C214.609 19.9775 214.327 20.0601 214.14 20.2608Z" fill="#808080"/>
<path d="M214.67 17.2908H211.75C211.336 17.2908 211 17.6266 211 18.0408C211 18.455 211.336 18.7908 211.75 18.7908H214.67C215.084 18.7908 215.42 18.455 215.42 18.0408C215.42 17.6266 215.084 17.2908 214.67 17.2908Z" fill="#808080"/>
<path d="M241.064 16.0848C241.16 16.0848 241.261 16.1114 241.368 16.1648C241.485 16.2181 241.576 16.2874 241.64 16.3728L245.88 22.7888L245.32 22.7728L249.608 16.3728C249.747 16.1701 249.928 16.0741 250.152 16.0848C250.323 16.0954 250.472 16.1594 250.6 16.2768C250.728 16.3941 250.792 16.5488 250.792 16.7408V26.6448C250.792 26.8261 250.728 26.9808 250.6 27.1088C250.472 27.2368 250.312 27.3008 250.12 27.3008C249.928 27.3008 249.768 27.2368 249.64 27.1088C249.512 26.9808 249.448 26.8261 249.448 26.6448V17.9568L249.848 18.0368L246.072 23.7808C246.008 23.8554 245.928 23.9194 245.832 23.9728C245.747 24.0261 245.656 24.0528 245.56 24.0528C245.464 24.0528 245.368 24.0261 245.272 23.9728C245.176 23.9194 245.096 23.8554 245.032 23.7808L241.304 18.0368L241.64 17.6208V26.6448C241.64 26.8261 241.581 26.9808 241.464 27.1088C241.347 27.2368 241.197 27.3008 241.016 27.3008C240.835 27.3008 240.685 27.2368 240.568 27.1088C240.461 26.9808 240.408 26.8261 240.408 26.6448V16.7408C240.408 16.5701 240.467 16.4208 240.584 16.2928C240.712 16.1541 240.872 16.0848 241.064 16.0848ZM254.604 26.6448C254.604 26.8261 254.54 26.9808 254.412 27.1088C254.294 27.2368 254.145 27.3008 253.964 27.3008C253.772 27.3008 253.617 27.2368 253.5 27.1088C253.382 26.9808 253.324 26.8261 253.324 26.6448V19.5408C253.324 19.3594 253.382 19.2101 253.5 19.0928C253.628 18.9648 253.782 18.9008 253.964 18.9008C254.145 18.9008 254.294 18.9648 254.412 19.0928C254.54 19.2101 254.604 19.3594 254.604 19.5408V26.6448ZM253.964 17.8288C253.697 17.8288 253.5 17.7754 253.372 17.6688C253.244 17.5621 253.18 17.3968 253.18 17.1728V16.9488C253.18 16.7248 253.249 16.5594 253.388 16.4528C253.526 16.3461 253.724 16.2928 253.98 16.2928C254.236 16.2928 254.428 16.3461 254.556 16.4528C254.684 16.5594 254.748 16.7248 254.748 16.9488V17.1728C254.748 17.3968 254.678 17.5621 254.539 17.6688C254.412 17.7754 254.22 17.8288 253.964 17.8288ZM261.015 18.8208C261.74 18.8208 262.311 18.9701 262.727 19.2688C263.143 19.5674 263.436 19.9674 263.607 20.4688C263.788 20.9701 263.879 21.5301 263.879 22.1488V26.6448C263.879 26.8261 263.815 26.9808 263.687 27.1088C263.569 27.2368 263.42 27.3008 263.239 27.3008C263.057 27.3008 262.903 27.2368 262.775 27.1088C262.657 26.9808 262.599 26.8261 262.599 26.6448V22.1808C262.599 21.7754 262.535 21.4128 262.407 21.0928C262.289 20.7621 262.087 20.5008 261.799 20.3088C261.521 20.1061 261.137 20.0048 260.647 20.0048C260.199 20.0048 259.788 20.1061 259.415 20.3088C259.041 20.5008 258.743 20.7621 258.519 21.0928C258.295 21.4128 258.183 21.7754 258.183 22.1808V26.6448C258.183 26.8261 258.119 26.9808 257.991 27.1088C257.873 27.2368 257.724 27.3008 257.543 27.3008C257.361 27.3008 257.207 27.2368 257.079 27.1088C256.961 26.9808 256.903 26.8261 256.903 26.6448V19.6688C256.903 19.4874 256.961 19.3381 257.079 19.2208C257.207 19.0928 257.361 19.0288 257.543 19.0288C257.735 19.0288 257.889 19.0928 258.007 19.2208C258.124 19.3381 258.183 19.4874 258.183 19.6688V20.8048L257.863 21.1568C257.916 20.8794 258.039 20.6021 258.231 20.3248C258.423 20.0368 258.663 19.7808 258.951 19.5568C259.239 19.3328 259.559 19.1568 259.911 19.0288C260.263 18.8901 260.631 18.8208 261.015 18.8208ZM265.927 19.0768H269.687C269.857 19.0768 269.996 19.1354 270.103 19.2528C270.22 19.3701 270.279 19.5088 270.279 19.6688C270.279 19.8394 270.22 19.9834 270.103 20.1008C269.996 20.2074 269.857 20.2608 269.687 20.2608H265.927C265.767 20.2608 265.628 20.2021 265.511 20.0848C265.393 19.9674 265.335 19.8234 265.335 19.6528C265.335 19.4928 265.393 19.3594 265.511 19.2528C265.628 19.1354 265.767 19.0768 265.927 19.0768ZM267.607 16.9008C267.788 16.9008 267.937 16.9648 268.055 17.0928C268.172 17.2101 268.231 17.3594 268.231 17.5408V25.2688C268.231 25.5248 268.268 25.7168 268.343 25.8448C268.417 25.9728 268.513 26.0634 268.631 26.1168C268.759 26.1594 268.881 26.1808 268.999 26.1808C269.105 26.1808 269.196 26.1648 269.271 26.1328C269.356 26.0901 269.452 26.0688 269.559 26.0688C269.665 26.0688 269.761 26.1221 269.847 26.2288C269.943 26.3248 269.991 26.4528 269.991 26.6128C269.991 26.8048 269.879 26.9701 269.655 27.1088C269.431 27.2368 269.18 27.3008 268.903 27.3008C268.753 27.3008 268.567 27.2901 268.343 27.2688C268.129 27.2474 267.916 27.1781 267.703 27.0608C267.489 26.9434 267.308 26.7514 267.159 26.4848C267.02 26.2074 266.951 25.8234 266.951 25.3328V17.5408C266.951 17.3594 267.015 17.2101 267.143 17.0928C267.271 16.9648 267.425 16.9008 267.607 16.9008ZM283.281 18.9488C283.463 18.9488 283.612 19.0128 283.729 19.1408C283.857 19.2581 283.921 19.4074 283.921 19.5888V26.6448C283.921 26.8261 283.857 26.9808 283.729 27.1088C283.612 27.2368 283.463 27.3008 283.281 27.3008C283.089 27.3008 282.935 27.2368 282.817 27.1088C282.7 26.9808 282.641 26.8261 282.641 26.6448V25.1248L282.945 25.0928C282.945 25.3274 282.865 25.5834 282.705 25.8608C282.545 26.1381 282.327 26.3994 282.049 26.6448C281.772 26.8794 281.441 27.0768 281.057 27.2368C280.684 27.3861 280.279 27.4608 279.841 27.4608C279.116 27.4608 278.465 27.2741 277.889 26.9008C277.313 26.5168 276.855 25.9994 276.513 25.3488C276.183 24.6981 276.017 23.9568 276.017 23.1248C276.017 22.2821 276.183 21.5408 276.513 20.9008C276.855 20.2501 277.313 19.7434 277.889 19.3808C278.465 19.0074 279.105 18.8208 279.809 18.8208C280.268 18.8208 280.695 18.8954 281.089 19.0448C281.484 19.1941 281.825 19.3968 282.113 19.6528C282.412 19.9088 282.641 20.1914 282.801 20.5008C282.972 20.8101 283.057 21.1194 283.057 21.4288L282.641 21.3328V19.5888C282.641 19.4074 282.7 19.2581 282.817 19.1408C282.935 19.0128 283.089 18.9488 283.281 18.9488ZM279.985 26.2768C280.519 26.2768 280.988 26.1381 281.393 25.8608C281.809 25.5834 282.129 25.2101 282.353 24.7408C282.588 24.2608 282.705 23.7221 282.705 23.1248C282.705 22.5381 282.588 22.0101 282.353 21.5408C282.129 21.0608 281.809 20.6874 281.393 20.4208C280.988 20.1434 280.519 20.0048 279.985 20.0048C279.463 20.0048 278.993 20.1381 278.577 20.4048C278.172 20.6714 277.852 21.0394 277.617 21.5088C277.383 21.9781 277.265 22.5168 277.265 23.1248C277.265 23.7221 277.377 24.2608 277.601 24.7408C277.836 25.2101 278.156 25.5834 278.561 25.8608C278.977 26.1381 279.452 26.2768 279.985 26.2768ZM290.405 18.8208C291.131 18.8208 291.701 18.9701 292.117 19.2688C292.533 19.5674 292.827 19.9674 292.997 20.4688C293.179 20.9701 293.269 21.5301 293.269 22.1488V26.6448C293.269 26.8261 293.205 26.9808 293.077 27.1088C292.96 27.2368 292.811 27.3008 292.629 27.3008C292.448 27.3008 292.293 27.2368 292.165 27.1088C292.048 26.9808 291.989 26.8261 291.989 26.6448V22.1808C291.989 21.7754 291.925 21.4128 291.797 21.0928C291.68 20.7621 291.477 20.5008 291.189 20.3088C290.912 20.1061 290.528 20.0048 290.037 20.0048C289.589 20.0048 289.179 20.1061 288.805 20.3088C288.432 20.5008 288.133 20.7621 287.909 21.0928C287.685 21.4128 287.573 21.7754 287.573 22.1808V26.6448C287.573 26.8261 287.509 26.9808 287.381 27.1088C287.264 27.2368 287.115 27.3008 286.933 27.3008C286.752 27.3008 286.597 27.2368 286.469 27.1088C286.352 26.9808 286.293 26.8261 286.293 26.6448V19.6688C286.293 19.4874 286.352 19.3381 286.469 19.2208C286.597 19.0928 286.752 19.0288 286.933 19.0288C287.125 19.0288 287.28 19.0928 287.397 19.2208C287.515 19.3381 287.573 19.4874 287.573 19.6688V20.8048L287.253 21.1568C287.307 20.8794 287.429 20.6021 287.621 20.3248C287.813 20.0368 288.053 19.7808 288.341 19.5568C288.629 19.3328 288.949 19.1568 289.301 19.0288C289.653 18.8901 290.021 18.8208 290.405 18.8208ZM308.555 16.1008C308.737 16.1008 308.881 16.1594 308.987 16.2768C309.094 16.3834 309.147 16.5221 309.147 16.6928V26.6288C309.147 26.8314 309.083 26.9968 308.955 27.1248C308.827 27.2421 308.673 27.3008 308.491 27.3008C308.395 27.3008 308.299 27.2848 308.203 27.2528C308.107 27.2101 308.033 27.1568 307.979 27.0928L301.131 18.0368L301.451 17.8448V26.7088C301.451 26.8794 301.393 27.0234 301.275 27.1408C301.169 27.2474 301.025 27.3008 300.843 27.3008C300.673 27.3008 300.534 27.2474 300.427 27.1408C300.321 27.0234 300.267 26.8794 300.267 26.7088V16.7408C300.267 16.5488 300.326 16.3941 300.443 16.2768C300.571 16.1594 300.721 16.1008 300.891 16.1008C300.987 16.1008 301.083 16.1221 301.179 16.1648C301.286 16.1968 301.366 16.2501 301.419 16.3248L308.171 25.2528L307.963 25.5088V16.6928C307.963 16.5221 308.017 16.3834 308.123 16.2768C308.241 16.1594 308.385 16.1008 308.555 16.1008ZM312.611 27.3008C312.419 27.3008 312.259 27.2368 312.131 27.1088C312.014 26.9808 311.955 26.8261 311.955 26.6448V16.7408C311.955 16.5594 312.014 16.4101 312.131 16.2928C312.259 16.1648 312.414 16.1008 312.595 16.1008H318.211C318.392 16.1008 318.547 16.1594 318.675 16.2768C318.803 16.3941 318.867 16.5434 318.867 16.7248C318.867 16.8954 318.803 17.0394 318.675 17.1568C318.547 17.2741 318.392 17.3328 318.211 17.3328H313.171L313.267 17.2048V21.1248L313.187 20.9488H317.491C317.672 20.9488 317.827 21.0128 317.955 21.1408C318.083 21.2581 318.147 21.4074 318.147 21.5888C318.147 21.7488 318.083 21.8928 317.955 22.0208C317.827 22.1381 317.672 22.1968 317.491 22.1968H313.155L313.267 22.0528V26.6448C313.267 26.8261 313.203 26.9808 313.075 27.1088C312.947 27.2368 312.792 27.3008 312.611 27.3008ZM324.708 27.3008C324.516 27.3008 324.356 27.2368 324.228 27.1088C324.1 26.9808 324.036 26.8261 324.036 26.6448V16.7568H325.396V26.6448C325.396 26.8261 325.332 26.9808 325.204 27.1088C325.076 27.2368 324.911 27.3008 324.708 27.3008ZM320.996 17.3168C320.815 17.3168 320.66 17.2634 320.532 17.1568C320.415 17.0394 320.356 16.8901 320.356 16.7088C320.356 16.5274 320.415 16.3834 320.532 16.2768C320.66 16.1594 320.815 16.1008 320.996 16.1008H328.436C328.617 16.1008 328.772 16.1594 328.9 16.2768C329.028 16.3834 329.092 16.5274 329.092 16.7088C329.092 16.9008 329.028 17.0501 328.9 17.1568C328.772 17.2634 328.617 17.3168 328.436 17.3168H320.996Z" fill="#4D4D4D"/>
<path d="M352.748 31.8208C352.812 31.8208 352.868 31.8448 352.916 31.8928C352.964 31.9408 352.988 31.9968 352.988 32.0608C352.988 32.1328 352.964 32.1928 352.916 32.2408C352.868 32.2808 352.812 32.3008 352.748 32.3008H348.116C348.044 32.3008 347.976 32.2848 347.912 32.2528C347.848 32.2128 347.816 32.1448 347.816 32.0488C347.816 32.0008 347.836 31.9488 347.876 31.8928L350.696 28.7488C351.192 28.2128 351.556 27.7328 351.788 27.3088C352.028 26.8768 352.148 26.4888 352.148 26.1448C352.148 25.5768 351.972 25.1208 351.62 24.7768C351.268 24.4328 350.796 24.2608 350.204 24.2608C349.924 24.2608 349.648 24.3168 349.376 24.4288C349.104 24.5408 348.864 24.6888 348.656 24.8728C348.456 25.0568 348.308 25.2608 348.212 25.4848C348.18 25.5568 348.144 25.6088 348.104 25.6408C348.072 25.6648 348.024 25.6768 347.96 25.6768C347.896 25.6768 347.84 25.6608 347.792 25.6288C347.744 25.5888 347.72 25.5408 347.72 25.4848C347.72 25.4528 347.724 25.4248 347.732 25.4008C347.74 25.3688 347.756 25.3248 347.78 25.2688C347.908 25.0048 348.1 24.7608 348.356 24.5368C348.62 24.3128 348.916 24.1328 349.244 23.9968C349.58 23.8528 349.912 23.7808 350.24 23.7808C350.736 23.7808 351.164 23.8768 351.524 24.0688C351.892 24.2608 352.176 24.5288 352.376 24.8728C352.576 25.2168 352.676 25.6248 352.676 26.0968C352.676 26.5048 352.548 26.9488 352.292 27.4288C352.036 27.9088 351.636 28.4448 351.092 29.0368L348.512 31.9648L348.404 31.8208H352.748ZM355.321 32.3248C355.265 32.3248 355.209 32.3048 355.153 32.2648C355.097 32.2248 355.069 32.1728 355.069 32.1088C355.069 32.0768 355.077 32.0368 355.093 31.9888L358.357 24.3328L358.501 24.4408H354.241C354.177 24.4408 354.121 24.4208 354.073 24.3808C354.025 24.3328 354.001 24.2728 354.001 24.2008C354.001 24.1288 354.025 24.0728 354.073 24.0328C354.121 23.9848 354.177 23.9608 354.241 23.9608H358.729C358.817 23.9608 358.873 23.9808 358.897 24.0208C358.921 24.0608 358.933 24.1128 358.933 24.1768C358.933 24.2248 358.925 24.2648 358.909 24.2968L355.561 32.1688C355.545 32.2168 355.513 32.2568 355.465 32.2888C355.425 32.3128 355.377 32.3248 355.321 32.3248ZM359.737 26.2648H362.521C362.585 26.2648 362.637 26.2888 362.677 26.3368C362.725 26.3848 362.749 26.4368 362.749 26.4928C362.749 26.5568 362.725 26.6128 362.677 26.6608C362.637 26.7008 362.585 26.7208 362.521 26.7208H359.737C359.681 26.7208 359.629 26.6968 359.581 26.6488C359.533 26.6008 359.509 26.5488 359.509 26.4928C359.509 26.4288 359.533 26.3768 359.581 26.3368C359.629 26.2888 359.681 26.2648 359.737 26.2648ZM360.961 24.5008C361.033 24.5008 361.089 24.5248 361.129 24.5728C361.177 24.6208 361.201 24.6768 361.201 24.7408V30.9928C361.201 31.2568 361.233 31.4528 361.297 31.5808C361.369 31.7008 361.457 31.7808 361.561 31.8208C361.665 31.8528 361.765 31.8688 361.861 31.8688C361.917 31.8688 361.965 31.8608 362.005 31.8448C362.045 31.8288 362.093 31.8208 362.149 31.8208C362.205 31.8208 362.253 31.8448 362.293 31.8928C362.333 31.9328 362.353 31.9808 362.353 32.0368C362.353 32.1088 362.305 32.1728 362.209 32.2288C362.121 32.2768 362.009 32.3008 361.873 32.3008C361.825 32.3008 361.737 32.3008 361.609 32.3008C361.489 32.2928 361.357 32.2568 361.213 32.1928C361.077 32.1208 360.961 31.9968 360.865 31.8208C360.769 31.6368 360.721 31.3688 360.721 31.0168V24.7408C360.721 24.6768 360.745 24.6208 360.793 24.5728C360.841 24.5248 360.897 24.5008 360.961 24.5008ZM366.702 26.2408C367.182 26.2408 367.578 26.3448 367.89 26.5528C368.21 26.7608 368.446 27.0408 368.598 27.3928C368.758 27.7448 368.838 28.1328 368.838 28.5568V32.0608C368.838 32.1248 368.814 32.1808 368.766 32.2288C368.718 32.2768 368.662 32.3008 368.598 32.3008C368.526 32.3008 368.466 32.2768 368.418 32.2288C368.378 32.1808 368.358 32.1248 368.358 32.0608V28.5568C368.358 28.2128 368.302 27.9008 368.19 27.6208C368.078 27.3408 367.902 27.1168 367.662 26.9488C367.422 26.7808 367.102 26.6968 366.702 26.6968C366.358 26.6968 366.022 26.7808 365.694 26.9488C365.366 27.1168 365.094 27.3408 364.878 27.6208C364.67 27.9008 364.566 28.2128 364.566 28.5568V32.0608C364.566 32.1248 364.542 32.1808 364.494 32.2288C364.446 32.2768 364.39 32.3008 364.326 32.3008C364.254 32.3008 364.194 32.2768 364.146 32.2288C364.106 32.1808 364.086 32.1248 364.086 32.0608V23.6608C364.086 23.5968 364.11 23.5408 364.158 23.4928C364.206 23.4448 364.262 23.4208 364.326 23.4208C364.398 23.4208 364.454 23.4448 364.494 23.4928C364.542 23.5408 364.566 23.5968 364.566 23.6608V27.8488L364.266 28.4248C364.266 28.1368 364.338 27.8608 364.482 27.5968C364.626 27.3328 364.814 27.1008 365.046 26.9008C365.286 26.6928 365.55 26.5328 365.838 26.4208C366.126 26.3008 366.414 26.2408 366.702 26.2408ZM377.623 23.9008C378.223 23.9008 378.743 24.0168 379.183 24.2488C379.623 24.4728 379.983 24.7848 380.263 25.1848C380.551 25.5768 380.763 26.0248 380.899 26.5288C381.035 27.0328 381.103 27.5568 381.103 28.1008C381.103 28.8688 380.979 29.5728 380.731 30.2128C380.491 30.8448 380.115 31.3528 379.603 31.7368C379.091 32.1128 378.431 32.3008 377.623 32.3008H374.503C374.439 32.3008 374.383 32.2768 374.335 32.2288C374.287 32.1808 374.263 32.1248 374.263 32.0608V24.1408C374.263 24.0768 374.287 24.0208 374.335 23.9728C374.383 23.9248 374.439 23.9008 374.503 23.9008H377.623ZM377.503 31.8208C378.239 31.8208 378.831 31.6568 379.279 31.3288C379.735 30.9928 380.067 30.5448 380.275 29.9848C380.491 29.4168 380.599 28.7888 380.599 28.1008C380.599 27.6128 380.539 27.1448 380.419 26.6968C380.307 26.2488 380.127 25.8528 379.879 25.5088C379.631 25.1568 379.311 24.8808 378.919 24.6808C378.527 24.4808 378.055 24.3808 377.503 24.3808H374.695L374.767 24.2848V31.9288L374.695 31.8208H377.503ZM385.489 32.4208C384.889 32.4208 384.357 32.2928 383.893 32.0368C383.437 31.7808 383.077 31.4208 382.813 30.9568C382.549 30.4848 382.417 29.9328 382.417 29.3008C382.417 28.6288 382.545 28.0568 382.801 27.5848C383.065 27.1128 383.401 26.7528 383.809 26.5048C384.225 26.2488 384.665 26.1208 385.129 26.1208C385.465 26.1208 385.793 26.1768 386.113 26.2888C386.433 26.3928 386.717 26.5608 386.965 26.7928C387.221 27.0168 387.425 27.3008 387.577 27.6448C387.737 27.9808 387.825 28.3848 387.841 28.8568C387.841 28.9208 387.817 28.9808 387.769 29.0368C387.721 29.0848 387.665 29.1088 387.601 29.1088H382.705L382.633 28.6528H387.469L387.349 28.7608V28.5448C387.309 28.1208 387.173 27.7648 386.941 27.4768C386.717 27.1888 386.445 26.9728 386.125 26.8288C385.805 26.6768 385.473 26.6008 385.129 26.6008C384.889 26.6008 384.637 26.6568 384.373 26.7688C384.109 26.8728 383.865 27.0368 383.641 27.2608C383.417 27.4768 383.233 27.7528 383.089 28.0888C382.953 28.4248 382.885 28.8168 382.885 29.2648C382.885 29.7528 382.981 30.2008 383.173 30.6088C383.373 31.0168 383.665 31.3448 384.049 31.5928C384.441 31.8408 384.921 31.9648 385.489 31.9648C385.761 31.9648 386.017 31.9208 386.257 31.8328C386.497 31.7368 386.713 31.6128 386.905 31.4608C387.097 31.3088 387.253 31.1448 387.373 30.9688C387.437 30.8968 387.505 30.8608 387.577 30.8608C387.633 30.8608 387.681 30.8848 387.721 30.9328C387.761 30.9728 387.781 31.0208 387.781 31.0768C387.781 31.1328 387.765 31.1808 387.733 31.2208C387.485 31.5408 387.165 31.8208 386.773 32.0608C386.389 32.3008 385.961 32.4208 385.489 32.4208ZM392.109 26.1208C392.469 26.1208 392.805 26.1608 393.117 26.2408C393.437 26.3208 393.693 26.4288 393.885 26.5648C394.085 26.6928 394.185 26.8288 394.185 26.9728C394.185 27.0288 394.161 27.0848 394.113 27.1408C394.073 27.1888 394.021 27.2128 393.957 27.2128C393.869 27.2128 393.797 27.1888 393.741 27.1408C393.693 27.0928 393.641 27.0368 393.585 26.9728C393.529 26.9008 393.441 26.8368 393.321 26.7808C393.209 26.7248 393.049 26.6768 392.841 26.6368C392.641 26.5968 392.393 26.5768 392.097 26.5768C391.633 26.5768 391.209 26.6968 390.825 26.9368C390.441 27.1768 390.133 27.5008 389.901 27.9088C389.677 28.3088 389.565 28.7608 389.565 29.2648C389.565 29.7768 389.669 30.2368 389.877 30.6448C390.093 31.0528 390.389 31.3768 390.765 31.6168C391.149 31.8488 391.593 31.9648 392.097 31.9648C392.457 31.9648 392.729 31.9328 392.913 31.8688C393.105 31.7968 393.269 31.7208 393.405 31.6408C393.573 31.5448 393.689 31.4528 393.753 31.3648C393.817 31.2768 393.893 31.2328 393.981 31.2328C394.045 31.2328 394.093 31.2528 394.125 31.2928C394.165 31.3328 394.185 31.3848 394.185 31.4488C394.185 31.5448 394.097 31.6728 393.921 31.8328C393.745 31.9848 393.497 32.1208 393.177 32.2408C392.865 32.3608 392.493 32.4208 392.061 32.4208C391.477 32.4208 390.961 32.2848 390.513 32.0128C390.065 31.7328 389.713 31.3568 389.457 30.8848C389.209 30.4048 389.085 29.8648 389.085 29.2648C389.085 28.7048 389.209 28.1888 389.457 27.7168C389.713 27.2368 390.065 26.8528 390.513 26.5648C390.969 26.2688 391.501 26.1208 392.109 26.1208Z" fill="#808080"/>
</g>
<path d="M409 20.8008H510" stroke="#E5E5E5"/>
<path d="M0 100.801L122 100.801" stroke="#6FCA8F"/>
<g filter="url(#filter1_d_3231_63954)">
<path d="M128 89.3008C128 84.8825 131.582 81.3008 136 81.3008H325C329.418 81.3008 333 84.8825 333 89.3008V112.301C333 116.719 329.418 120.301 325 120.301H136C131.582 120.301 128 116.719 128 112.301V89.3008Z" fill="white"/>
<path d="M136 81.8008H325C329.142 81.8008 332.5 85.1586 332.5 89.3008V112.301C332.5 116.443 329.142 119.801 325 119.801H136C131.858 119.801 128.5 116.443 128.5 112.301V89.3008C128.5 85.1586 131.858 81.8008 136 81.8008Z" stroke="#E5E5E5"/>
<path d="M161.215 92.7898C161.205 92.6063 161.127 92.4332 160.997 92.3032C160.867 92.1732 160.694 92.0955 160.51 92.0848C155.658 91.8035 151.761 93.2792 150.087 96.0429C148.981 97.8701 148.983 100.089 150.072 102.206C149.452 102.944 148.999 103.808 148.744 104.737L147.218 103.206C147.951 101.675 147.923 100.08 147.125 98.7542C145.887 96.7114 143.031 95.6164 139.484 95.8245C139.3 95.8352 139.127 95.9129 138.997 96.0429C138.867 96.1728 138.79 96.346 138.779 96.5295C138.57 100.076 139.666 102.933 141.709 104.17C142.383 104.582 143.157 104.8 143.947 104.8C144.714 104.791 145.469 104.609 146.156 104.269L148.5 106.612V109.3C148.5 109.499 148.579 109.69 148.72 109.83C148.86 109.971 149.051 110.05 149.25 110.05C149.449 110.05 149.64 109.971 149.78 109.83C149.921 109.69 150 109.499 150 109.3V106.535C149.996 105.342 150.403 104.184 151.15 103.254C152.115 103.758 153.185 104.028 154.273 104.042C155.325 104.045 156.358 103.758 157.257 103.211C160.021 101.539 161.5 97.6423 161.215 92.7898ZM142.482 102.888C141.044 102.017 140.23 99.9551 140.25 97.3001C142.905 97.2776 144.966 98.0942 145.837 99.5323C146.292 100.282 146.366 101.157 146.068 102.058L143.78 99.7695C143.638 99.6348 143.449 99.5608 143.253 99.5633C143.058 99.5658 142.871 99.6446 142.733 99.7829C142.594 99.9212 142.516 100.108 142.513 100.304C142.511 100.499 142.585 100.688 142.719 100.83L145.008 103.118C144.107 103.416 143.233 103.342 142.482 102.888ZM156.48 101.929C155.224 102.69 153.747 102.748 152.247 102.117L157.281 97.0826C157.415 96.9408 157.489 96.752 157.487 96.5564C157.484 96.3609 157.405 96.174 157.267 96.0357C157.129 95.8974 156.942 95.8186 156.746 95.8161C156.551 95.8136 156.362 95.8876 156.22 96.0223L151.186 101.05C150.552 99.5501 150.609 98.0726 151.373 96.8173C152.68 94.661 155.78 93.4592 159.748 93.552C159.838 97.5195 158.638 100.623 156.48 101.929Z" fill="#53AF70"/>
<path d="M177.472 96.8368C177.653 96.9328 177.755 97.0768 177.776 97.2688C177.808 97.4608 177.76 97.6368 177.632 97.7968C177.536 97.9354 177.413 98.0101 177.264 98.0208C177.115 98.0314 176.965 97.9994 176.816 97.9248C176.464 97.7114 176.085 97.5461 175.68 97.4288C175.275 97.3008 174.848 97.2368 174.4 97.2368C173.771 97.2368 173.195 97.3488 172.672 97.5728C172.149 97.7861 171.696 98.0901 171.312 98.4848C170.928 98.8794 170.629 99.3488 170.416 99.8928C170.203 100.437 170.096 101.039 170.096 101.701C170.096 102.405 170.208 103.034 170.432 103.589C170.656 104.143 170.96 104.618 171.344 105.013C171.739 105.397 172.192 105.69 172.704 105.893C173.227 106.095 173.792 106.197 174.4 106.197C174.837 106.197 175.259 106.138 175.664 106.021C176.069 105.903 176.453 105.733 176.816 105.509C176.965 105.434 177.115 105.407 177.264 105.429C177.413 105.45 177.541 105.525 177.648 105.653C177.776 105.823 177.824 106.005 177.792 106.197C177.76 106.378 177.659 106.511 177.488 106.597C177.221 106.757 176.917 106.906 176.576 107.045C176.235 107.173 175.877 107.274 175.504 107.349C175.141 107.423 174.773 107.461 174.4 107.461C173.632 107.461 172.907 107.327 172.224 107.061C171.541 106.794 170.939 106.41 170.416 105.909C169.893 105.407 169.477 104.805 169.168 104.101C168.869 103.386 168.72 102.586 168.72 101.701C168.72 100.869 168.864 100.106 169.152 99.4128C169.44 98.7194 169.84 98.1168 170.352 97.6048C170.875 97.0928 171.477 96.6928 172.16 96.4048C172.853 96.1168 173.6 95.9728 174.4 95.9728C174.955 95.9728 175.493 96.0474 176.016 96.1968C176.549 96.3461 177.035 96.5594 177.472 96.8368ZM180.905 106.645C180.905 106.826 180.841 106.981 180.713 107.109C180.585 107.237 180.43 107.301 180.249 107.301C180.067 107.301 179.918 107.237 179.801 107.109C179.683 106.981 179.625 106.826 179.625 106.645V96.1008C179.625 95.9194 179.683 95.7701 179.801 95.6528C179.929 95.5248 180.083 95.4608 180.265 95.4608C180.457 95.4608 180.611 95.5248 180.729 95.6528C180.846 95.7701 180.905 95.9194 180.905 96.1008V106.645ZM190.203 98.9488C190.384 98.9488 190.534 99.0128 190.651 99.1408C190.779 99.2581 190.843 99.4074 190.843 99.5888V106.645C190.843 106.826 190.779 106.981 190.651 107.109C190.534 107.237 190.384 107.301 190.203 107.301C190.011 107.301 189.856 107.237 189.739 107.109C189.622 106.981 189.563 106.826 189.563 106.645V105.125L189.867 105.093C189.867 105.327 189.787 105.583 189.627 105.861C189.467 106.138 189.248 106.399 188.971 106.645C188.694 106.879 188.363 107.077 187.979 107.237C187.606 107.386 187.2 107.461 186.763 107.461C186.038 107.461 185.387 107.274 184.811 106.901C184.235 106.517 183.776 105.999 183.435 105.349C183.104 104.698 182.939 103.957 182.939 103.125C182.939 102.282 183.104 101.541 183.435 100.901C183.776 100.25 184.235 99.7434 184.811 99.3808C185.387 99.0074 186.027 98.8208 186.731 98.8208C187.19 98.8208 187.616 98.8954 188.011 99.0448C188.406 99.1941 188.747 99.3968 189.035 99.6528C189.334 99.9088 189.563 100.191 189.723 100.501C189.894 100.81 189.979 101.119 189.979 101.429L189.563 101.333V99.5888C189.563 99.4074 189.622 99.2581 189.739 99.1408C189.856 99.0128 190.011 98.9488 190.203 98.9488ZM186.907 106.277C187.44 106.277 187.91 106.138 188.315 105.861C188.731 105.583 189.051 105.21 189.275 104.741C189.51 104.261 189.627 103.722 189.627 103.125C189.627 102.538 189.51 102.01 189.275 101.541C189.051 101.061 188.731 100.687 188.315 100.421C187.91 100.143 187.44 100.005 186.907 100.005C186.384 100.005 185.915 100.138 185.499 100.405C185.094 100.671 184.774 101.039 184.539 101.509C184.304 101.978 184.187 102.517 184.187 103.125C184.187 103.722 184.299 104.261 184.523 104.741C184.758 105.21 185.078 105.583 185.483 105.861C185.899 106.138 186.374 106.277 186.907 106.277ZM194.447 106.645C194.447 106.826 194.383 106.981 194.255 107.109C194.138 107.237 193.989 107.301 193.807 107.301C193.615 107.301 193.461 107.237 193.343 107.109C193.226 106.981 193.167 106.826 193.167 106.645V99.5408C193.167 99.3594 193.226 99.2101 193.343 99.0928C193.471 98.9648 193.626 98.9008 193.807 98.9008C193.989 98.9008 194.138 98.9648 194.255 99.0928C194.383 99.2101 194.447 99.3594 194.447 99.5408V106.645ZM193.807 97.8288C193.541 97.8288 193.343 97.7754 193.215 97.6688C193.087 97.5621 193.023 97.3968 193.023 97.1728V96.9488C193.023 96.7248 193.093 96.5594 193.231 96.4528C193.37 96.3461 193.567 96.2928 193.823 96.2928C194.079 96.2928 194.271 96.3461 194.399 96.4528C194.527 96.5594 194.591 96.7248 194.591 96.9488V97.1728C194.591 97.3968 194.522 97.5621 194.383 97.6688C194.255 97.7754 194.063 97.8288 193.807 97.8288ZM200.699 98.9008C201.424 98.9008 202.011 99.0874 202.459 99.4608C202.917 99.8234 203.221 100.341 203.371 101.013H203.131L203.243 100.725C203.371 100.426 203.589 100.138 203.899 99.8608C204.208 99.5834 204.565 99.3541 204.97 99.1728C205.376 98.9914 205.797 98.9008 206.235 98.9008C206.939 98.9008 207.493 99.0554 207.899 99.3648C208.304 99.6634 208.592 100.069 208.763 100.581C208.944 101.082 209.035 101.647 209.035 102.277V106.645C209.035 106.826 208.971 106.981 208.843 107.109C208.725 107.237 208.576 107.301 208.395 107.301C208.203 107.301 208.048 107.237 207.931 107.109C207.813 106.981 207.755 106.826 207.755 106.645V102.309C207.755 101.893 207.691 101.519 207.563 101.189C207.445 100.847 207.248 100.581 206.971 100.389C206.704 100.186 206.336 100.085 205.867 100.085C205.429 100.085 205.029 100.186 204.667 100.389C204.304 100.581 204.016 100.847 203.803 101.189C203.589 101.519 203.483 101.893 203.483 102.309V106.645C203.483 106.826 203.424 106.981 203.307 107.109C203.189 107.237 203.035 107.301 202.843 107.301C202.661 107.301 202.507 107.237 202.379 107.109C202.261 106.981 202.203 106.826 202.203 106.645V102.261C202.203 101.855 202.144 101.493 202.027 101.173C201.92 100.842 201.733 100.581 201.467 100.389C201.2 100.186 200.832 100.085 200.363 100.085C199.936 100.085 199.547 100.186 199.195 100.389C198.843 100.581 198.56 100.842 198.347 101.173C198.133 101.493 198.027 101.855 198.027 102.261V106.645C198.027 106.826 197.963 106.981 197.835 107.109C197.717 107.237 197.568 107.301 197.387 107.301C197.205 107.301 197.051 107.237 196.923 107.109C196.805 106.981 196.747 106.826 196.747 106.645V99.6688C196.747 99.4874 196.805 99.3381 196.923 99.2208C197.051 99.0928 197.205 99.0288 197.387 99.0288C197.579 99.0288 197.733 99.0928 197.851 99.2208C197.968 99.3381 198.027 99.4874 198.027 99.6688V100.885L197.674 101.269C197.717 100.991 197.824 100.714 197.995 100.437C198.176 100.159 198.405 99.9034 198.683 99.6688C198.96 99.4341 199.269 99.2474 199.611 99.1088C199.952 98.9701 200.315 98.9008 200.699 98.9008ZM222.001 98.9008C222.182 98.9008 222.332 98.9648 222.449 99.0928C222.577 99.2101 222.641 99.3594 222.641 99.5408V106.517C222.641 107.413 222.465 108.154 222.113 108.741C221.761 109.338 221.286 109.781 220.689 110.069C220.102 110.357 219.436 110.501 218.689 110.501C218.273 110.501 217.873 110.458 217.489 110.373C217.105 110.287 216.79 110.175 216.545 110.037C216.342 109.941 216.198 109.818 216.113 109.669C216.038 109.53 216.028 109.381 216.081 109.221C216.156 109.029 216.262 108.895 216.401 108.821C216.55 108.746 216.705 108.746 216.865 108.821C217.036 108.895 217.281 108.997 217.601 109.125C217.932 109.263 218.3 109.333 218.705 109.333C219.26 109.333 219.734 109.226 220.129 109.013C220.524 108.799 220.828 108.485 221.041 108.069C221.254 107.663 221.361 107.157 221.361 106.549V105.413L221.553 105.813C221.382 106.143 221.153 106.431 220.865 106.677C220.577 106.922 220.246 107.114 219.873 107.253C219.5 107.391 219.089 107.461 218.641 107.461C218.033 107.461 217.516 107.333 217.089 107.077C216.673 106.81 216.353 106.447 216.129 105.989C215.916 105.519 215.809 104.981 215.809 104.373V99.5408C215.809 99.3594 215.868 99.2101 215.985 99.0928C216.113 98.9648 216.268 98.9008 216.449 98.9008C216.641 98.9008 216.796 98.9648 216.913 99.0928C217.03 99.2101 217.089 99.3594 217.089 99.5408V104.085C217.089 104.81 217.249 105.359 217.569 105.733C217.889 106.095 218.385 106.277 219.057 106.277C219.484 106.277 219.868 106.181 220.209 105.989C220.561 105.797 220.838 105.535 221.041 105.205C221.254 104.863 221.361 104.49 221.361 104.085V99.5408C221.361 99.3594 221.42 99.2101 221.537 99.0928C221.654 98.9648 221.809 98.9008 222.001 98.9008ZM226.244 106.645C226.244 106.826 226.18 106.981 226.052 107.109C225.935 107.237 225.785 107.301 225.604 107.301C225.412 107.301 225.257 107.237 225.14 107.109C225.023 106.981 224.964 106.826 224.964 106.645V99.5408C224.964 99.3594 225.023 99.2101 225.14 99.0928C225.268 98.9648 225.423 98.9008 225.604 98.9008C225.785 98.9008 225.935 98.9648 226.052 99.0928C226.18 99.2101 226.244 99.3594 226.244 99.5408V106.645ZM225.604 97.8288C225.337 97.8288 225.14 97.7754 225.012 97.6688C224.884 97.5621 224.82 97.3968 224.82 97.1728V96.9488C224.82 96.7248 224.889 96.5594 225.028 96.4528C225.167 96.3461 225.364 96.2928 225.62 96.2928C225.876 96.2928 226.068 96.3461 226.196 96.4528C226.324 96.5594 226.388 96.7248 226.388 96.9488V97.1728C226.388 97.3968 226.319 97.5621 226.18 97.6688C226.052 97.7754 225.86 97.8288 225.604 97.8288ZM232.367 107.461C231.514 107.461 230.767 107.279 230.127 106.917C229.487 106.554 228.986 106.058 228.623 105.429C228.271 104.789 228.095 104.053 228.095 103.221C228.095 102.293 228.277 101.503 228.639 100.853C229.013 100.191 229.493 99.6901 230.079 99.3488C230.677 98.9968 231.306 98.8208 231.967 98.8208C232.458 98.8208 232.933 98.9114 233.391 99.0928C233.85 99.2741 234.255 99.5408 234.607 99.8928C234.959 100.234 235.242 100.65 235.455 101.141C235.669 101.621 235.781 102.159 235.791 102.757C235.791 102.927 235.727 103.071 235.599 103.189C235.471 103.306 235.322 103.365 235.151 103.365H228.831L228.543 102.261H234.703L234.447 102.485V102.133C234.405 101.695 234.255 101.322 233.999 101.013C233.754 100.693 233.45 100.447 233.087 100.277C232.735 100.106 232.362 100.021 231.967 100.021C231.647 100.021 231.327 100.079 231.007 100.197C230.698 100.303 230.415 100.485 230.159 100.741C229.914 100.986 229.711 101.306 229.551 101.701C229.402 102.095 229.327 102.57 229.327 103.125C229.327 103.743 229.45 104.287 229.695 104.757C229.951 105.226 230.303 105.599 230.751 105.877C231.199 106.143 231.722 106.277 232.319 106.277C232.693 106.277 233.018 106.229 233.295 106.133C233.573 106.037 233.813 105.919 234.015 105.781C234.218 105.631 234.389 105.482 234.527 105.333C234.666 105.237 234.799 105.189 234.927 105.189C235.087 105.189 235.215 105.242 235.311 105.349C235.418 105.455 235.471 105.583 235.471 105.733C235.471 105.914 235.386 106.074 235.215 106.213C234.917 106.543 234.511 106.837 233.999 107.093C233.487 107.338 232.943 107.461 232.367 107.461ZM239.123 106.645C239.123 106.826 239.059 106.981 238.931 107.109C238.803 107.237 238.649 107.301 238.467 107.301C238.286 107.301 238.137 107.237 238.019 107.109C237.902 106.981 237.843 106.826 237.843 106.645V96.1008C237.843 95.9194 237.902 95.7701 238.019 95.6528C238.147 95.5248 238.302 95.4608 238.483 95.4608C238.675 95.4608 238.83 95.5248 238.947 95.6528C239.065 95.7701 239.123 95.9194 239.123 96.1008V106.645ZM248.266 95.4608C248.447 95.4608 248.596 95.5248 248.714 95.6528C248.842 95.7701 248.906 95.9194 248.906 96.1008V106.645C248.906 106.826 248.842 106.981 248.714 107.109C248.596 107.237 248.447 107.301 248.266 107.301C248.074 107.301 247.919 107.237 247.802 107.109C247.684 106.981 247.626 106.826 247.626 106.645V105.125L247.93 105.013C247.93 105.269 247.85 105.541 247.69 105.829C247.53 106.106 247.311 106.367 247.034 106.613C246.756 106.858 246.426 107.061 246.042 107.221C245.668 107.381 245.263 107.461 244.826 107.461C244.111 107.461 243.46 107.274 242.874 106.901C242.298 106.527 241.839 106.015 241.498 105.365C241.167 104.714 241.002 103.973 241.002 103.141C241.002 102.298 241.167 101.551 241.498 100.901C241.839 100.25 242.298 99.7434 242.874 99.3808C243.45 99.0074 244.09 98.8208 244.794 98.8208C245.242 98.8208 245.663 98.8954 246.058 99.0448C246.452 99.1941 246.794 99.3968 247.082 99.6528C247.38 99.9088 247.615 100.191 247.786 100.501C247.956 100.81 248.042 101.119 248.042 101.429L247.626 101.333V96.1008C247.626 95.9194 247.684 95.7701 247.802 95.6528C247.919 95.5248 248.074 95.4608 248.266 95.4608ZM244.97 106.277C245.503 106.277 245.972 106.143 246.378 105.877C246.794 105.599 247.114 105.226 247.338 104.757C247.572 104.277 247.69 103.738 247.69 103.141C247.69 102.533 247.572 101.994 247.338 101.525C247.114 101.055 246.794 100.687 246.378 100.421C245.972 100.143 245.503 100.005 244.97 100.005C244.447 100.005 243.978 100.143 243.562 100.421C243.156 100.687 242.836 101.055 242.602 101.525C242.367 101.994 242.25 102.533 242.25 103.141C242.25 103.727 242.367 104.261 242.602 104.741C242.836 105.21 243.156 105.583 243.562 105.861C243.978 106.138 244.447 106.277 244.97 106.277Z" fill="#4D4D4D"/>
<path d="M281.748 111.821C281.812 111.821 281.868 111.845 281.916 111.893C281.964 111.941 281.988 111.997 281.988 112.061C281.988 112.133 281.964 112.193 281.916 112.241C281.868 112.281 281.812 112.301 281.748 112.301H277.116C277.044 112.301 276.976 112.285 276.912 112.253C276.848 112.213 276.816 112.145 276.816 112.049C276.816 112.001 276.836 111.949 276.876 111.893L279.696 108.749C280.192 108.213 280.556 107.733 280.788 107.309C281.028 106.877 281.148 106.489 281.148 106.145C281.148 105.577 280.972 105.121 280.62 104.777C280.268 104.433 279.796 104.261 279.204 104.261C278.924 104.261 278.648 104.317 278.376 104.429C278.104 104.541 277.864 104.689 277.656 104.873C277.456 105.057 277.308 105.261 277.212 105.485C277.18 105.557 277.144 105.609 277.104 105.641C277.072 105.665 277.024 105.677 276.96 105.677C276.896 105.677 276.84 105.661 276.792 105.629C276.744 105.589 276.72 105.541 276.72 105.485C276.72 105.453 276.724 105.425 276.732 105.401C276.74 105.369 276.756 105.325 276.78 105.269C276.908 105.005 277.1 104.761 277.356 104.537C277.62 104.313 277.916 104.133 278.244 103.997C278.58 103.853 278.912 103.781 279.24 103.781C279.736 103.781 280.164 103.877 280.524 104.069C280.892 104.261 281.176 104.529 281.376 104.873C281.576 105.217 281.676 105.625 281.676 106.097C281.676 106.505 281.548 106.949 281.292 107.429C281.036 107.909 280.636 108.445 280.092 109.037L277.512 111.965L277.404 111.821H281.748ZM285.37 112.289C285.026 112.289 284.69 112.233 284.362 112.121C284.034 112.009 283.734 111.841 283.462 111.617C283.43 111.593 283.406 111.565 283.39 111.533C283.374 111.501 283.366 111.469 283.366 111.437C283.366 111.381 283.39 111.321 283.438 111.257C283.486 111.193 283.542 111.161 283.606 111.161C283.67 111.161 283.726 111.185 283.774 111.233C284.006 111.425 284.258 111.569 284.53 111.665C284.81 111.761 285.09 111.809 285.37 111.809C285.874 111.809 286.314 111.713 286.69 111.521C287.066 111.321 287.354 111.041 287.554 110.681C287.762 110.321 287.866 109.905 287.866 109.433C287.866 108.993 287.77 108.609 287.578 108.281C287.394 107.945 287.122 107.685 286.762 107.501C286.41 107.309 285.986 107.213 285.49 107.213C285.186 107.213 284.906 107.261 284.65 107.357C284.394 107.445 284.178 107.537 284.002 107.633C283.826 107.721 283.694 107.765 283.606 107.765C283.566 107.765 283.526 107.753 283.486 107.729C283.454 107.705 283.43 107.673 283.414 107.633C283.398 107.585 283.394 107.533 283.402 107.477L283.966 104.177C283.974 104.137 283.998 104.093 284.038 104.045C284.086 103.997 284.15 103.973 284.23 103.973H287.89C287.954 103.973 288.01 103.997 288.058 104.045C288.106 104.093 288.13 104.153 288.13 104.225C288.13 104.297 288.106 104.357 288.058 104.405C288.01 104.453 287.954 104.477 287.89 104.477H284.326L284.434 104.369L283.882 107.357L283.642 107.297C283.77 107.217 283.934 107.137 284.134 107.057C284.342 106.969 284.574 106.897 284.83 106.841C285.094 106.777 285.374 106.745 285.67 106.745C286.182 106.745 286.638 106.857 287.038 107.081C287.438 107.305 287.754 107.617 287.986 108.017C288.226 108.409 288.346 108.869 288.346 109.397C288.346 109.973 288.222 110.477 287.974 110.909C287.734 111.341 287.39 111.681 286.942 111.929C286.502 112.169 285.978 112.289 285.37 112.289ZM289.452 106.265H292.236C292.3 106.265 292.352 106.289 292.392 106.337C292.44 106.385 292.464 106.437 292.464 106.493C292.464 106.557 292.44 106.613 292.392 106.661C292.352 106.701 292.3 106.721 292.236 106.721H289.452C289.396 106.721 289.344 106.697 289.296 106.649C289.248 106.601 289.224 106.549 289.224 106.493C289.224 106.429 289.248 106.377 289.296 106.337C289.344 106.289 289.396 106.265 289.452 106.265ZM290.676 104.501C290.748 104.501 290.804 104.525 290.844 104.573C290.892 104.621 290.916 104.677 290.916 104.741V110.993C290.916 111.257 290.948 111.453 291.012 111.581C291.084 111.701 291.172 111.781 291.276 111.821C291.38 111.853 291.48 111.869 291.576 111.869C291.632 111.869 291.68 111.861 291.72 111.845C291.76 111.829 291.808 111.821 291.864 111.821C291.92 111.821 291.968 111.845 292.008 111.893C292.048 111.933 292.068 111.981 292.068 112.037C292.068 112.109 292.02 112.173 291.924 112.229C291.836 112.277 291.724 112.301 291.588 112.301C291.54 112.301 291.452 112.301 291.324 112.301C291.204 112.293 291.072 112.257 290.928 112.193C290.792 112.121 290.676 111.997 290.58 111.821C290.484 111.637 290.436 111.369 290.436 111.017V104.741C290.436 104.677 290.46 104.621 290.508 104.573C290.556 104.525 290.612 104.501 290.676 104.501ZM296.417 106.241C296.897 106.241 297.293 106.345 297.605 106.553C297.925 106.761 298.161 107.041 298.313 107.393C298.473 107.745 298.553 108.133 298.553 108.557V112.061C298.553 112.125 298.529 112.181 298.481 112.229C298.433 112.277 298.377 112.301 298.313 112.301C298.241 112.301 298.181 112.277 298.133 112.229C298.093 112.181 298.073 112.125 298.073 112.061V108.557C298.073 108.213 298.017 107.901 297.905 107.621C297.793 107.341 297.617 107.117 297.377 106.949C297.137 106.781 296.817 106.697 296.417 106.697C296.073 106.697 295.737 106.781 295.409 106.949C295.081 107.117 294.809 107.341 294.593 107.621C294.385 107.901 294.281 108.213 294.281 108.557V112.061C294.281 112.125 294.257 112.181 294.209 112.229C294.161 112.277 294.105 112.301 294.041 112.301C293.969 112.301 293.909 112.277 293.861 112.229C293.821 112.181 293.801 112.125 293.801 112.061V103.661C293.801 103.597 293.825 103.541 293.873 103.493C293.921 103.445 293.977 103.421 294.041 103.421C294.113 103.421 294.169 103.445 294.209 103.493C294.257 103.541 294.281 103.597 294.281 103.661V107.849L293.981 108.425C293.981 108.137 294.053 107.861 294.197 107.597C294.341 107.333 294.529 107.101 294.761 106.901C295.001 106.693 295.265 106.533 295.553 106.421C295.841 106.301 296.129 106.241 296.417 106.241ZM307.337 103.901C307.937 103.901 308.457 104.017 308.897 104.249C309.337 104.473 309.697 104.785 309.977 105.185C310.265 105.577 310.477 106.025 310.613 106.529C310.749 107.033 310.817 107.557 310.817 108.101C310.817 108.869 310.693 109.573 310.445 110.213C310.205 110.845 309.829 111.353 309.317 111.737C308.805 112.113 308.145 112.301 307.337 112.301H304.217C304.153 112.301 304.097 112.277 304.049 112.229C304.001 112.181 303.977 112.125 303.977 112.061V104.141C303.977 104.077 304.001 104.021 304.049 103.973C304.097 103.925 304.153 103.901 304.217 103.901H307.337ZM307.217 111.821C307.953 111.821 308.545 111.657 308.993 111.329C309.449 110.993 309.781 110.545 309.989 109.985C310.205 109.417 310.313 108.789 310.313 108.101C310.313 107.613 310.253 107.145 310.133 106.697C310.021 106.249 309.841 105.853 309.593 105.509C309.345 105.157 309.025 104.881 308.633 104.681C308.241 104.481 307.769 104.381 307.217 104.381H304.409L304.481 104.285V111.929L304.409 111.821H307.217ZM315.204 112.421C314.604 112.421 314.072 112.293 313.608 112.037C313.152 111.781 312.792 111.421 312.528 110.957C312.264 110.485 312.132 109.933 312.132 109.301C312.132 108.629 312.26 108.057 312.516 107.585C312.78 107.113 313.116 106.753 313.524 106.505C313.94 106.249 314.38 106.121 314.844 106.121C315.18 106.121 315.508 106.177 315.828 106.289C316.148 106.393 316.432 106.561 316.68 106.793C316.936 107.017 317.14 107.301 317.292 107.645C317.452 107.981 317.54 108.385 317.556 108.857C317.556 108.921 317.532 108.981 317.484 109.037C317.436 109.085 317.38 109.109 317.316 109.109H312.42L312.348 108.653H317.184L317.064 108.761V108.545C317.024 108.121 316.888 107.765 316.656 107.477C316.432 107.189 316.16 106.973 315.84 106.829C315.52 106.677 315.188 106.601 314.844 106.601C314.604 106.601 314.352 106.657 314.088 106.769C313.824 106.873 313.58 107.037 313.356 107.261C313.132 107.477 312.948 107.753 312.804 108.089C312.668 108.425 312.6 108.817 312.6 109.265C312.6 109.753 312.696 110.201 312.888 110.609C313.088 111.017 313.38 111.345 313.764 111.593C314.156 111.841 314.636 111.965 315.204 111.965C315.476 111.965 315.732 111.921 315.972 111.833C316.212 111.737 316.428 111.613 316.62 111.461C316.812 111.309 316.968 111.145 317.088 110.969C317.152 110.897 317.22 110.861 317.292 110.861C317.348 110.861 317.396 110.885 317.436 110.933C317.476 110.973 317.496 111.021 317.496 111.077C317.496 111.133 317.48 111.181 317.448 111.221C317.2 111.541 316.88 111.821 316.488 112.061C316.104 112.301 315.676 112.421 315.204 112.421ZM321.824 106.121C322.184 106.121 322.52 106.161 322.832 106.241C323.152 106.321 323.408 106.429 323.6 106.565C323.8 106.693 323.9 106.829 323.9 106.973C323.9 107.029 323.876 107.085 323.828 107.141C323.788 107.189 323.736 107.213 323.672 107.213C323.584 107.213 323.512 107.189 323.456 107.141C323.408 107.093 323.356 107.037 323.3 106.973C323.244 106.901 323.156 106.837 323.036 106.781C322.924 106.725 322.764 106.677 322.556 106.637C322.356 106.597 322.108 106.577 321.812 106.577C321.348 106.577 320.924 106.697 320.54 106.937C320.156 107.177 319.848 107.501 319.616 107.909C319.392 108.309 319.28 108.761 319.28 109.265C319.28 109.777 319.384 110.237 319.592 110.645C319.808 111.053 320.104 111.377 320.48 111.617C320.864 111.849 321.308 111.965 321.812 111.965C322.172 111.965 322.444 111.933 322.628 111.869C322.82 111.797 322.984 111.721 323.12 111.641C323.288 111.545 323.404 111.453 323.468 111.365C323.532 111.277 323.608 111.233 323.696 111.233C323.76 111.233 323.808 111.253 323.84 111.293C323.88 111.333 323.9 111.385 323.9 111.449C323.9 111.545 323.812 111.673 323.636 111.833C323.46 111.985 323.212 112.121 322.892 112.241C322.58 112.361 322.208 112.421 321.776 112.421C321.192 112.421 320.676 112.285 320.228 112.013C319.78 111.733 319.428 111.357 319.172 110.885C318.924 110.405 318.8 109.865 318.8 109.265C318.8 108.705 318.924 108.189 319.172 107.717C319.428 107.237 319.78 106.853 320.228 106.565C320.684 106.269 321.216 106.121 321.824 106.121Z" fill="#808080"/>
</g>
<path d="M339 100.801L544 100.801" stroke="#6FCA8F"/>
<path d="M6.5 180.801L187.5 180.801" stroke="#E8786B"/>
<g filter="url(#filter2_d_3231_63954)">
<path d="M193.5 169.301C193.5 164.883 197.082 161.301 201.5 161.301H429.5C433.918 161.301 437.5 164.883 437.5 169.301V192.301C437.5 196.719 433.918 200.301 429.5 200.301H201.5C197.082 200.301 193.5 196.719 193.5 192.301V169.301Z" fill="white"/>
<path d="M201.5 161.801H429.5C433.642 161.801 437 165.159 437 169.301V192.301C437 196.443 433.642 199.801 429.5 199.801H201.5C197.358 199.801 194 196.443 194 192.301V169.301C194 165.288 197.151 162.011 201.114 161.811L201.5 161.801Z" stroke="#E5E5E5"/>
<path d="M225.41 182.58C225.269 182.437 225.076 182.356 224.875 182.356C224.674 182.356 224.481 182.437 224.34 182.58L220.94 185.99V176.99C220.94 176.576 220.604 176.24 220.19 176.24C219.776 176.24 219.44 176.576 219.44 176.99V185.99L216.03 182.58C215.841 182.389 215.564 182.314 215.304 182.382C215.043 182.45 214.839 182.653 214.769 182.912C214.698 183.172 214.771 183.449 214.96 183.64L219.66 188.3C219.727 188.371 219.809 188.425 219.9 188.46C219.991 188.5 220.09 188.521 220.19 188.52C220.287 188.521 220.382 188.5 220.47 188.46C220.564 188.425 220.649 188.37 220.72 188.3L225.41 183.61C225.683 183.321 225.683 182.869 225.41 182.58Z" fill="#DE5242"/>
<path d="M214.97 178.02C215.266 178.314 215.744 178.314 216.04 178.02C216.332 177.728 216.332 177.253 216.04 176.96L211.34 172.3C211.273 172.23 211.191 172.176 211.1 172.14C210.916 172.07 210.714 172.07 210.53 172.14C210.438 172.178 210.353 172.232 210.28 172.3L205.59 176.96C205.298 177.253 205.298 177.728 205.59 178.02C205.729 178.163 205.92 178.244 206.12 178.244C206.32 178.244 206.511 178.163 206.65 178.02L210.06 174.61V183.61C210.06 183.878 210.203 184.126 210.435 184.26C210.667 184.394 210.953 184.394 211.185 184.26C211.417 184.126 211.56 183.878 211.56 183.61V174.61L214.97 178.02Z" fill="#DE5242"/>
<path d="M239.724 176.101C240.663 176.101 241.383 176.346 241.884 176.837C242.396 177.317 242.652 177.999 242.652 178.885C242.652 179.354 242.545 179.786 242.332 180.181C242.119 180.575 241.804 180.89 241.388 181.125C240.983 181.359 240.481 181.487 239.884 181.509L239.852 181.061C240.225 181.061 240.609 181.114 241.004 181.221C241.399 181.327 241.761 181.498 242.092 181.733C242.433 181.967 242.705 182.277 242.908 182.661C243.121 183.045 243.228 183.519 243.228 184.085C243.228 184.693 243.127 185.205 242.924 185.621C242.721 186.026 242.449 186.357 242.108 186.613C241.777 186.858 241.404 187.034 240.988 187.141C240.583 187.247 240.172 187.301 239.756 187.301H235.548C235.367 187.301 235.212 187.237 235.084 187.109C234.967 186.981 234.908 186.826 234.908 186.645V176.741C234.908 176.559 234.967 176.41 235.084 176.293C235.212 176.165 235.367 176.101 235.548 176.101H239.724ZM239.532 177.365H236.092L236.284 177.077V181.061L236.108 180.853H239.564C240.033 180.853 240.433 180.703 240.764 180.405C241.105 180.095 241.276 179.642 241.276 179.045C241.276 178.511 241.121 178.101 240.812 177.813C240.503 177.514 240.076 177.365 239.532 177.365ZM239.66 182.133H236.172L236.284 182.021V186.197L236.156 186.053H239.708C240.337 186.053 240.849 185.893 241.244 185.573C241.649 185.253 241.852 184.757 241.852 184.085C241.852 183.562 241.745 183.162 241.532 182.885C241.319 182.597 241.041 182.399 240.7 182.293C240.369 182.186 240.023 182.133 239.66 182.133ZM245.777 187.301C245.596 187.301 245.441 187.237 245.313 187.109C245.196 186.981 245.137 186.826 245.137 186.645V179.669C245.137 179.487 245.196 179.338 245.313 179.221C245.441 179.093 245.596 179.029 245.777 179.029C245.969 179.029 246.124 179.093 246.241 179.221C246.358 179.338 246.417 179.487 246.417 179.669V181.781L246.225 181.445C246.289 181.114 246.401 180.794 246.561 180.485C246.732 180.165 246.945 179.882 247.201 179.637C247.457 179.381 247.75 179.183 248.081 179.045C248.412 178.895 248.774 178.821 249.169 178.821C249.404 178.821 249.617 178.879 249.809 178.997C250.012 179.103 250.113 179.258 250.113 179.461C250.113 179.685 250.054 179.85 249.937 179.957C249.82 180.063 249.686 180.117 249.537 180.117C249.398 180.117 249.265 180.09 249.137 180.037C249.009 179.973 248.849 179.941 248.657 179.941C248.39 179.941 248.124 180.015 247.857 180.165C247.601 180.303 247.361 180.506 247.137 180.773C246.924 181.039 246.748 181.343 246.609 181.685C246.481 182.015 246.417 182.373 246.417 182.757V186.645C246.417 186.826 246.353 186.981 246.225 187.109C246.108 187.237 245.958 187.301 245.777 187.301ZM252.791 186.645C252.791 186.826 252.727 186.981 252.599 187.109C252.482 187.237 252.332 187.301 252.151 187.301C251.959 187.301 251.804 187.237 251.687 187.109C251.57 186.981 251.511 186.826 251.511 186.645V179.541C251.511 179.359 251.57 179.21 251.687 179.093C251.815 178.965 251.97 178.901 252.151 178.901C252.332 178.901 252.482 178.965 252.599 179.093C252.727 179.21 252.791 179.359 252.791 179.541V186.645ZM252.151 177.829C251.884 177.829 251.687 177.775 251.559 177.669C251.431 177.562 251.367 177.397 251.367 177.173V176.949C251.367 176.725 251.436 176.559 251.575 176.453C251.714 176.346 251.911 176.293 252.167 176.293C252.423 176.293 252.615 176.346 252.743 176.453C252.871 176.559 252.935 176.725 252.935 176.949V177.173C252.935 177.397 252.866 177.562 252.727 177.669C252.599 177.775 252.407 177.829 252.151 177.829ZM261.906 175.461C262.088 175.461 262.237 175.525 262.354 175.653C262.482 175.77 262.546 175.919 262.546 176.101V186.645C262.546 186.826 262.482 186.981 262.354 187.109C262.237 187.237 262.088 187.301 261.906 187.301C261.714 187.301 261.56 187.237 261.442 187.109C261.325 186.981 261.266 186.826 261.266 186.645V185.125L261.57 185.013C261.57 185.269 261.49 185.541 261.33 185.829C261.17 186.106 260.952 186.367 260.674 186.613C260.397 186.858 260.066 187.061 259.682 187.221C259.309 187.381 258.904 187.461 258.466 187.461C257.752 187.461 257.101 187.274 256.514 186.901C255.938 186.527 255.48 186.015 255.138 185.365C254.808 184.714 254.642 183.973 254.642 183.141C254.642 182.298 254.808 181.551 255.138 180.901C255.48 180.25 255.938 179.743 256.514 179.381C257.09 179.007 257.73 178.821 258.434 178.821C258.882 178.821 259.304 178.895 259.698 179.045C260.093 179.194 260.434 179.397 260.722 179.653C261.021 179.909 261.256 180.191 261.426 180.501C261.597 180.81 261.682 181.119 261.682 181.429L261.266 181.333V176.101C261.266 175.919 261.325 175.77 261.442 175.653C261.56 175.525 261.714 175.461 261.906 175.461ZM258.61 186.277C259.144 186.277 259.613 186.143 260.018 185.877C260.434 185.599 260.754 185.226 260.978 184.757C261.213 184.277 261.33 183.738 261.33 183.141C261.33 182.533 261.213 181.994 260.978 181.525C260.754 181.055 260.434 180.687 260.018 180.421C259.613 180.143 259.144 180.005 258.61 180.005C258.088 180.005 257.618 180.143 257.202 180.421C256.797 180.687 256.477 181.055 256.242 181.525C256.008 181.994 255.89 182.533 255.89 183.141C255.89 183.727 256.008 184.261 256.242 184.741C256.477 185.21 256.797 185.583 257.202 185.861C257.618 186.138 258.088 186.277 258.61 186.277ZM268.39 178.821C268.849 178.821 269.276 178.901 269.67 179.061C270.065 179.21 270.406 179.407 270.694 179.653C270.993 179.898 271.222 180.154 271.382 180.421C271.553 180.687 271.638 180.938 271.638 181.173L271.334 180.981V179.589C271.334 179.407 271.393 179.258 271.51 179.141C271.628 179.013 271.782 178.949 271.974 178.949C272.156 178.949 272.305 179.013 272.422 179.141C272.55 179.258 272.614 179.407 272.614 179.589V186.597C272.614 187.471 272.428 188.197 272.054 188.773C271.692 189.349 271.201 189.781 270.582 190.069C269.964 190.357 269.27 190.501 268.502 190.501C268.182 190.501 267.83 190.458 267.446 190.373C267.062 190.287 266.721 190.181 266.422 190.053C266.124 189.935 265.932 189.813 265.846 189.685C265.686 189.578 265.585 189.455 265.542 189.317C265.51 189.189 265.537 189.066 265.622 188.949C265.718 188.799 265.841 188.725 265.99 188.725C266.15 188.725 266.348 188.773 266.582 188.869C266.678 188.901 266.828 188.954 267.03 189.029C267.244 189.103 267.478 189.167 267.734 189.221C268.001 189.285 268.262 189.317 268.518 189.317C269.425 189.317 270.118 189.077 270.598 188.597C271.089 188.127 271.334 187.503 271.334 186.725V185.237L271.51 185.317C271.446 185.615 271.313 185.893 271.11 186.149C270.918 186.405 270.678 186.634 270.39 186.837C270.113 187.029 269.804 187.183 269.462 187.301C269.121 187.407 268.774 187.461 268.422 187.461C267.676 187.461 267.004 187.274 266.406 186.901C265.809 186.527 265.334 186.015 264.982 185.365C264.641 184.714 264.47 183.973 264.47 183.141C264.47 182.298 264.641 181.551 264.982 180.901C265.334 180.25 265.804 179.743 266.39 179.381C266.988 179.007 267.654 178.821 268.39 178.821ZM268.55 180.005C268.006 180.005 267.516 180.143 267.078 180.421C266.652 180.687 266.316 181.055 266.07 181.525C265.836 181.994 265.718 182.533 265.718 183.141C265.718 183.727 265.836 184.261 266.07 184.741C266.316 185.21 266.652 185.583 267.078 185.861C267.516 186.138 268.006 186.277 268.55 186.277C269.105 186.277 269.596 186.143 270.022 185.877C270.449 185.599 270.785 185.226 271.03 184.757C271.276 184.287 271.398 183.749 271.398 183.141C271.398 182.522 271.276 181.978 271.03 181.509C270.785 181.039 270.449 180.671 270.022 180.405C269.596 180.138 269.105 180.005 268.55 180.005ZM278.492 187.461C277.639 187.461 276.892 187.279 276.252 186.917C275.612 186.554 275.111 186.058 274.748 185.429C274.396 184.789 274.22 184.053 274.22 183.221C274.22 182.293 274.402 181.503 274.764 180.853C275.138 180.191 275.618 179.69 276.204 179.349C276.802 178.997 277.431 178.821 278.092 178.821C278.583 178.821 279.058 178.911 279.516 179.093C279.975 179.274 280.38 179.541 280.732 179.893C281.084 180.234 281.367 180.65 281.58 181.141C281.794 181.621 281.906 182.159 281.916 182.757C281.916 182.927 281.852 183.071 281.724 183.189C281.596 183.306 281.447 183.365 281.276 183.365H274.956L274.668 182.261H280.828L280.572 182.485V182.133C280.53 181.695 280.38 181.322 280.124 181.013C279.879 180.693 279.575 180.447 279.212 180.277C278.86 180.106 278.487 180.021 278.092 180.021C277.772 180.021 277.452 180.079 277.132 180.197C276.823 180.303 276.54 180.485 276.284 180.741C276.039 180.986 275.836 181.306 275.676 181.701C275.527 182.095 275.452 182.57 275.452 183.125C275.452 183.743 275.575 184.287 275.82 184.757C276.076 185.226 276.428 185.599 276.876 185.877C277.324 186.143 277.847 186.277 278.444 186.277C278.818 186.277 279.143 186.229 279.42 186.133C279.698 186.037 279.938 185.919 280.14 185.781C280.343 185.631 280.514 185.482 280.652 185.333C280.791 185.237 280.924 185.189 281.052 185.189C281.212 185.189 281.34 185.242 281.436 185.349C281.543 185.455 281.596 185.583 281.596 185.733C281.596 185.914 281.511 186.074 281.34 186.213C281.042 186.543 280.636 186.837 280.124 187.093C279.612 187.338 279.068 187.461 278.492 187.461ZM296.102 183.141C296.102 183.973 295.916 184.714 295.543 185.365C295.18 186.015 294.684 186.527 294.055 186.901C293.436 187.274 292.737 187.461 291.959 187.461C291.18 187.461 290.476 187.274 289.847 186.901C289.217 186.527 288.716 186.015 288.343 185.365C287.98 184.714 287.799 183.973 287.799 183.141C287.799 182.309 287.98 181.567 288.343 180.917C288.716 180.266 289.217 179.754 289.847 179.381C290.476 179.007 291.18 178.821 291.959 178.821C292.737 178.821 293.436 179.007 294.055 179.381C294.684 179.754 295.18 180.266 295.543 180.917C295.916 181.567 296.102 182.309 296.102 183.141ZM294.823 183.141C294.823 182.522 294.695 181.978 294.439 181.509C294.193 181.039 293.852 180.671 293.415 180.405C292.988 180.138 292.503 180.005 291.959 180.005C291.415 180.005 290.924 180.138 290.487 180.405C290.06 180.671 289.719 181.039 289.463 181.509C289.207 181.978 289.079 182.522 289.079 183.141C289.079 183.749 289.207 184.287 289.463 184.757C289.719 185.226 290.06 185.599 290.487 185.877C290.924 186.143 291.415 186.277 291.959 186.277C292.503 186.277 292.988 186.143 293.415 185.877C293.852 185.599 294.193 185.226 294.439 184.757C294.695 184.287 294.823 183.749 294.823 183.141ZM302.14 178.821C302.865 178.821 303.436 178.97 303.852 179.269C304.268 179.567 304.561 179.967 304.732 180.469C304.913 180.97 305.004 181.53 305.004 182.149V186.645C305.004 186.826 304.94 186.981 304.812 187.109C304.694 187.237 304.545 187.301 304.364 187.301C304.182 187.301 304.028 187.237 303.9 187.109C303.782 186.981 303.724 186.826 303.724 186.645V182.181C303.724 181.775 303.66 181.413 303.532 181.093C303.414 180.762 303.212 180.501 302.924 180.309C302.646 180.106 302.262 180.005 301.772 180.005C301.324 180.005 300.913 180.106 300.54 180.309C300.166 180.501 299.868 180.762 299.644 181.093C299.42 181.413 299.308 181.775 299.308 182.181V186.645C299.308 186.826 299.244 186.981 299.116 187.109C298.998 187.237 298.849 187.301 298.668 187.301C298.486 187.301 298.332 187.237 298.204 187.109C298.086 186.981 298.028 186.826 298.028 186.645V179.669C298.028 179.487 298.086 179.338 298.204 179.221C298.332 179.093 298.486 179.029 298.668 179.029C298.86 179.029 299.014 179.093 299.132 179.221C299.249 179.338 299.308 179.487 299.308 179.669V180.805L298.988 181.157C299.041 180.879 299.164 180.602 299.356 180.325C299.548 180.037 299.788 179.781 300.076 179.557C300.364 179.333 300.684 179.157 301.036 179.029C301.388 178.89 301.756 178.821 302.14 178.821ZM315.266 187.461C314.476 187.461 313.783 187.343 313.186 187.109C312.588 186.874 312.012 186.501 311.458 185.989C311.383 185.914 311.319 185.834 311.266 185.749C311.223 185.653 311.202 185.551 311.202 185.445C311.202 185.274 311.26 185.125 311.378 184.997C311.506 184.858 311.66 184.789 311.842 184.789C311.991 184.789 312.124 184.847 312.242 184.965C312.658 185.37 313.106 185.679 313.586 185.893C314.076 186.106 314.626 186.213 315.234 186.213C315.703 186.213 316.124 186.138 316.498 185.989C316.882 185.839 317.186 185.631 317.41 185.365C317.634 185.098 317.746 184.789 317.746 184.437C317.735 184.01 317.607 183.658 317.362 183.381C317.127 183.103 316.796 182.874 316.37 182.693C315.954 182.501 315.468 182.341 314.914 182.213C314.423 182.095 313.97 181.951 313.554 181.781C313.148 181.61 312.796 181.402 312.498 181.157C312.199 180.901 311.964 180.597 311.794 180.245C311.634 179.882 311.554 179.461 311.554 178.981C311.554 178.373 311.714 177.839 312.034 177.381C312.354 176.922 312.796 176.57 313.362 176.325C313.927 176.069 314.578 175.941 315.314 175.941C315.964 175.941 316.578 176.047 317.154 176.261C317.74 176.474 318.21 176.767 318.562 177.141C318.775 177.343 318.882 177.541 318.882 177.733C318.882 177.893 318.812 178.042 318.674 178.181C318.546 178.309 318.396 178.373 318.226 178.373C318.108 178.373 318.002 178.33 317.906 178.245C317.724 178.042 317.495 177.861 317.218 177.701C316.94 177.541 316.636 177.413 316.306 177.317C315.975 177.221 315.644 177.173 315.314 177.173C314.823 177.173 314.391 177.247 314.018 177.397C313.644 177.535 313.351 177.738 313.138 178.005C312.935 178.261 312.834 178.57 312.834 178.933C312.834 179.338 312.951 179.674 313.186 179.941C313.42 180.197 313.735 180.41 314.13 180.581C314.524 180.741 314.962 180.885 315.442 181.013C315.964 181.141 316.444 181.29 316.882 181.461C317.33 181.621 317.714 181.823 318.034 182.069C318.354 182.314 318.599 182.629 318.77 183.013C318.951 183.386 319.042 183.85 319.042 184.405C319.042 184.991 318.876 185.514 318.546 185.973C318.215 186.431 317.762 186.794 317.186 187.061C316.62 187.317 315.98 187.45 315.266 187.461ZM327.157 179.029C327.349 179.029 327.504 179.093 327.621 179.221C327.739 179.338 327.797 179.487 327.797 179.669V184.037C327.797 185.114 327.493 185.951 326.885 186.549C326.288 187.135 325.451 187.429 324.373 187.429C323.307 187.429 322.469 187.135 321.861 186.549C321.264 185.951 320.965 185.114 320.965 184.037V179.669C320.965 179.487 321.024 179.338 321.141 179.221C321.269 179.093 321.424 179.029 321.605 179.029C321.797 179.029 321.952 179.093 322.069 179.221C322.187 179.338 322.245 179.487 322.245 179.669V184.037C322.245 184.762 322.432 185.311 322.805 185.685C323.179 186.058 323.701 186.245 324.373 186.245C325.067 186.245 325.595 186.058 325.957 185.685C326.331 185.311 326.517 184.762 326.517 184.037V179.669C326.517 179.487 326.576 179.338 326.693 179.221C326.821 179.093 326.976 179.029 327.157 179.029ZM331.4 186.645C331.4 186.826 331.336 186.981 331.208 187.109C331.091 187.237 330.942 187.301 330.76 187.301C330.568 187.301 330.414 187.237 330.296 187.109C330.179 186.981 330.12 186.826 330.12 186.645V179.541C330.12 179.359 330.179 179.21 330.296 179.093C330.424 178.965 330.579 178.901 330.76 178.901C330.942 178.901 331.091 178.965 331.208 179.093C331.336 179.21 331.4 179.359 331.4 179.541V186.645ZM330.76 177.829C330.494 177.829 330.296 177.775 330.168 177.669C330.04 177.562 329.976 177.397 329.976 177.173V176.949C329.976 176.725 330.046 176.559 330.184 176.453C330.323 176.346 330.52 176.293 330.776 176.293C331.032 176.293 331.224 176.346 331.352 176.453C331.48 176.559 331.544 176.725 331.544 176.949V177.173C331.544 177.397 331.475 177.562 331.336 177.669C331.208 177.775 331.016 177.829 330.76 177.829ZM333.236 185.989C333.14 185.85 333.097 185.706 333.108 185.557C333.118 185.397 333.209 185.258 333.38 185.141C333.486 185.066 333.609 185.034 333.748 185.045C333.897 185.055 334.03 185.125 334.148 185.253C334.446 185.605 334.788 185.887 335.172 186.101C335.556 186.303 336.025 186.405 336.58 186.405C336.836 186.394 337.092 186.351 337.348 186.277C337.604 186.202 337.817 186.074 337.988 185.893C338.169 185.701 338.26 185.45 338.26 185.141C338.26 184.842 338.169 184.607 337.988 184.437C337.806 184.255 337.572 184.111 337.284 184.005C336.996 183.887 336.681 183.786 336.34 183.701C335.988 183.605 335.641 183.498 335.3 183.381C334.958 183.253 334.649 183.098 334.372 182.917C334.105 182.725 333.886 182.49 333.716 182.213C333.556 181.925 333.476 181.578 333.476 181.173C333.476 180.693 333.604 180.277 333.86 179.925C334.126 179.573 334.478 179.301 334.916 179.109C335.364 178.917 335.849 178.821 336.372 178.821C336.67 178.821 336.98 178.858 337.3 178.933C337.63 178.997 337.95 179.114 338.26 179.285C338.569 179.445 338.841 179.669 339.076 179.957C339.172 180.063 339.225 180.197 339.236 180.357C339.246 180.517 339.177 180.661 339.028 180.789C338.91 180.874 338.777 180.911 338.628 180.901C338.489 180.89 338.372 180.837 338.276 180.741C338.052 180.474 337.769 180.271 337.428 180.133C337.097 179.983 336.729 179.909 336.324 179.909C336.068 179.909 335.817 179.946 335.572 180.021C335.326 180.095 335.118 180.223 334.948 180.405C334.788 180.575 334.708 180.815 334.708 181.125C334.718 181.413 334.814 181.647 334.996 181.829C335.177 182.01 335.422 182.159 335.732 182.277C336.041 182.383 336.382 182.49 336.756 182.597C337.097 182.682 337.422 182.783 337.732 182.901C338.052 183.007 338.34 183.151 338.596 183.333C338.852 183.514 339.054 183.749 339.204 184.037C339.353 184.314 339.428 184.666 339.428 185.093C339.428 185.583 339.289 186.01 339.012 186.373C338.734 186.725 338.366 186.997 337.908 187.189C337.46 187.37 336.974 187.461 336.452 187.461C335.865 187.461 335.284 187.349 334.708 187.125C334.142 186.901 333.652 186.522 333.236 185.989ZM351.038 178.885C351.208 178.885 351.352 178.943 351.47 179.061C351.598 179.178 351.662 179.333 351.662 179.525C351.662 179.567 351.656 179.615 351.646 179.669C351.646 179.711 351.635 179.754 351.614 179.797L349.15 186.885C349.096 187.023 349.006 187.13 348.878 187.205C348.76 187.279 348.632 187.311 348.494 187.301C348.248 187.29 348.062 187.151 347.934 186.885L345.918 181.829L346.238 181.877L344.414 186.885C344.296 187.151 344.11 187.29 343.854 187.301C343.715 187.311 343.582 187.279 343.454 187.205C343.326 187.13 343.24 187.023 343.198 186.885L340.686 179.797C340.654 179.701 340.638 179.61 340.638 179.525C340.638 179.354 340.696 179.205 340.814 179.077C340.931 178.949 341.091 178.885 341.294 178.885C341.422 178.885 341.539 178.917 341.646 178.981C341.752 179.045 341.827 179.146 341.87 179.285L344.03 185.589L343.694 185.573L345.566 180.773C345.672 180.506 345.87 180.373 346.158 180.373C346.307 180.373 346.424 180.41 346.51 180.485C346.606 180.549 346.675 180.645 346.718 180.773L348.67 185.573L348.27 185.605L350.43 179.285C350.526 179.018 350.728 178.885 351.038 178.885ZM360.266 178.949C360.447 178.949 360.596 179.013 360.714 179.141C360.842 179.258 360.906 179.407 360.906 179.589V186.645C360.906 186.826 360.842 186.981 360.714 187.109C360.596 187.237 360.447 187.301 360.266 187.301C360.074 187.301 359.919 187.237 359.802 187.109C359.684 186.981 359.626 186.826 359.626 186.645V185.125L359.93 185.093C359.93 185.327 359.85 185.583 359.69 185.861C359.53 186.138 359.311 186.399 359.034 186.645C358.756 186.879 358.426 187.077 358.042 187.237C357.668 187.386 357.263 187.461 356.826 187.461C356.1 187.461 355.45 187.274 354.874 186.901C354.298 186.517 353.839 185.999 353.498 185.349C353.167 184.698 353.002 183.957 353.002 183.125C353.002 182.282 353.167 181.541 353.498 180.901C353.839 180.25 354.298 179.743 354.874 179.381C355.45 179.007 356.09 178.821 356.794 178.821C357.252 178.821 357.679 178.895 358.074 179.045C358.468 179.194 358.81 179.397 359.098 179.653C359.396 179.909 359.626 180.191 359.786 180.501C359.956 180.81 360.042 181.119 360.042 181.429L359.626 181.333V179.589C359.626 179.407 359.684 179.258 359.802 179.141C359.919 179.013 360.074 178.949 360.266 178.949ZM356.97 186.277C357.503 186.277 357.972 186.138 358.378 185.861C358.794 185.583 359.114 185.21 359.338 184.741C359.572 184.261 359.69 183.722 359.69 183.125C359.69 182.538 359.572 182.01 359.338 181.541C359.114 181.061 358.794 180.687 358.378 180.421C357.972 180.143 357.503 180.005 356.97 180.005C356.447 180.005 355.978 180.138 355.562 180.405C355.156 180.671 354.836 181.039 354.602 181.509C354.367 181.978 354.25 182.517 354.25 183.125C354.25 183.722 354.362 184.261 354.586 184.741C354.82 185.21 355.14 185.583 355.546 185.861C355.962 186.138 356.436 186.277 356.97 186.277ZM367.358 178.901C368.083 178.901 368.734 179.082 369.31 179.445C369.886 179.807 370.339 180.309 370.67 180.949C371.011 181.589 371.182 182.325 371.182 183.157C371.182 183.978 371.011 184.714 370.67 185.365C370.339 186.005 369.886 186.511 369.31 186.885C368.744 187.247 368.104 187.429 367.39 187.429C366.995 187.429 366.622 187.37 366.27 187.253C365.928 187.125 365.614 186.965 365.326 186.773C365.048 186.57 364.814 186.346 364.622 186.101C364.43 185.845 364.291 185.594 364.206 185.349L364.558 185.125V189.845C364.558 190.026 364.499 190.181 364.382 190.309C364.264 190.437 364.11 190.501 363.918 190.501C363.736 190.501 363.582 190.437 363.454 190.309C363.336 190.191 363.278 190.037 363.278 189.845V179.621C363.278 179.439 363.336 179.29 363.454 179.173C363.582 179.045 363.736 178.981 363.918 178.981C364.11 178.981 364.264 179.045 364.382 179.173C364.499 179.29 364.558 179.439 364.558 179.621V181.045L364.318 180.917C364.392 180.65 364.52 180.394 364.702 180.149C364.894 179.903 365.123 179.69 365.39 179.509C365.667 179.317 365.971 179.167 366.302 179.061C366.643 178.954 366.995 178.901 367.358 178.901ZM367.214 180.085C366.68 180.085 366.206 180.218 365.79 180.485C365.384 180.751 365.064 181.114 364.83 181.573C364.606 182.031 364.494 182.559 364.494 183.157C364.494 183.743 364.606 184.271 364.83 184.741C365.064 185.21 365.384 185.578 365.79 185.845C366.206 186.111 366.68 186.245 367.214 186.245C367.747 186.245 368.216 186.111 368.622 185.845C369.027 185.578 369.347 185.21 369.582 184.741C369.816 184.271 369.934 183.743 369.934 183.157C369.934 182.559 369.816 182.031 369.582 181.573C369.347 181.114 369.027 180.751 368.622 180.485C368.216 180.218 367.747 180.085 367.214 180.085Z" fill="#4D4D4D"/>
<path d="M381.472 191.221C381.504 191.221 381.536 191.229 381.568 191.245C381.6 191.253 381.64 191.285 381.688 191.341C381.864 191.533 382.076 191.677 382.324 191.773C382.572 191.869 382.852 191.917 383.164 191.917C383.604 191.917 384 191.821 384.352 191.629C384.712 191.437 384.996 191.169 385.204 190.825C385.42 190.481 385.528 190.089 385.528 189.649C385.528 189.137 385.412 188.725 385.18 188.413C384.948 188.093 384.656 187.861 384.304 187.717C383.952 187.565 383.592 187.489 383.224 187.489C383.168 187.489 383.104 187.493 383.032 187.501C382.96 187.501 382.892 187.505 382.828 187.513C382.772 187.521 382.74 187.525 382.732 187.525C382.66 187.525 382.6 187.501 382.552 187.453C382.512 187.405 382.492 187.341 382.492 187.261C382.492 187.229 382.5 187.197 382.516 187.165C382.532 187.133 382.556 187.097 382.588 187.057L385.132 184.273L385.204 184.441H381.34C381.276 184.441 381.22 184.417 381.172 184.369C381.124 184.321 381.1 184.265 381.1 184.201C381.1 184.129 381.124 184.073 381.172 184.033C381.22 183.985 381.276 183.961 381.34 183.961H385.492C385.596 183.961 385.664 183.997 385.696 184.069C385.728 184.133 385.744 184.181 385.744 184.213C385.744 184.245 385.736 184.277 385.72 184.309C385.712 184.333 385.692 184.361 385.66 184.393L383.128 187.177L382.888 187.105C382.888 187.081 382.952 187.057 383.08 187.033C383.216 187.009 383.324 186.997 383.404 186.997C383.828 186.997 384.24 187.093 384.64 187.285C385.048 187.477 385.38 187.769 385.636 188.161C385.9 188.553 386.032 189.049 386.032 189.649C386.032 190.201 385.9 190.685 385.636 191.101C385.372 191.517 385.02 191.841 384.58 192.073C384.148 192.305 383.676 192.421 383.164 192.421C382.82 192.421 382.484 192.361 382.156 192.241C381.828 192.113 381.54 191.917 381.292 191.653C381.268 191.629 381.248 191.605 381.232 191.581C381.224 191.549 381.22 191.517 381.22 191.485C381.22 191.421 381.244 191.361 381.292 191.305C381.34 191.249 381.4 191.221 381.472 191.221ZM390.251 192.421C389.619 192.421 389.095 192.229 388.679 191.845C388.263 191.453 387.951 190.929 387.743 190.273C387.543 189.617 387.443 188.893 387.443 188.101C387.443 187.301 387.543 186.577 387.743 185.929C387.951 185.273 388.263 184.753 388.679 184.369C389.095 183.977 389.619 183.781 390.251 183.781C390.891 183.781 391.415 183.977 391.823 184.369C392.239 184.753 392.547 185.273 392.747 185.929C392.955 186.577 393.059 187.301 393.059 188.101C393.059 188.893 392.955 189.617 392.747 190.273C392.547 190.929 392.239 191.453 391.823 191.845C391.415 192.229 390.891 192.421 390.251 192.421ZM390.251 191.917C390.763 191.917 391.187 191.753 391.523 191.425C391.867 191.097 392.123 190.645 392.291 190.069C392.467 189.493 392.555 188.837 392.555 188.101C392.555 187.357 392.467 186.697 392.291 186.121C392.123 185.545 391.867 185.097 391.523 184.777C391.187 184.449 390.763 184.285 390.251 184.285C389.739 184.285 389.311 184.449 388.967 184.777C388.631 185.097 388.375 185.545 388.199 186.121C388.031 186.697 387.947 187.357 387.947 188.101C387.947 188.837 388.031 189.493 388.199 190.069C388.375 190.645 388.631 191.097 388.967 191.425C389.311 191.753 389.739 191.917 390.251 191.917ZM394.221 186.265H397.005C397.069 186.265 397.121 186.289 397.161 186.337C397.209 186.385 397.233 186.437 397.233 186.493C397.233 186.557 397.209 186.613 397.161 186.661C397.121 186.701 397.069 186.721 397.005 186.721H394.221C394.165 186.721 394.113 186.697 394.065 186.649C394.017 186.601 393.993 186.549 393.993 186.493C393.993 186.429 394.017 186.377 394.065 186.337C394.113 186.289 394.165 186.265 394.221 186.265ZM395.445 184.501C395.517 184.501 395.573 184.525 395.613 184.573C395.661 184.621 395.685 184.677 395.685 184.741V190.993C395.685 191.257 395.717 191.453 395.781 191.581C395.853 191.701 395.941 191.781 396.045 191.821C396.149 191.853 396.249 191.869 396.345 191.869C396.401 191.869 396.449 191.861 396.489 191.845C396.529 191.829 396.577 191.821 396.633 191.821C396.689 191.821 396.737 191.845 396.777 191.893C396.817 191.933 396.837 191.981 396.837 192.037C396.837 192.109 396.789 192.173 396.693 192.229C396.605 192.277 396.493 192.301 396.357 192.301C396.309 192.301 396.221 192.301 396.093 192.301C395.973 192.293 395.841 192.257 395.697 192.193C395.561 192.121 395.445 191.997 395.349 191.821C395.253 191.637 395.205 191.369 395.205 191.017V184.741C395.205 184.677 395.229 184.621 395.277 184.573C395.325 184.525 395.381 184.501 395.445 184.501ZM401.186 186.241C401.666 186.241 402.062 186.345 402.374 186.553C402.694 186.761 402.93 187.041 403.082 187.393C403.242 187.745 403.322 188.133 403.322 188.557V192.061C403.322 192.125 403.298 192.181 403.25 192.229C403.202 192.277 403.146 192.301 403.082 192.301C403.01 192.301 402.95 192.277 402.902 192.229C402.862 192.181 402.842 192.125 402.842 192.061V188.557C402.842 188.213 402.786 187.901 402.674 187.621C402.562 187.341 402.386 187.117 402.146 186.949C401.906 186.781 401.586 186.697 401.186 186.697C400.842 186.697 400.506 186.781 400.178 186.949C399.85 187.117 399.578 187.341 399.362 187.621C399.154 187.901 399.05 188.213 399.05 188.557V192.061C399.05 192.125 399.026 192.181 398.978 192.229C398.93 192.277 398.874 192.301 398.81 192.301C398.738 192.301 398.678 192.277 398.63 192.229C398.59 192.181 398.57 192.125 398.57 192.061V183.661C398.57 183.597 398.594 183.541 398.642 183.493C398.69 183.445 398.746 183.421 398.81 183.421C398.882 183.421 398.938 183.445 398.978 183.493C399.026 183.541 399.05 183.597 399.05 183.661V187.849L398.75 188.425C398.75 188.137 398.822 187.861 398.966 187.597C399.11 187.333 399.298 187.101 399.53 186.901C399.77 186.693 400.034 186.533 400.322 186.421C400.61 186.301 400.898 186.241 401.186 186.241ZM412.107 183.901C412.707 183.901 413.227 184.017 413.667 184.249C414.107 184.473 414.467 184.785 414.747 185.185C415.035 185.577 415.247 186.025 415.383 186.529C415.519 187.033 415.587 187.557 415.587 188.101C415.587 188.869 415.463 189.573 415.215 190.213C414.975 190.845 414.599 191.353 414.087 191.737C413.575 192.113 412.915 192.301 412.107 192.301H408.987C408.923 192.301 408.867 192.277 408.819 192.229C408.771 192.181 408.747 192.125 408.747 192.061V184.141C408.747 184.077 408.771 184.021 408.819 183.973C408.867 183.925 408.923 183.901 408.987 183.901H412.107ZM411.987 191.821C412.723 191.821 413.315 191.657 413.763 191.329C414.219 190.993 414.551 190.545 414.759 189.985C414.975 189.417 415.083 188.789 415.083 188.101C415.083 187.613 415.023 187.145 414.903 186.697C414.791 186.249 414.611 185.853 414.363 185.509C414.115 185.157 413.795 184.881 413.403 184.681C413.011 184.481 412.539 184.381 411.987 184.381H409.179L409.251 184.285V191.929L409.179 191.821H411.987ZM419.973 192.421C419.373 192.421 418.841 192.293 418.377 192.037C417.921 191.781 417.561 191.421 417.297 190.957C417.033 190.485 416.901 189.933 416.901 189.301C416.901 188.629 417.029 188.057 417.285 187.585C417.549 187.113 417.885 186.753 418.293 186.505C418.709 186.249 419.149 186.121 419.613 186.121C419.949 186.121 420.277 186.177 420.597 186.289C420.917 186.393 421.201 186.561 421.449 186.793C421.705 187.017 421.909 187.301 422.061 187.645C422.221 187.981 422.309 188.385 422.325 188.857C422.325 188.921 422.301 188.981 422.253 189.037C422.205 189.085 422.149 189.109 422.085 189.109H417.189L417.117 188.653H421.953L421.833 188.761V188.545C421.793 188.121 421.657 187.765 421.425 187.477C421.201 187.189 420.929 186.973 420.609 186.829C420.289 186.677 419.957 186.601 419.613 186.601C419.373 186.601 419.121 186.657 418.857 186.769C418.593 186.873 418.349 187.037 418.125 187.261C417.901 187.477 417.717 187.753 417.573 188.089C417.437 188.425 417.369 188.817 417.369 189.265C417.369 189.753 417.465 190.201 417.657 190.609C417.857 191.017 418.149 191.345 418.533 191.593C418.925 191.841 419.405 191.965 419.973 191.965C420.245 191.965 420.501 191.921 420.741 191.833C420.981 191.737 421.197 191.613 421.389 191.461C421.581 191.309 421.737 191.145 421.857 190.969C421.921 190.897 421.989 190.861 422.061 190.861C422.117 190.861 422.165 190.885 422.205 190.933C422.245 190.973 422.265 191.021 422.265 191.077C422.265 191.133 422.249 191.181 422.217 191.221C421.969 191.541 421.649 191.821 421.257 192.061C420.873 192.301 420.445 192.421 419.973 192.421ZM426.593 186.121C426.953 186.121 427.289 186.161 427.601 186.241C427.921 186.321 428.177 186.429 428.369 186.565C428.569 186.693 428.669 186.829 428.669 186.973C428.669 187.029 428.645 187.085 428.597 187.141C428.557 187.189 428.505 187.213 428.441 187.213C428.353 187.213 428.281 187.189 428.225 187.141C428.177 187.093 428.125 187.037 428.069 186.973C428.013 186.901 427.925 186.837 427.805 186.781C427.693 186.725 427.533 186.677 427.325 186.637C427.125 186.597 426.877 186.577 426.581 186.577C426.117 186.577 425.693 186.697 425.309 186.937C424.925 187.177 424.617 187.501 424.385 187.909C424.161 188.309 424.049 188.761 424.049 189.265C424.049 189.777 424.153 190.237 424.361 190.645C424.577 191.053 424.873 191.377 425.249 191.617C425.633 191.849 426.077 191.965 426.581 191.965C426.941 191.965 427.213 191.933 427.397 191.869C427.589 191.797 427.753 191.721 427.889 191.641C428.057 191.545 428.173 191.453 428.237 191.365C428.301 191.277 428.377 191.233 428.465 191.233C428.529 191.233 428.577 191.253 428.609 191.293C428.649 191.333 428.669 191.385 428.669 191.449C428.669 191.545 428.581 191.673 428.405 191.833C428.229 191.985 427.981 192.121 427.661 192.241C427.349 192.361 426.977 192.421 426.545 192.421C425.961 192.421 425.445 192.285 424.997 192.013C424.549 191.733 424.197 191.357 423.941 190.885C423.693 190.405 423.569 189.865 423.569 189.265C423.569 188.705 423.693 188.189 423.941 187.717C424.197 187.237 424.549 186.853 424.997 186.565C425.453 186.269 425.985 186.121 426.593 186.121Z" fill="#808080"/>
</g>
<path d="M443.5 180.801H647.53" stroke="#E8786B"/>
<defs>
<filter id="filter0_d_3231_63954" x="192.7" y="0.000781059" width="216.6" height="51.6" filterUnits="userSpaceOnUse" color-interpolation-filters="sRGB">
<feFlood flood-opacity="0" result="BackgroundImageFix"/>
<feColorMatrix in="SourceAlpha" type="matrix" values="0 0 0 0 0 0 0 0 0 0 0 0 0 0 0 0 0 0 127 0" result="hardAlpha"/>
<feOffset dy="5"/>
<feGaussianBlur stdDeviation="3.15"/>
<feComposite in2="hardAlpha" operator="out"/>
<feColorMatrix type="matrix" values="0 0 0 0 0.441667 0 0 0 0 0.441667 0 0 0 0 0.441667 0 0 0 0.12 0"/>
<feBlend mode="normal" in2="BackgroundImageFix" result="effect1_dropShadow_3231_63954"/>
<feBlend mode="normal" in="SourceGraphic" in2="effect1_dropShadow_3231_63954" result="shape"/>
</filter>
<filter id="filter1_d_3231_63954" x="121.7" y="80.0008" width="217.6" height="51.6" filterUnits="userSpaceOnUse" color-interpolation-filters="sRGB">
<feFlood flood-opacity="0" result="BackgroundImageFix"/>
<feColorMatrix in="SourceAlpha" type="matrix" values="0 0 0 0 0 0 0 0 0 0 0 0 0 0 0 0 0 0 127 0" result="hardAlpha"/>
<feOffset dy="5"/>
<feGaussianBlur stdDeviation="3.15"/>
<feComposite in2="hardAlpha" operator="out"/>
<feColorMatrix type="matrix" values="0 0 0 0 0.441667 0 0 0 0 0.441667 0 0 0 0 0.441667 0 0 0 0.12 0"/>
<feBlend mode="normal" in2="BackgroundImageFix" result="effect1_dropShadow_3231_63954"/>
<feBlend mode="normal" in="SourceGraphic" in2="effect1_dropShadow_3231_63954" result="shape"/>
</filter>
<filter id="filter2_d_3231_63954" x="187.2" y="160.001" width="256.6" height="51.6" filterUnits="userSpaceOnUse" color-interpolation-filters="sRGB">
<feFlood flood-opacity="0" result="BackgroundImageFix"/>
<feColorMatrix in="SourceAlpha" type="matrix" values="0 0 0 0 0 0 0 0 0 0 0 0 0 0 0 0 0 0 127 0" result="hardAlpha"/>
<feOffset dy="5"/>
<feGaussianBlur stdDeviation="3.15"/>
<feComposite in2="hardAlpha" operator="out"/>
<feColorMatrix type="matrix" values="0 0 0 0 0.441667 0 0 0 0 0.441667 0 0 0 0 0.441667 0 0 0 0.12 0"/>
<feBlend mode="normal" in2="BackgroundImageFix" result="effect1_dropShadow_3231_63954"/>
<feBlend mode="normal" in="SourceGraphic" in2="effect1_dropShadow_3231_63954" result="shape"/>
</filter>
</defs>
</svg>
