<svg width="155" height="231" viewBox="0 0 155 231" fill="none" xmlns="http://www.w3.org/2000/svg">
<path d="M40.1852 86.6751C40.0846 87.6092 39.9501 88.5295 39.7833 89.4329C37.5168 101.71 29.2824 110.884 19.0055 109.777C13.7046 109.206 9.40788 106.179 6.53683 101.675C3.43219 96.8057 1.99462 90.2102 2.75707 83.1293C4.10518 70.6094 11.8621 60.9269 21.6684 60.3548C22.5372 60.3041 23.422 60.3249 24.3199 60.4216C31.493 61.194 36.6654 66.2982 39.0032 73.5205C40.2613 77.407 40.6986 81.9068 40.1852 86.6751Z" fill="#FEF0BB"/>
<path fill-rule="evenodd" clip-rule="evenodd" d="M19.0055 109.777C13.7046 109.206 9.40788 106.179 6.53683 101.675C8.41497 116.349 15.3337 126.52 24.8202 132.99C62.2974 145.867 96.1295 128.465 105.979 95.9396C104.575 95.9346 102.747 95.8415 101.604 95.7658C98.7754 107.455 88.8084 116.441 71.7031 115.435C56.1494 113.745 48.8009 101.489 47.9577 89.4329C46.6114 87.2031 40.5791 87.8863 39.7833 89.4329C37.5168 101.71 29.2824 110.884 19.0055 109.777ZM34.2755 122.162C38.6093 125.314 52.7923 126.102 59.4899 118.222C57.914 126.496 40.1852 132.011 34.2755 122.162Z" fill="#FBC407"/>
<path d="M51.6754 73.5205C49.7585 76.5394 48.4518 79.928 48.0646 83.5233C47.8566 85.4554 47.8184 87.4414 47.9577 89.4329C48.8009 101.489 56.1494 113.745 71.7031 115.435C88.8084 116.441 98.7754 107.455 101.604 95.7658C102.098 93.7243 102.374 91.6004 102.433 89.4329C102.433 85.699 101.976 82.4466 101.174 79.6129C96.8132 64.2088 82.2368 61.1756 75.2488 60.4232C67.1262 59.5485 57.025 65.095 51.6754 73.5205Z" fill="#FFEFBA"/>
<path d="M21.6684 60.3548C22.5372 60.3041 23.422 60.3249 24.3199 60.4216C31.493 61.194 36.6654 66.2982 39.0032 73.5205H51.6754C57.025 65.095 67.1262 59.5485 75.2488 60.4232C82.2368 61.1756 96.8132 64.2088 101.174 79.6129C102.039 78.8249 106.767 78.9825 108.343 79.6129C109.434 80.0494 114.051 82.0222 118.271 83.9357C115.678 68.6649 105.776 56.1967 96.1295 51.2466C87.1771 46.6527 74.6136 44.049 58.7019 44.7807C58.4393 47.5925 57.52 53.216 55.9441 53.216C54.3682 53.216 54.2369 47.7765 54.3682 45.0567C53.459 45.1304 52.5397 45.2145 51.6104 45.3093C49.1263 45.5628 46.7584 46.0112 44.5189 46.6035C41.9849 47.2736 39.6152 48.1278 37.4273 49.092C29.5273 52.5739 23.9985 57.4906 21.6684 60.3548Z" fill="#FFCF0F"/>
<path d="M90.2198 135.069C97.7643 131.561 104.134 126.88 108.343 121.346C113.527 114.53 116.57 107.588 117.975 100.835C114.084 98.7663 108.22 95.4948 107.949 95.7658C107.815 95.8994 107.012 95.9433 105.979 95.9396C96.1295 128.465 62.2974 145.867 24.8202 132.99C26.576 134.187 28.4198 135.258 30.3358 136.207C33.0239 137.539 35.8543 138.63 38.7836 139.497C46.6928 141.836 55.3234 142.532 63.8236 141.86C73.1555 141.123 82.3301 138.737 90.2198 135.069Z" fill="#EF9D00"/>
<path d="M38.7836 139.497C40.3014 145.538 44.0461 157.856 46.8827 158.802C49.7193 159.747 59.3586 147.901 63.8236 141.86C55.3234 142.532 46.6928 141.836 38.7836 139.497Z" fill="#F8BA06"/>
<path d="M91.7957 136.871C91.2363 136.214 90.708 135.611 90.2198 135.069C82.3301 138.737 73.1555 141.123 63.8236 141.86C59.3586 147.901 49.7193 159.747 46.8827 158.802C44.0461 157.856 40.3014 145.538 38.7836 139.497C35.8543 138.63 33.0239 137.539 30.3358 136.207C22.8316 142.992 13.6335 154.209 8.52108 167.075C14.5511 170.507 30.9614 175.642 56.9341 175.907L57.914 159.984H67.7633L66.5814 175.349H74.4609V175.376C78.6778 175.086 83.0811 174.673 87.6686 174.117C88.5697 174.008 89.4779 173.893 90.3932 173.773C90.2223 172.324 90.1483 170.87 90.2198 169.439C89.6174 169.138 87.0477 166.893 85.6749 165.663C87.3968 167.326 87.589 170.94 87.462 172.591C82.4893 171.293 78.7603 162.403 79.5826 153.862C80.2586 146.84 84.0113 140.054 92.6789 137.921C92.3771 137.558 92.0823 137.207 91.7957 136.871Z" fill="#57370F"/>
<path d="M60.6718 162.741H64.6115L63.9387 175.861C67.3057 175.784 70.8136 175.626 74.4609 175.376V175.349H66.5814L67.7633 159.984H57.914L56.9341 175.907C57.9032 175.917 58.8856 175.92 59.8813 175.916L60.6718 162.741Z" fill="#57370F"/>
<path d="M71.7031 178.106H63.8236L63.9387 175.861C62.5627 175.893 61.2102 175.911 59.8813 175.916L59.4899 182.44H71.7031V178.106Z" fill="#FDC608"/>
<path d="M64.6115 162.741H60.6718L59.8813 175.916C61.2102 175.911 62.5627 175.893 63.9387 175.861L64.6115 162.741Z" fill="#FDC608"/>
<path d="M63.8236 178.106H71.7031V182.44H59.4899L59.8813 175.916C58.8856 175.92 57.9032 175.917 56.9341 175.907L56.3381 185.592H74.4609V175.376C70.8136 175.626 67.3057 175.784 63.9387 175.861L63.8236 178.106Z" fill="#57370F"/>
<path d="M6.26996 197.367C7.277 200.702 8.77543 204.013 10.8473 207.26C17.6016 211.718 33.2087 217.22 55.1562 215.965C59.5687 213.789 60.6718 206.688 60.6718 203.409C37.8375 204.565 16.6747 200.539 6.26996 197.367Z" fill="#FCC305"/>
<path d="M114.732 197.367C115.036 199.481 114.752 201.772 113.476 203.984C117.898 200.224 121.758 196.484 124.89 193.077C122.352 194.467 118.48 196.263 114.732 197.367Z" fill="#57370F"/>
<path d="M108.737 188.744L94.5893 202.086C94.6658 202.215 94.7106 202.399 94.795 202.533C95.5046 203.656 96.4873 204.927 97.6743 206.078C100.048 208.381 103.238 210.206 106.692 209.411C109.072 207.621 111.339 205.8 113.476 203.984C114.752 201.772 115.036 199.481 114.732 197.367C114.088 192.889 110.807 189.204 108.737 188.744Z" fill="#57370F"/>
<path d="M108.737 188.744C109.525 187.168 110.864 181.179 109.919 169.833C109.844 168.943 109.699 168.022 109.49 167.075C108.568 162.889 106.417 158.217 103.789 153.68C102.384 151.255 100.843 148.868 99.2812 146.615C97.0073 143.336 94.6884 140.341 92.6789 137.921C84.0113 140.054 80.2586 146.84 79.5826 153.862C88.644 146.982 102.827 161.165 99.6752 184.803C98.6607 188.545 96.3504 191.436 94.0584 195.834C94.0627 196.35 94.0716 196.865 94.086 197.367C94.1383 199.18 94.2634 200.829 94.5084 201.803C94.534 201.905 94.561 201.999 94.5893 202.086L108.737 188.744Z" fill="#E69800"/>
<path d="M92.2712 182.44C93.157 185.601 94.0202 188.369 94.1596 190.32C94.0954 191.749 94.0415 193.806 94.0584 195.834C96.3504 191.436 98.6607 188.545 99.6752 184.803C102.827 161.165 88.644 146.982 79.5826 153.862C78.7603 162.403 82.4893 171.293 87.462 172.591C87.589 170.94 87.3968 167.326 85.6749 165.663C85.6113 165.606 85.5503 165.552 85.4922 165.499C85.5549 165.551 85.6158 165.606 85.6749 165.663C87.0477 166.893 89.6174 169.138 90.2198 169.439C90.1483 170.87 90.2223 172.324 90.3932 173.773C90.7472 176.774 91.5174 179.75 92.2712 182.44Z" fill="#FCC402"/>
<path d="M124.102 134.375C114.331 141.94 103.484 145.687 99.2812 146.615C100.843 148.868 102.384 151.255 103.789 153.68C112.754 149.898 121.066 139.234 124.102 134.375Z" fill="#FDCC33"/>
<path d="M149.71 118.222C142.461 101.833 108.08 123.826 91.7957 136.871C92.0823 137.207 92.3771 137.558 92.6789 137.921C94.6884 140.341 97.0073 143.336 99.2812 146.615C103.484 145.687 114.331 141.94 124.102 134.375C121.066 139.234 112.754 149.898 103.789 153.68C106.417 158.217 108.568 162.889 109.49 167.075C112.608 167.075 117.01 166.681 125.677 163.529C137.629 159.183 158.771 138.709 149.71 118.222Z" fill="#FCE687"/>
<path fill-rule="evenodd" clip-rule="evenodd" d="M100.857 213.574C77.984 229.026 47.2633 239.713 22.4563 219.868C17.4264 215.844 13.6224 211.61 10.8473 207.26C17.6016 211.718 33.2087 217.22 55.1562 215.965C66.0644 215.341 78.5389 213.048 92.2712 208.127C94.2903 210.585 98.0993 213.563 100.857 213.574Z" fill="#57370F"/>
<path d="M106.692 209.411C103.238 210.206 100.048 208.381 97.6743 206.078C95.8525 206.807 94.0513 207.489 92.2712 208.127C94.2903 210.585 98.0993 213.563 100.857 213.574C102.866 212.218 104.814 210.824 106.692 209.411Z" fill="#452B0B"/>
<path fill-rule="evenodd" clip-rule="evenodd" d="M92.2712 208.127C90.2521 206.614 89.7997 201.221 89.8259 198.714C80.2664 201.508 70.3199 202.921 60.6718 203.409C60.6718 206.688 59.5687 213.789 55.1562 215.965C66.0644 215.341 78.5389 213.048 92.2712 208.127Z" fill="#E6A30C"/>
<path d="M97.6743 206.078C96.4873 204.927 95.5046 203.656 94.795 202.533C94.7196 202.426 94.6512 202.275 94.5893 202.086C94.561 201.999 94.534 201.905 94.5084 201.803C94.2634 200.829 94.1383 199.18 94.086 197.367C92.6762 197.848 91.2553 198.296 89.8259 198.714C89.7997 201.221 90.2521 206.614 92.2712 208.127C94.0513 207.489 95.8525 206.807 97.6743 206.078Z" fill="#57370F"/>
<path fill-rule="evenodd" clip-rule="evenodd" d="M89.8259 198.714C90.4562 197.236 89.5632 187.745 89.0379 183.199C48.1086 192.386 16.3226 183.737 5.33246 178.106C4.2137 184.43 4.33109 190.944 6.26996 197.367C16.6747 200.539 37.8375 204.565 60.6718 203.409C70.3199 202.921 80.2664 201.508 89.8259 198.714Z" fill="#57370F"/>
<path d="M94.1596 190.32C94.0202 188.369 93.157 185.601 92.2712 182.44C91.1873 182.705 90.1095 182.958 89.0379 183.199C89.5632 187.745 90.4562 197.236 89.8259 198.714C91.2553 198.296 92.6762 197.848 94.086 197.367C94.0716 196.865 94.0627 196.35 94.0584 195.834C94.0415 193.806 94.0954 191.749 94.1596 190.32Z" fill="#452B0B"/>
<path fill-rule="evenodd" clip-rule="evenodd" d="M56.3381 185.592H74.4609V175.376C78.6778 175.086 83.0811 174.673 87.6686 174.117C87.731 176.346 88.0924 181.284 89.0379 183.199C48.1086 192.386 16.3226 183.737 5.33246 178.106C5.99844 174.342 7.10247 170.645 8.52108 167.075C14.5511 170.507 30.9614 175.642 56.9341 175.907L56.3381 185.592Z" fill="#FCC305"/>
<path d="M92.2712 182.44C91.5174 179.75 90.7472 176.774 90.3932 173.773C89.4779 173.893 88.5697 174.008 87.6686 174.117C87.731 176.346 88.0924 181.284 89.0379 183.199C90.1095 182.958 91.1873 182.705 92.2712 182.44Z" fill="#57370F"/>
<path d="M101.174 79.6129C101.976 82.4466 102.433 85.699 102.433 89.4329C102.374 91.6004 102.098 93.7243 101.604 95.7658C102.747 95.8415 104.575 95.9346 105.979 95.9396C107.012 95.9433 107.815 95.8994 107.949 95.7658C108.22 95.4948 114.084 98.7663 117.975 100.835C119.19 94.9925 119.18 89.2917 118.271 83.9357C114.051 82.0222 109.434 80.0494 108.343 79.6129C106.767 78.9825 102.039 78.8249 101.174 79.6129Z" fill="#402B09"/>
<path d="M39.0032 73.5205C40.2613 77.407 40.6986 81.9068 40.1852 86.6751C40.0846 87.6092 39.9501 88.5295 39.7833 89.4329C40.5791 87.8863 46.6114 87.2031 47.9577 89.4329C47.8184 87.4414 47.8566 85.4554 48.0646 83.5233C48.4518 79.928 49.7585 76.5394 51.6754 73.5205H39.0032Z" fill="#432E09"/>
<path d="M121.344 102.463C121.974 102.463 123.314 91.8261 123.314 86.3104C121.94 85.6238 120.145 84.7856 118.271 83.9357C119.18 89.2917 119.19 94.9925 117.975 100.835C119.739 101.773 121.098 102.463 121.344 102.463Z" fill="#402B09"/>
<path d="M34.2755 122.162C38.6093 125.314 52.7923 126.102 59.4899 118.222C57.914 126.496 40.1852 132.011 34.2755 122.162Z" fill="#3B2E2A"/>
<path d="M83.1283 3.57592C59.8051 2.3152 54.2369 30.7045 54.3682 45.0567C55.8393 44.9376 57.2839 44.8459 58.7019 44.7807C61.293 23.2799 82.9575 13.4733 85.0982 12.6367C89.4319 11.0608 88.25 3.85277 83.1283 3.57592Z" fill="#422C0A"/>
<path d="M36.6394 29.9715C40.1064 40.3725 38.6093 47.0523 37.4273 49.092C39.6152 48.1278 41.9849 47.2736 44.5189 46.6035C44.9128 21.0805 31.9117 5.1512 30.3358 3.18133C28.7599 1.21146 24.3199 -1.94033 21.2744 1.60543C18.2289 5.1512 21.6684 9.48491 24.3199 11.4548C26.9715 13.4246 32.3057 16.9704 36.6394 29.9715Z" fill="#412B09"/>
<path d="M58.7019 44.7807C57.2839 44.8459 55.8393 44.9376 54.3682 45.0567C54.2369 47.7765 54.3682 53.216 55.9441 53.216C57.52 53.216 58.4393 47.5925 58.7019 44.7807Z" fill="#442F0D"/>
<path d="M21.476 60.2491C11.6697 60.8212 3.91279 70.5036 2.56469 83.0236C1.80224 90.1045 3.2398 96.7 6.34444 101.57M21.476 60.2491C22.3448 60.1984 23.2296 60.2192 24.1276 60.3159C35.1607 61.5039 41.4603 72.9402 39.9928 86.5693C38.5252 100.198 29.8462 110.859 18.8131 109.671C13.5122 109.101 9.2155 106.073 6.34444 101.57M21.476 60.2491C25.0218 55.8905 35.9742 46.7795 51.418 45.2036C70.7227 43.2337 85.6937 45.8846 95.9371 51.1408C112.878 59.8341 130.607 91.7143 108.15 121.241C103.942 126.774 97.5719 131.455 90.0275 134.963M6.34444 101.57C8.57021 118.959 17.8751 130.025 30.1434 136.101M30.1434 136.101C12.8086 151.775 -13.0361 190.45 22.2639 219.762C57.564 249.074 125.091 192.578 125.091 192.578C125.091 192.578 118.288 196.157 114.539 197.261M30.1434 136.101C32.6573 137.347 35.2956 138.382 38.0229 139.22M90.0275 134.963C90.5156 135.505 91.0439 136.109 91.6034 136.765M90.0275 134.963C82.1378 138.631 72.9632 141.017 63.6312 141.754M108.544 188.638C109.332 187.062 110.672 181.074 109.726 169.727C109.652 168.838 109.506 167.916 109.298 166.969M108.544 188.638L94.3612 202.033C96.8563 206.235 103.58 213.143 110.514 207.155C114.12 204.041 114.998 200.45 114.539 197.261M108.544 188.638C110.615 189.098 113.895 192.783 114.539 197.261M91.6034 136.765C107.888 123.72 142.268 101.727 149.518 118.117C158.579 138.603 137.437 159.077 125.485 163.424C116.818 166.575 112.415 166.969 109.298 166.969M91.6034 136.765C97.5625 143.759 107.057 156.799 109.298 166.969M38.0229 139.22C39.8614 145.581 44.1689 158.381 46.6903 158.696C49.2118 159.011 59.0348 147.533 63.6312 141.754M38.0229 139.22C46.0859 141.696 54.927 142.442 63.6312 141.754M102.241 89.3271C101.847 103.906 91.6034 116.511 71.5107 115.329C53.3879 113.36 46.4047 97.0467 47.8723 83.4175C49.3398 69.7884 64.0234 59.1294 75.0565 60.3174C83.3299 61.2083 102.241 65.2963 102.241 89.3271Z" stroke="#402B09" stroke-width="4.72769" stroke-linejoin="round"/>
<ellipse cx="28.7601" cy="85.913" rx="8.27345" ry="14.577" fill="#432B0B"/>
<ellipse cx="78.7944" cy="87.4911" rx="11.0313" ry="14.577" fill="#432B0B"/>
<ellipse cx="26.3961" cy="79.6138" rx="2.75782" ry="5.12166" fill="#FCF0BB"/>
<ellipse cx="75.6426" cy="81.19" rx="3.93974" ry="5.12166" fill="#FCF0BB"/>
</svg>
