<svg width="246" height="266" viewBox="0 0 246 266" fill="none" xmlns="http://www.w3.org/2000/svg">
<path d="M93.0029 8.03128C111.55 -2.67692 134.401 -2.67692 152.948 8.03128L215.979 44.4218C234.526 55.13 245.951 74.9196 245.951 96.336V169.117C245.951 190.534 234.526 210.323 215.979 221.031L152.948 257.422C134.401 268.13 111.55 268.13 93.0029 257.422L29.9726 221.031C11.4255 210.323 -2.28882e-05 190.534 -2.28882e-05 169.117V96.336C-2.28882e-05 74.9196 11.4255 55.13 29.9726 44.4218L93.0029 8.03128Z" fill="#F6FAFE"/>
<path d="M103.346 51.0599C115.493 44.0468 130.458 44.0468 142.606 51.0599L183.886 74.8932C196.033 81.9063 203.516 94.8671 203.516 108.893V156.56C203.516 170.586 196.033 183.547 183.886 190.56L142.606 214.393C130.458 221.406 115.493 221.406 103.346 214.393L62.0652 190.56C49.9181 183.547 42.4352 170.586 42.4352 156.56V108.893C42.4352 94.8671 49.9181 81.9063 62.0652 74.8932L103.346 51.0599Z" fill="#D6E8FD"/>
<path d="M112.844 90.576C119.113 86.9564 126.838 86.9564 133.107 90.576L154.413 102.877C160.683 106.497 164.545 113.186 164.545 120.426V145.028C164.545 152.267 160.683 158.956 154.413 162.576L133.107 174.877C126.838 178.497 119.113 178.497 112.844 174.877L91.538 162.576C85.2685 158.956 81.4064 152.267 81.4064 145.028V120.426C81.4064 113.186 85.2685 106.497 91.538 102.877L112.844 90.576Z" fill="#BBDCFC"/>
<path d="M118.965 116.042C121.447 114.609 124.504 114.609 126.986 116.042L135.42 120.911C137.901 122.344 139.43 124.992 139.43 127.857V137.596C139.43 140.461 137.901 143.109 135.42 144.542L126.986 149.411C124.504 150.844 121.447 150.844 118.965 149.411L110.532 144.542C108.05 143.109 106.521 140.461 106.521 137.596V127.857C106.521 124.992 108.05 122.344 110.532 120.911L118.965 116.042Z" fill="#D6E8FD" stroke="#4C8EF2" stroke-width="2"/>
<path d="M126.976 138.977L132.976 132.977L126.976 126.977" stroke="#4C8EF2" stroke-width="1.5" stroke-linecap="round" stroke-linejoin="round"/>
<path d="M118.976 126.977L112.976 132.977L118.976 138.977" stroke="#4C8EF2" stroke-width="1.5" stroke-linecap="round" stroke-linejoin="round"/>
</svg>
