<svg width="246" height="266" viewBox="0 0 246 266" fill="none" xmlns="http://www.w3.org/2000/svg">
<path d="M93.0029 8.03128C111.55 -2.67692 134.401 -2.67692 152.948 8.03128L215.979 44.4218C234.526 55.13 245.951 74.9196 245.951 96.336V169.117C245.951 190.534 234.526 210.323 215.979 221.031L152.948 257.422C134.401 268.13 111.55 268.13 93.0029 257.422L29.9726 221.031C11.4255 210.323 -2.28882e-05 190.534 -2.28882e-05 169.117V96.336C-2.28882e-05 74.9196 11.4255 55.13 29.9726 44.4218L93.0029 8.03128Z" fill="#F8FEF9"/>
<path d="M103.346 51.0599C115.493 44.0468 130.458 44.0468 142.606 51.0599L183.886 74.8932C196.033 81.9063 203.516 94.8671 203.516 108.893V156.56C203.516 170.586 196.033 183.547 183.886 190.56L142.606 214.393C130.458 221.406 115.493 221.406 103.346 214.393L62.0652 190.56C49.9181 183.547 42.4352 170.586 42.4352 156.56V108.893C42.4352 94.8671 49.9181 81.9063 62.0652 74.8932L103.346 51.0599Z" fill="#E1F9E7"/>
<path d="M112.844 90.576C119.113 86.9564 126.838 86.9564 133.107 90.576L154.413 102.877C160.683 106.497 164.545 113.186 164.545 120.426V145.028C164.545 152.267 160.683 158.956 154.413 162.576L133.107 174.877C126.838 178.497 119.113 178.497 112.844 174.877L91.538 162.576C85.2685 158.956 81.4064 152.267 81.4064 145.028V120.426C81.4064 113.186 85.2685 106.497 91.538 102.877L112.844 90.576Z" fill="#AFE2BE"/>
<path d="M118.965 116.042C121.447 114.609 124.504 114.609 126.986 116.042L135.42 120.911C137.901 122.344 139.43 124.992 139.43 127.857V137.596C139.43 140.461 137.901 143.109 135.42 144.542L126.986 149.411C124.504 150.844 121.447 150.844 118.965 149.411L110.532 144.542C108.05 143.109 106.521 140.461 106.521 137.596V127.857C106.521 124.992 108.05 122.344 110.532 120.911L118.965 116.042Z" fill="#E1F9E7" stroke="#53AF70" stroke-width="2"/>
<path d="M116.176 131.737H120.976C121.39 131.737 121.726 131.402 121.726 130.987C121.726 130.573 121.39 130.237 120.976 130.237H114.366C114.266 130.237 114.167 130.257 114.076 130.297C113.891 130.376 113.744 130.523 113.666 130.707C113.65 130.8 113.65 130.895 113.666 130.987V137.617C113.666 138.032 114.001 138.367 114.416 138.367C114.83 138.367 115.166 138.032 115.166 137.617V132.797L121.506 139.137C121.645 139.28 121.836 139.359 122.036 139.357C122.235 139.358 122.426 139.279 122.566 139.137C122.858 138.845 122.858 138.37 122.566 138.077L116.176 131.737Z" fill="#53AF70"/>
<path d="M132.336 128.327C132.336 127.913 132 127.577 131.586 127.577C131.171 127.577 130.836 127.913 130.836 128.327V133.157L124.496 126.817C124.356 126.674 124.165 126.594 123.966 126.594C123.766 126.594 123.575 126.674 123.436 126.817C123.143 127.11 123.143 127.585 123.436 127.877L129.776 134.217H124.976C124.561 134.217 124.226 134.553 124.226 134.967C124.226 135.382 124.561 135.717 124.976 135.717H131.606C131.705 135.718 131.804 135.697 131.896 135.657C132.08 135.578 132.227 135.432 132.306 135.247C132.337 135.157 132.354 135.063 132.356 134.967L132.336 128.327Z" fill="#53AF70"/>
</svg>
