<svg width="246" height="266" viewBox="0 0 246 266" fill="none" xmlns="http://www.w3.org/2000/svg">
<path d="M93.0029 8.03128C111.55 -2.67692 134.401 -2.67692 152.948 8.03128L215.979 44.4218C234.526 55.13 245.951 74.9196 245.951 96.336V169.117C245.951 190.534 234.526 210.323 215.979 221.031L152.948 257.422C134.401 268.13 111.55 268.13 93.0029 257.422L29.9726 221.031C11.4255 210.323 -2.28882e-05 190.534 -2.28882e-05 169.117V96.336C-2.28882e-05 74.9196 11.4255 55.13 29.9726 44.4218L93.0029 8.03128Z" fill="#FFFBEA"/>
<path d="M103.346 51.0599C115.493 44.0468 130.458 44.0468 142.606 51.0599L183.886 74.8932C196.033 81.9063 203.516 94.8671 203.516 108.893V156.56C203.516 170.586 196.033 183.547 183.886 190.56L142.606 214.393C130.458 221.406 115.493 221.406 103.346 214.393L62.0652 190.56C49.9181 183.547 42.4352 170.586 42.4352 156.56V108.893C42.4352 94.8671 49.9181 81.9063 62.0652 74.8932L103.346 51.0599Z" fill="#FFF2BD"/>
<path d="M112.844 90.576C119.113 86.9564 126.838 86.9564 133.107 90.576L154.413 102.877C160.683 106.497 164.545 113.186 164.545 120.426V145.028C164.545 152.267 160.683 158.956 154.413 162.576L133.107 174.877C126.838 178.497 119.113 178.497 112.844 174.877L91.538 162.576C85.2685 158.956 81.4064 152.267 81.4064 145.028V120.426C81.4064 113.186 85.2685 106.497 91.538 102.877L112.844 90.576Z" fill="#FFEC9D"/>
<path d="M118.965 116.042C121.447 114.609 124.504 114.609 126.986 116.042L135.42 120.911C137.901 122.344 139.43 124.992 139.43 127.857V137.596C139.43 140.461 137.901 143.109 135.42 144.542L126.986 149.411C124.504 150.844 121.447 150.844 118.965 149.411L110.532 144.542C108.05 143.109 106.521 140.461 106.521 137.596V127.857C106.521 124.992 108.05 122.344 110.532 120.911L118.965 116.042Z" fill="#FFFBEA" stroke="#FFD52B" stroke-width="2"/>
<path d="M134.191 125.466C134.18 125.282 134.102 125.109 133.972 124.979C133.842 124.849 133.669 124.771 133.486 124.761C128.633 124.479 124.737 125.955 123.063 128.719C121.956 130.546 121.958 132.765 123.048 134.882C122.428 135.62 121.974 136.483 121.719 137.413L120.194 135.882C120.927 134.351 120.899 132.756 120.1 131.43C118.863 129.387 116.006 128.292 112.46 128.5C112.276 128.511 112.103 128.589 111.973 128.719C111.843 128.849 111.765 129.022 111.755 129.205C111.545 132.752 112.641 135.608 114.684 136.846C115.358 137.258 116.133 137.476 116.923 137.476C117.69 137.466 118.445 137.285 119.132 136.944L121.475 139.288V141.976C121.475 142.175 121.555 142.366 121.695 142.506C121.836 142.647 122.027 142.726 122.225 142.726C122.424 142.726 122.615 142.647 122.756 142.506C122.896 142.366 122.975 142.175 122.975 141.976V139.211C122.972 138.018 123.378 136.86 124.126 135.93C125.09 136.434 126.16 136.704 127.249 136.717C128.301 136.721 129.334 136.433 130.233 135.887C132.996 134.214 134.476 130.318 134.191 125.466ZM115.458 135.563C114.02 134.692 113.206 132.631 113.225 129.976C115.88 129.953 117.942 130.77 118.813 132.208C119.268 132.958 119.342 133.833 119.044 134.734L116.755 132.445C116.613 132.311 116.425 132.237 116.229 132.239C116.033 132.242 115.847 132.32 115.708 132.459C115.57 132.597 115.491 132.784 115.489 132.979C115.486 133.175 115.56 133.364 115.695 133.506L117.983 135.794C117.082 136.092 116.209 136.018 115.458 135.563ZM129.455 134.605C128.199 135.366 126.723 135.424 125.223 134.793L130.256 129.758C130.391 129.617 130.465 129.428 130.462 129.232C130.46 129.037 130.381 128.85 130.243 128.711C130.104 128.573 129.918 128.494 129.722 128.492C129.526 128.489 129.338 128.563 129.196 128.698L124.161 133.726C123.528 132.226 123.585 130.748 124.349 129.493C125.656 127.337 128.755 126.135 132.724 126.228C132.814 130.195 131.614 133.298 129.455 134.605Z" fill="#B5971F"/>
</svg>
