<svg width="20" height="20" viewBox="0 0 20 20" fill="none" xmlns="http://www.w3.org/2000/svg">
<path d="M16.7083 9.55784L10.875 3.72451C10.7142 3.5682 10.4823 3.50954 10.2665 3.57062C10.0508 3.6317 9.88402 3.80324 9.82904 4.02062C9.77406 4.238 9.83923 4.4682 10 4.62451L14.7583 9.37451H3.73334C3.38816 9.37451 3.10834 9.65433 3.10834 9.99951C3.10834 10.3447 3.38816 10.6245 3.73334 10.6245H14.75L10 15.3745C9.88088 15.4906 9.81369 15.6499 9.81369 15.8162C9.81369 15.9825 9.88088 16.1418 10 16.2578C10.1149 16.3784 10.2752 16.4449 10.4417 16.4412C10.6076 16.442 10.7668 16.3759 10.8833 16.2578L16.7167 10.4245C16.9604 10.1805 16.9604 9.78519 16.7167 9.54117L16.7083 9.55784Z" fill="#473C0C"/>
</svg>
