<svg width="20" height="20" viewBox="0 0 20 20" fill="none" xmlns="http://www.w3.org/2000/svg">
<path d="M7.9165 6.87435C7.5732 6.87884 7.29599 7.15605 7.2915 7.49935V12.4993C7.2915 12.8445 7.57132 13.1243 7.9165 13.1243C8.26168 13.1243 8.5415 12.8445 8.5415 12.4993V7.49935C8.53701 7.15605 8.2598 6.87884 7.9165 6.87435Z" fill="#4D4D4D"/>
<path d="M12.0832 6.87435C11.7399 6.87884 11.4627 7.15605 11.4582 7.49935V12.4993C11.4582 12.8445 11.738 13.1243 12.0832 13.1243C12.4283 13.1243 12.7082 12.8445 12.7082 12.4993V7.49935C12.7037 7.15605 12.4265 6.87884 12.0832 6.87435Z" fill="#4D4D4D"/>
<path fill-rule="evenodd" clip-rule="evenodd" d="M6.6665 1.66602H13.3332C16.0946 1.66602 18.3332 3.90459 18.3332 6.66601V13.3327C18.3332 16.0941 16.0946 18.3327 13.3332 18.3327H6.6665C3.90508 18.3327 1.6665 16.0941 1.6665 13.3327V6.66601C1.6665 3.90459 3.90508 1.66602 6.6665 1.66602ZM15.9097 15.9092C16.5926 15.2264 16.9732 14.2983 16.9665 13.3327V6.66601C16.9732 5.70035 16.5926 4.77229 15.9097 4.08945C15.2269 3.40661 14.2988 3.02597 13.3332 3.03268H6.66651C5.70084 3.02597 4.77279 3.40661 4.08994 4.08945C3.4071 4.77229 3.02646 5.70035 3.03317 6.66601V13.3327C3.02646 14.2983 3.4071 15.2264 4.08994 15.9092C4.77279 16.5921 5.70084 16.9727 6.66651 16.966H13.3332C14.2988 16.9727 15.2269 16.5921 15.9097 15.9092Z" fill="#4D4D4D"/>
</svg>
